<mxfile host="65bd71144e" pages="2">
    <diagram id="sLbawvLGoKohiCVcNTMS" name="第 1 页">
        <mxGraphModel dx="1702" dy="790" grid="1" gridSize="10" guides="1" tooltips="1" connect="1" arrows="1" fold="1" page="1" pageScale="1" pageWidth="1169" pageHeight="827" math="0" shadow="0">
            <root>
                <mxCell id="0"/>
                <mxCell id="1" parent="0"/>
                <mxCell id="MIRSQrjufp5qPQAkVAbh-63" value="" style="shape=callout;whiteSpace=wrap;html=1;perimeter=calloutPerimeter;direction=east;size=70;position=0.5;position2=0.48;base=21;fillColor=#FFF2CC;" parent="1" vertex="1">
                    <mxGeometry x="79.12" y="210" width="600" height="130" as="geometry"/>
                </mxCell>
                <mxCell id="MIRSQrjufp5qPQAkVAbh-24" value="" style="shape=callout;whiteSpace=wrap;html=1;perimeter=calloutPerimeter;direction=west;size=70;position=0.5;position2=0.49;fillColor=#FFCCE6;" parent="1" vertex="1">
                    <mxGeometry x="81" y="413" width="600" height="130" as="geometry"/>
                </mxCell>
                <mxCell id="MIRSQrjufp5qPQAkVAbh-7" value="" style="rounded=0;whiteSpace=wrap;html=1;fillColor=#FFCCE6;" parent="1" vertex="1">
                    <mxGeometry x="500" y="330" width="80" height="120" as="geometry"/>
                </mxCell>
                <mxCell id="MIRSQrjufp5qPQAkVAbh-12" value="" style="rounded=0;whiteSpace=wrap;html=1;fillColor=#FFF2CC;" parent="1" vertex="1">
                    <mxGeometry x="160" y="330" width="80" height="120" as="geometry"/>
                </mxCell>
                <mxCell id="MIRSQrjufp5qPQAkVAbh-1" value="&lt;h1&gt;Tx&lt;/h1&gt;" style="text;html=1;strokeColor=none;fillColor=none;spacing=5;spacingTop=-20;whiteSpace=wrap;overflow=hidden;rounded=0;" parent="1" vertex="1">
                    <mxGeometry x="180" y="370" width="50" height="40" as="geometry"/>
                </mxCell>
                <mxCell id="MIRSQrjufp5qPQAkVAbh-2" value="&lt;h1&gt;Rx&lt;/h1&gt;" style="text;html=1;strokeColor=none;fillColor=none;spacing=5;spacingTop=-20;whiteSpace=wrap;overflow=hidden;rounded=0;" parent="1" vertex="1">
                    <mxGeometry x="520" y="370" width="50" height="40" as="geometry"/>
                </mxCell>
                <mxCell id="MIRSQrjufp5qPQAkVAbh-3" value="" style="shape=image;verticalLabelPosition=bottom;labelBackgroundColor=#ffffff;verticalAlign=top;aspect=fixed;imageAspect=0;image=data:image/png,iVBORw0KGgoAAAANSUhEUgAACgAAAAEJCAQAAADyVbZhAAAABGdBTUEAALGPC/xhBQAAACBjSFJNAAB6JgAAgIQAAPoAAACA6AAAdTAAAOpgAAA6mAAAF3CculE8AAAAAmJLR0QA/4ePzL8AAAAHdElNRQfhCAYGJwo6SlFTAAA3EUlEQVR42u3deZxkZX3v8W+vs/fM0LPv+0bE68IOIhpRUYPmJu5eISCiMVxiTHKVJC9R3BVFIUiiUZOgmEQQBoaBYdhF2dfp2felZ9+Xnumeee4f9ZyaU1WnqouZ6q7fU+fz7j96+pzqqurfd56z1TnnJwEAAAAAAAAAAAAAAAAAAAAAAAAAAAAAAAAAAAAAAAAAAAAAAAAAAAAAAAAAAAAAAAAAAAAAAAAAAAAAAAAAAAAAAAAAAAAAAAAAAAAAAAAAAAAAAAAAAAAAAAAAAAAAAAAAAAAAAAAAAAAAAAAAAAAAAAAAAAAAAAAAAAAAAAAAAAAAAAAAAAAAAAAAAAAAAAAAAAAAAAAAAAAAAAAAAAAAAAAAAAAAAAAAAAAAAAAAAAAAAAAAAAAAAAAAAAAAAAAAAAAAAAAAAAAAAAAAAAAAAAAAAAAAAAAAAAAAAAAAAAAAAAAAAAAAAAAAAAAAAAAAAAAAAAAAAAAAAAAAAAAAAAAAAAAAAAAAAAAAAAAAAAAAAAAAAAAAAAAAAAAAAAAAAAAAAAAAAAAAAAAAAAAAAAAAAAAAAAAAAAAAAAAAAAAAAAAAAAAAAAAAAAAAAAAAAAAAAAAAAAAAAAAAAAAAAAAAAAAAAAAAAAAAAAAAAAAAAAAAAAAAAAAAAAAAAAAAAAAAAAAAAAAAAAAAAAAAAAAAAAAAAAAAAAAAAAAAAAAAAAAAAAAAAAAAAAAAAAAAAAAAAAAAAAAAAAAAAAAAAAAAAAAAAAAAAAAAAAAAAAAAAAAAAAAAAAAAAAAAAAAAAAAAAAAAAAAAAAAAAAAAAAAAAAAAAAAAAAAAAAAAAAAAAAAAAAAAAAAAAAAAAAAAAAAAAAAAAAAAAAAAAKRUncH3NElvz/n55zoqaazelTP1NnVIGqH35Uz9L+2TNFR/mjP1Tu2UNFAfypl6j7ZI6qOP50y9Xxsk1euynKkdGlCxv2+z7uY/Xk2OpStMjidIW/XbkvM/RXJGbdOdJedfoXqKZNJ23UFyNZnc5WqgSCbt0G9Kzv8LNVIkk3bqf0iuJpO7TE0UyaRd+u+S8y9VM0UK1AH1zfk5cxRpnN6ZMzVzFGmk3psz9dfaL+kUfSBn6h3aJWmQPpgzda62Suqrj+VMna+Nkhp0ac7UhVpjrUwWd3v/LG9YDtBBSe/U/Jypo7RF0jn6Xc7UaVop6TS9lDP1DXpR0mStypn6Fj0uaZi25Ux9j+ZJ6qOOnKm/19kV+/vWahLjswaN1zqKYNRGjSsxd6w2UCKj2jWmxNzR2kSJjNqiUSXmjlI7JTJqq0aWmDtCWyiRUTs0rMTcVm2nRGYPRpxSYu5Q7aRERu3W0BJzh2gXJTJqr4bIFZ3bot2cFhCsJ3VOzs/91CHp3ZqXty2zTdJ5ejxn6hStlvS/9ELO1NfrZUlTtSJn6nn6XcI20bs1X1I/HcyZ+sFuDjhXAZ/B974JGkgRatBsSmDWWA0muSCNLrl5TXJ2jVQryQVpRMnDSCRnV6tGlJg7hwKZNbTkxyUkZ9eQkh9RsrS0q0VjSybH4T/UOA4A9r46zaQINYhVvWWzSI7kQHIgOZIDyYHkSI7kkF4W7yvxRN4V2ZmLcZ/Lm5o5sbotb2rmsqLVeVMzl/5uzpv6qiRpT97UZyRJnXlTD1XkUOlbda0kaY6e479ezYlWGB/hQhtDztc/+TH3VLfJfUxbKZgZ5+rLPrnfd5vcx7ks0ZBzdJ1P7nfdJvcJbaZgZpytr/jknug2uU9y+b0hZ+mrPrnHuk3uUm2kYGacoa/55B7pNrnLuFmJIafr6z65h7pN7nJuEGTIm/RNn9yD3SZ3hdZSsOAcU7+cn49Ikp7NO66zR5K0KG9qZot0Vd7U1ZKk9rypbZKk3XlTM8d3DidORYoXO05Ozq82UFsek5PTAc6qNeX1fsx9u8RjHpGT0yFubW/K63xy3y3xmIfk5NTBDdJNOdUnd0OJxyyUk9NhkjNljk/u+yUes0BOTke4tb0ps3xyN5Z4zP0+OW5tb8kMn9yPSjzmPjk5daoP5TJkmk/u5hKPuVdOTl15LQlQXVN8creUeMxcOTkdVX/KBeDkDdAxOblu+loiTNvk5PQ8hTClr7rk5DS3xGO2yMnpRYplSh91ysnp3hKPaZeT08sUy5Rmn9x9JR6zSU5Or1AsU5p0RE4ur+Farg1yclpEsYwld1hOTg+UeMw6OTktplimNKpDTq7EuUjSGjk5LaVYpjTokJxcifP/pFVyclpOsUyp1wE5uRLn3Eor5OS0kmKhlgcCes8Bfxo4dxeoPcP8jdPbKIUpHb71evExF904neRsOexPui+e3BB/43SSs+WI32wuldxokjOos9vkWvwt70nOWnIrukluoMaRnEFd/vBQ8eT6azzJGXRUy7pNbiLJGXSs2+T6ahLJodZxALB3ZT59ncqp/DVnTk7CsDbmJhc9lX82yZlObqIGMOaCTK54v3vGnO3kxmtQ0eTqSM5wcuOK9rsnOdvJjSna7362308jOZvJjSra734myZlOrni/+5n+hkAkhxrGAcBqLHYaNY1S1Bh2aW2PuXpNJ7lAk5tBckEmV7zfPcmRHHoiOZEcyYHkUFZys0gO6cUBwOosduZQihrDCiPUMUdyJAeSA8mRHEgOJEdyJIeaxwHA3tWWt3hBrcisSKI78SCcMZdJrovkAk3uKLfYDja5ZZQqyOSOkVywydFKIszknJZQKpJDLyYnkkMt4wCgrcUOQpVJdIU6KYUxi+VKjrnM9JU6TKmCTG6VOiiVMUvKSm41yRlM7lgZya3RQUplzNKyklunA5TKmGU6WkZy67WfUplLrquM5DZqL6UyZrnfUyud3CbtplSoXRwA7F27tKXkYgdhatFYSfSMsmivNpUYcwPpsGfWfm0okVx/TSA5ow5ofcnkMr0RubzGnoNaVyI5eiPadahkv/s+mkxyRnWU7HffrKkkZ9QRrSqRXBPJmdVZMrnoLv0kh5rGAcDeltnpiXoMoTbMosOe+TE3Q00kF2Ry09ScmBwd9uzKbDon97uPeiOyeW13zBVLjt6I1pObon4J82aokeSMJzdJ/RPmTSc588lNTOx3H223kJzdLZTkfvfR2o/kUNM4AFidFUb0STpqA7eMtT/mmjSF5AJNbirJBZlccr97krOfXENi13SSs59cPckFm9wMkgsyuTqSCza5mSSHtOIAYHUWO/QBri2sMEIdcyRHciA5kFwtJzeH5EgOJAeSAzI4ANjbaANSi+iwF+qYi/q0kVyoydGnzfLmNWOu9sYcvRHDS45DtySH6iTHrS5C20IhOaQCBwAtLXYQqkyaa+mNGOiqfh0d9gLdvN6gfZQpyOQ2ag9lCjI5eiOGmtxm7aJMBpXqmp6ZtlU7KFOQye3Qdspkcq/gWDfJ7dRWygSgknbKyekPFKJm9FWXnJzuoRRGbZOT07MF05vVKSeneZTIqK1ycnq+YHqTjsjJaT4lMmqLnJxeTEjusJycHqBERrXLyemlgumN6pCT0wJKZNRGOTm9UjC9QYfk5LSQEhm1Xk5Oiwqm1+ugnJwepkRGrZWTSzg/s1775eT0KCUyao1c4nUIddonJ6fHKRFqG2cA9r7MAme27z6K8M2gN6JxS/yYqy9Ijg57tmWSmVWQ3HTf05nkrMqcj1TY7z7qjcjlNbbHXGFy9EYMI7lorXbcFPUluQCSi9Zqx032PZ1JznZy0wq6pk/UAJILYAulsN/9BN/TmeRQ4zgAWK0VRovGUIoawV1awhhz/TWe5IJMrp8mklyQyRX2uye5MJLro8kkF2RyzQX97kkujOQK+92TXBjJNZJcoMkV9rsnOaQEBwCrtdihD3DtYIUR6pij2xfJoWeTm83SkjEHkgPJkRzMb6GQHFKCA4C9jz7AtYbeiKGOudkkF3hybKSFtmNEcqGPOS7eJjmQHEiulrdQSA41jgOA1VvscACwVmSSbKfDXnBjLvPzFjrsBZrcNjrsBbdjlNnc3qFtlCjIMUdvxFCT263NlCjI5PaqnRIFmdx+baRERi0qmdwBradEACqrXgfk5PQIpagJUW9EOuzZFfX1eiJnagMd9gJIbo+cnJ5MXIbSYc+y3Qn97qPeiI9RHsN2ysnpqTKWobBlu5ycniljGQpbtsnJ6bkylqGwZaucnF5IXIY+TXkM25zY7z6zDH2W8qDWcQZg7zumZZK4B2CtmOK7SHHCuF3OX+R7as7UqMMeydlPLvdT2knqT3LmLfbJxfvdR70RSc6yJX4LJZ5c1BuR5OwnlzvmxqmF5AJZWub2ux+rwSRnXptPLt41fbSGklwgyc3ISW6kWkkO6cABwOqt6odrGKWoAdzTKpwxN0QjSS7Q5EaTXJDJ5fa7J7lwkhuosSQXZHIDcvrdk1w4yfXXBJILMrm+mkhygSY3meSQRhwArN5ih7sA1gZ6RoU05uaQHMmhaus5Nq8ZcyA5kBzJwd4WCskhNTgAaGWxg1CxSxvqmCM5kkPv7hiRHGMOJAeSIzmwhQJUDQcAq6FYf0SEiA57oY65qMPeJsoTaHJ02Astucym9n5toDxBjrkDWkd5gkzuoNZSniCT69AayhNkcoe1mvIEmdwRraQ8ACqvSUfk5DSfUgSvTnvl5PQ7SmFa1Kv5wVhymQ57v6c4pjXokJycHopNS+pSCmuS+t3TGzGk5OJdtumNGMb2SKZX8+OxaZn+ss9TnOC2JLfIyelFimNc4ZZku5ycXqY0xhVuSW6Uk9OrlAZp2NBD7+v0ny7QBzh84zVIEj2jrOvS8rwxR4e9MBwt6Jo+hg57QYj63R//fJ3eiKEkt1RSvGs6vRHD4Hxyx5eWUbM5krOe3JK85Fo1guSCkN81fYhGkVwQMkvLWdnkopZlJIcU4ABgdWTuLzDOHzxCuLhjRFhjLjoEQXKhJRcdgiC50JIbke13T3JhJddKcoEmd4o/eERyoSUXHTwiudCSa9Fo/zONJELR5pMbS3JIHw4AVnOFUadZlCJwrDDCGnPKjjmSIzn0bnLs0oaW3BzGHMmB5EByNZzcbJJD+nAA0MZiB6FilzbUMUdyJIfe3TEiOcYcSA4kR3JgCwWoIg4AVgd9gGtF1GGP3oihjbnM90N02As0uQ467AW3Y5TZzKY3Yqhjjt6IoSbXqRWUJsjkukgu0OSiuxcjnC2UzPdjJAegp/TXUTk5/ZZSBC7TYe85CmFeX3XJyeke//NWOTm9QGHMa1annJzm+Z83y8npJQpjXn6/e3ojhpbc/f5neiOGIup3v8D/vF5OjpvaByDqd7/Q/7xWLtsaBJbV66CcnB72P6+Wk+MgUhDJ5fa7XyknxyF3pOW/P6ohOmOMPsBhG0GHvWBEZ4xlxlyrhpNcII5oVSy5oRpJcoHo9MllPlePbm/P5TUhJLciNubojRiOrrzkxpJcII5qeSy5gRpPcoGIzhjLJNdfE0guyOT6aiLJIT04AFgtmZ2gKepDKQLGHSPCG3MT1V/c7DfE5CZoIMkFJrMpPV6DSC7IMTdWLSQXZHJjNFjSLNWRXGDJjdJQkgsyuRFqlTTL71eTXDhbKMM0TNIsNZAc0oMDgNVdYTRoBqUIGDtG4Y25es0kuSCTqyO5oJObnbPJjTCSm8WYCzK5zHgjOZIDyYHkgDwcALSw2EGoOAMw1DFHciSH3ktuDskx5kByIDmSA1soQLVxALBa6ANcC6IOe/RGDG3M0Rsx7OS6/P2SEM6OUebz9aMkF+iYozdiuMktpSxBJudILtjkaN8S2hZKtDdOckiFRkpgYIWBfM5/r6vwYystk95ydVK1ACyRU13Oqn6ljpBckMmt0mGSC2Lz+pjq85LrILkALC1IbrUOkVwQyR1VQ05ya3WQ5AKwTF1qzElunfaTXACWFyS3QftILojkOtWUk9xG7WHfm/8vacABwGrZrc0aJfoAh4zeiMdN10d1scarVTu0XvP0S4Pn+ezVRo2TNEcDNY7kJA3TrOzXJH8DZIsr8/1arwmS5mgAHfYkSc16q96p0zVdp+iwduoVPaH/0CZz7/Og1muipNnZ3ojpvrxmnM7SG3WqJmuMBqlOe7Rez+lO3a+j5pJbq8mS5tAbMdFQLdJokztAHVqjqT65ySQX21FNYim7w1qt6ZLmqFlTSC5nW/u9er9O1Si16IDW61U9qfmGtjGPaKW/Q3GTppJcyRFna9x1aqVmSZqtJk0jOQC94SE5OXVU6SCs8182X+W1/F7hY3vnb5PO9K/zFTMr3epUrVnXqzP7+5mvTl2vZnNj7gE5OR3R2f5dXp/y5FzCl03z/f+qKLmvpzi5N+lW7UlIrlM/1ABzyc3z7+0s/y6/keox54p8LdGF5pK7V05OXTrDv8dvpXxpmetnhpeZc+XkdDSb3HdYzxX9suUun9zp/t19jzGnel2lHeazu1NOTsf0Zv/evs96rsTXIUPJ/SYvuRtrcE+81va9URHcA7B6MmdC9NEkShEobhmbWYb8WtcWHMZu1LW63dzyJZNUk95CckEuLRtJTtKzulItCdMb9Vd6Uq1Gk7uA5EqYqQX6qMnkGvRWkitwkS41v7SsJ7lA13P12Y8DSK6v5uoWnRJIcnUkV5Z5JAdUf+cd1V3scBHwyarzX70v5AOAlavat/R+SdJBXasp6qdp+gf/+d4H9E2jY+5MkpMkbdej+md9ThdqRCBLyzNIzturn+gSTVJfteoi3eGnnqY7jF2QSHJx63W7/k4Xa7aGqEkDNEfX+Au3G/RTzWBpGcTWwUD9i2TkXpaMudf+nPEvtlAsJ9eke3SxJMnpV3qPxqpZgzRLf65btYrkzCZXl/hVr/V+/u0kx743kF5v8yfL/n1VXr12LgGu1t92/EKb/kb+R1WjajP9xb+HsqtPSTpLHf7CP1u7tG/xf+Nin9yAFCdXrVFzYs7z767NX64xMMXJOe3RlzQ4b+rlOuaf7UOmkjs3L7kWxlyeVr88cvqxqeTOzknOFfyPS29yN8nJ6Ytml5nRzUkW+e9DU55cOBemnZ6XXGvKk/uK/83d2TPIrXpTXnLDWFoWON8/2z71M5TcG/27etV/H16De+K1tu8NBG60Hyo/D3CY9/SrhLEQWiEnp5WpXnTf5n/ri3nTv+Sn32ZqzA3372qvnJxWs9INZtXd6t9d5t53a1Od3B2++VC+W/yz3W0quSE5ya1jzCV4r3+2VYaT20By2d3YY3J6SY1ml5kt/sOATHKbUp9cOLulA31yu+XktDnlyZ3mP14+mr31h10DcpLbytIywc0m9wr662gsue01uSdea/veQPB2ysnpqQCHeU+/SggLob7qkpPT3BQvuvtpv5yc9hecHTJYB/ycfqbG3DZ/HpKT072sdANadW+JJXcfySV4vX+2DcaS2xxL7n6SS9Din83aRaWbYsk9QHJ+vb/UN9iwvMzcEEvuwdQnF9Ju6bpYcg+lPLl/N3lmdDFr/MFKJ6dHWFoWaPDbcE7vM5bc6lhyj9Xknnht7XujQrgHYDUtkSTNqfg19E36oG7TIu1Wlw5pm17Q7fq8ZuYM0vwBmz9sx+mvdadWa786tFnP6Ca9rdsBP1Cf0WPaoKPqKvNVyjFYf6OntE0HtFQ367RuFjmVetXuzVSDJKt3jOidqr3LX0R7v/bkzdnjd/UH6J2m6hLd8DftyYWH5Lqz1H8fbqwubbHk2kguQZf/foAxZz656zRD0k16mqUl6zmS68HkWvXn/re+GVBy9SRXxNv9naZ3GfoYML6FUvnkKrEnLtXpPfqxXtE2HdE2vaxb9O5u98W7S5plNFBlP/XDY1xFn/WNWlqk9Xry4Cx8xHm6N3s/qfjXM7FFV+Ei4M3+U+fMZyndv0opxx95htpzfrdTX+52IXSir/rafNg/72Vm/j/1ftW+7h91TcK8v/bzvmZqzN0a+9suT3Fy6mZlbs8tsb/tUySXYJT//a3Gkrs59rddSXIJovsBzzWW3E2xv+0qkpP0ZnXJaZ2/B6ndZeYPY3/bZ1OfXEg7oj+I/W2fS3VyH/OP+10g+3M3xP62q1laFvg3/9s/NZfcd2N/2zWG9sQza5znE+Y/qzecVNJh73sDNeALfnhcVMHnnOzv+3Iyi53i8/cU9CyO5kz2FzQff6ZKHACclPesma/vmFgIXeef9yxzq/req9pd/lHvSJh3kZ/3W1Nj7prY33ZOipMLbyfp6tjfdh7JJfjf/vcfN5bc52J/2/kkV2CgnvWX/Vm709Vfxv62C0hOTXpJTk7vNb/M/Ezsb7sw9clFj/0XLdYB7dda3a2/MtOOKNenY3/b21Od3I/8464PZH/uU7G/7R0sLfM0a5e52kQuj/1tlbpiqRJ74tIlOljkEQeya6ETSTrsfW+gBlzsh8f/reBz/iLbZ+lanaaBatAATdPF+poWlb2773RMC/RpnaahatQQnaHrtCPbEbA+8Xnmy+kVfUSjcuaf7MGI+XJ6SG9Ti1r0Nj2cnf6ukq/RO4ud//avMsTcqr73qhZ1r0zq9Tsz23HXkotiq6WhKU4uvAOAfxxLrpXkEiws0pCn2t4eS24YycX00RRdoeX+uf7G3Ji7MJbccJLTP8nJ6b8CWGZeEEtuZOqTS94t3alPG0zu/Ng7HJ3q5P7gf+sSScP0Bf1BW9WhTXpcX9UUg8mdG0tuLEvLPJf4Z9rib51kyTmx5MYb2hOf4++k7rRGl2usmjVOl2tt9plnnnDSYe97AzVgcg/c4naTf873nMTu/jzNKpg2Wkv8b/xZkU2reWqu2EGF48/6y9gdEuv1az91WWxqtRZCmabxGw39f+r9qrWXOJR2ip+3ydSYG5/9O9tTnZwqNlZ7y9jsO9xCcgn+zD/XfkMH2aJ1hzN4cXJ1k8s/GPG8wfMijl9U3vu9ES0md6oOy2mXRgWwzByRfW+7SK7EuSk3mkuuNXa9TbqTW+1/61Rd4pu3Hf/q0k3qYyy5obHk6lI/5vL9yj/TTQaXlkOyf+e+iiVXiT3xx/28p3LOVh6i5/z0R0446bD3vYEaUO97qD5awec84gdg/4rv7r/D/8a/Jz7P9sSzck72AOBmDcqZPlhbC04jr85CqFEdcnJaYHAjrfeqts//Tt+Eef38vL2mxlxd9sT8halOrnJjtffs9u/wYZIrMCl7jvZ1BpOLLiZ5lOQSDkkc1S8S7q5rQ/S/6rHUJ9egpwruP2p5mRkdMnmCMacl+o7+VLM0SA0aqnP0rdjleZ8xl1xUiydTnly0vr8i8Y7kTk8kbndW02b/zv7AmMvT3+/rWrp9S1x0KkPlWjud/J74WdmPdCfkzZmqQ37eGSeYdMj73qjgIShUzzEtkySdWsHnjM63+kjF3220IXlG4tyfaUcPVOhn2pfz8x793P/rvVXObqr//NFit6/eq1r/7Mqu0OG8x1jZHFrr/5Xu5EK0huSKaNHdOkWStMhY0x2SK2cr7P9oieZpmsHqrCY57xqdIekx/SSQpWWU3BLGnGbpb3WHlmifjmqXntTf63V6yc/7ugYbq84qkpMk32hH+qHqtFCXaKSaNVKX6CE//VxzZ5ORXDF/ogGSpPVGW7qsrHhyJ78n/gH//T+1ruDd/jLvMZVPmn2RFOAAYHVlNqtbK3jRVnR/mn/VXH38JO4hMliX6ja9rG067I/pH/Rzku8oc1+P1KewXfx8//3MKic32/COUe9V7ZD/3pwwr0/eY6yILmbbmOrkQrQ9b9OK5DL66i69TpJ0UB9PPBhvJbl2kvPqVKc6DdB0fdKf6fNuPWvw7AiSy5imr0o6rCuDObuB5EpZp3f7j6yH6FKjyW1OeXLRlmM/fUV/rLu1VZ3aqrv1dn3Vz7lMf2QyuS2MuTwfzu6fWj1fOqNyNyk5+T3xaGvgtwnz7vDfz++xpNkXAXrYP/iDa5Xr/jdIT+ecJr9Yt+hPXvPd+a7Onn5f+HUs8XmSDwue7CXAhc86quAObtU5Dfmb/jWuMvS/qferFt49AKX7DN5y38L/d/sn79/r3+HfkVxMc7YuR/V+o8nN9e/w/5Fcos9n75E4wlhyd/t39qVUJ1enR+Tk9I8BLTPv9O/tHxlzRXzRP989xpL7jX9fX055ctFd1B5ImLfAz/uuqeSixoBfZczlGOxvmOT0ZqNbKD/x769yV86d/J74xhKtgKI7Yq8/waRD3vdGxXAGYHW1+e+zK/aM+3S+/jH2OcYsXaW7tEHXvIasv6cbS1wWkXwj0d09Up9dRacMqXJyZ/nvLQb/V/Ve1aLbVCedwTos7zFW9MkeOElzciEiuUKNul0X+3//beJnxZaS60NyiW7QzyRJw811Am5mzEm6ShdIatO3WFrW0Hpurv9+GsmZTC7acvxhwrxo2oUkF8CY+1NfmRV61ujSssN/r9z7O/k98VP8950J86IbbrX2WNLsi6QABwCrK7qAdHYFn/OwrtcYvVX/pAXZxdpwfV+/KTPtC/R5/6/HdZlep1PUR3Wq6+a3D6csuejw1rhU//9d5r9PTJg3Me8x1pIby+In0DE3hlJ4DbotexeYH+kG88mNJrIi/tl/fx/JGfQtSU5Xmry8nuRO1Oq8SllLblTK81nqvye11IimTTCZ3EgGV47oAuBfm32HmT3wI9llgoU9cQA1rcnfYe/+Hnr+fvqT7CWPuf3Oip+q+6tst9/cc/0GJ/5O6VN+a/US4Lps/1uLXYB7r2rf8L9zTcK8a/y8r5sacba7AHMJcCmWuwBXI7l6/Wf2Gf7b9Eal5S7ANtYxUc90a3dMtdwFuPeSc2V+WWK5C7CNMTfAP98BY2POchfg3kzuq/63GhP3nDLzbB2St9wFuHpjbrg6/bP8kazKXG7+co89/4nsiXMJMHoYR6Krq9N3H5rTQ89/SHfr3fq2/+nSsn4nuvXo1/KGcTV6FBaeGRlVam1Vc5uQ7VA22+D/qt6r2tP+e9KtaKNpz5iqzbjsRdtzUp1ceMZmb0tAcpl197/pY/7fC/XxvHuzWjI6e4/Q2SRXRHTRmK0z6UdlL0NizIVlRPZspFNJrohJ/vtWU7Vp1XCSkyQ95b8PSZgXTdtlqDZDswdNZhe5UVI6x9yf+0O4i/Sq0aXlEH+QredaOp7Invga//31CfNen/eYyifN2jUFOABYbYv9zm1P3kvuxoSN+Gh3sS5h0zF50fLOE3jl4q9SnsLXfFfexkFPvOprWTiOLXG3xGrpvard73tDv7Pg/+9g/5oHeuzs1pNNblRi65K0JBee2bElVGvqk6vTrfqk//cz+oDpWzAcX+8MN3e5nZUx90b/faPRMXf8sATJhbW0HGLwgkQbyUWX279idGnZYvDy7d5MboG/C+DZCfOiaauMJjeGMZcVXQB8u/ml5eIefp3Xticenbv9/oRn+kDeY04+adauQK+LTnM/owdfY1DCpQ67/LQhBY+OLpGcnfcc60/gEuDir1Ja9KybNShn+uDs5REXlXgHJ/qq5ft87LIfO03Rq1G16ILxL+ZN/5Kf/ktj4+2aWHLnpDq5Yu/BqqtjyZ2X+uRuzj7bq9mztKz6XCy58xlzie7xz/cDU8n9ZSy5C0guoGXmZ2LJXUhyCUZkX/OzppL7dCy5t6c8uZ8Uvc3OgwY7JX8qltw7GHPeOB3zzzFNVl3u3+GHevh1Xtue+Jl+zv6CO11O1oGE4wavJelw972BGvJRP2A+WaHnW5jtT1u46/xibNqLftrbCh79lJ9za2xao/6nyJ1uSm8CF3+V8hZCTrfFPkuo0+1+6orY1MJ3cKKvWr5/jb3Dy8yt6nuzarP9/T0O5ayKzlKHnJw6NcvYeLs1VqXLU51cODuzGbfEqvSplCd3Q/a5lgdwk/+bY1W6kjFXoFk3+mfrSrzcp3puilXpKpILaJn5w1iVPktyBcboGf9sW7K3c7HhB7EqfS7lyU3QITk5XZc3/brsHVPHG0ruhliVrmbMeX/jn8Fq/19J+q5/j6+r4HOe/J649Fj2npLxg3GDs8uuh0846XD3vYEa8gY/YL5ZwcX9C/o7na1hatJIna+f6qh/jc8nbNq/pLeqJWfB8LfZYf0LvUEDdIou0TNymnsCBwCLv0p5C6H5clqoCzVIg3ShHs5Of0/Jd3Cir1q+J2KLyW+bW9X3btW+l/1U64uarD6aomt10E/7nrnx9lgsue+mPLlQdmYzHokld0Oqk/ta9pnWJfbftuahWHLfT3VyK/TPukLnapIGqlFNGqZzdK1WGlyXRDsxx5O7kaVlQMvMBbHkfpTy5JbrZl2qMzRa/VSvwTpTX8u2JXL6iLHk7o8ld3Pqx9wXs8323qdhatQwvS/2f/tLppK7L5bcLSwtvehg1RcMb6Hc6z9+61vhup/cnrg0J3um32pdprFq1hj9hdb4afs084STDnffG6gh/f1C4a4KL+4Lvx7L6ab1R9nOTPld7AZoecKcTRp9AgcAi79KeX/F5Owpxa7o7n/hs57oq5Zvu5ycP7V9rrlVfe9WrUF3F/kfd5cazI23bbHk7k15ct13t7RkSyy5+1KdXPfdSG1dbLM5ltz9JFf068fmNpg3xZJ7IPVLy5AOAG6IJfdgypMrPuKOGTwssS6W3EOMuZxrNnK//tVYcpkDM5n9uUdITpI0NTvSxsuuVXJyWtYjdT/xPXFJuiR7MkX+1wG99ySSDnffG6gpq/ylXJVxvuZl77kQ39D5ifrnPfJyf5lm4UCdpiV505dqZpHN3e6GePFXKW/D+ky/++iyF0ldX8ZG+Im9arlGZj+ByZwSbW1V39tV66NvqCvv97r0DfUxN9aG+3e313+qlvbkwjkA2OrfUeYOpWtTnVxYBwCH5CS3juQSv5bpEnNLy9zkNqR+aRnOAcAWvw24x394m+7kio25xQYvVBvok9vt78PFmKvX1X5LO/61S58xltyAnOS2kpwk6R/8bzxheA+80ifhVG5PXJJO1wsJy67nsm3DTizpUPe9gRpT+dOPx+sLukfr1aEOtesRXZ/Q0luSpujLWqgN2p9dUB1fJF6jJ7RTh7VGC/QJfyjnRA4AlnqV8jasB+sLelrbdVDLdUvCPZKS38GJvGq53prdgMx84tfP3Kq+96s2Q9fpabXriNr1tK7TDJNj7S15yQ1IeXLhHAA8z7+jNr8ZNTDFyYV1APDcvORaUpzceH1Y39Y9elU7dFhd2q01ul/fNNTUJu7snOScmX73drYOrO7gRLePX+S/D011chP1Cf1AD2q59qpLh9SuP+gHeofJC9ROz0uulTEnaaSu1kKt0SHt1xrdqc/mNSiw4E15yQ0jOUmvmrubZaFK34arknviklSn9+hWvaod6tR2vaof6+KTTjrUfW+gxnzHD5LTKEUgPusTu9N/fz0lCcRVPrE7/Pc3UpJAXOkT+43//mZKEogr8pI7nZIE4vK85M6kJIG4zCcWtW47m5IE4pN5Y+5cShKIT+SNufMpSSA+VuFGnNXC+XZ4jeopQdUt9t9nU4pAREk97b/PoSSBJfcUYy7wMUdyJAeWlmDMMeZAcjjZ5NooBdKFA4DVxwHAMFcYR/QYyQWZXCfJBZpcF8kFm9yjJBdkckezN7QnubCSO0ZywSb3MMkFmZwjuWCTW0opkC4cAKw+DgCGucJYrlf86dYkF1ZyK0gu0ORW6mWSC0zm/OhVelnHYj8jlDG3Wi/rKGMuwOTWkFygya3TS+oiuQCTW6+X1ElyASa3UXspBdKFA4DVt1vt7BgFpEVjJElt2uuTY1UfSnJjfXL7fU9LxlwYBmq8T+6A7yNLcmHo75NbrIM+OZaWoSQ30Y+5Dt91mzEXhr6alE1uNckFpI8m++SOaBXJBaRZU31ynVpJcgFp8i3TuAAYqcMBQAsy5wDOUCOlCMCcWGptPrkmyhKAWb7v3+LsmJuqZsoSZHJTfGdy2Dbbb2PEk+tLWQIwsyC5yWb63aN0cg15yU1Uf8oSgGgf4HhyE8z0u0cp0wuSG2ewUzEKTfN7b4spBdKGA4AWZBY9zZpCKQIQPwCYSa6J5IJNbhplCTK5Rk2nLAGYHUsu83FJA8kFOubqNYOyBJrcTMoSZHJ1JBdscrMoS2DJAanCAUALuAtgqLu0i/NWIggtOcYcyaHnk2sjOcYcSA4kR3IwmRyQKhwAtKCNFUZwK4xjWsaqPtDkljLmgkzOkVzQyfFxSYjJLWHMBbxLS3IkB5JDd8mFfw/AOv8FlIkDgBZwGCm8FcZqHWJVH2Rya3WQ5IJMbp32k1xgMgf71msfyQU55jK9EUkuvOQ2aY+kJXRNDy65zdpFckEmt1U7JC3x/e5JLpzkdmg7pQBQDTvk5PQMhTCvr7rk5HS3/3m7nJyepTDBJHeP/3mrnJxeoDDmNatTTk7z/M+b5eT0EoUxr0lH5OQ03//cLienlylMMMnd73/eKCenVymMeY3qkJPTAv/zejk5elwGoEGH5OS00P+8Vs6fgQvb6nVQTk4P+59Xy8lpGYUJILkDcnJ6lFIgjf/9YUFmJT+L03fNmxXrsHf8+2xGknkzEpObSXIBJNeYkFyUJywn15SYHP3urZuWmNx0kjNvqu+PnptclCfsivqj5yY3lX735kX90XOTm0Jy5kX90bkDIFKInV8bMoufgRpPKYzL7xmV+d6f5AJNrp8mUZogk+uryZTGuPwbbGfOQ+pDcoGOuWZNpTRBJke/+1CTayS5QJNroGt6cMkBKcIBQBu4C2Cou7Tc2D705BhzJIeeTa6N5BhzIDmQHMnBbHJAinAA0AZush3aCmMJq/rAk2PMkRxYWqJUcm2MOZIDyYHkUpAckCIcALSBHaOwVhgbtYdVfZDJtWsXYy7I5LZoB8kFmdzWbIc9kgsruR0kF2hyO7WV5IJMbrc2k1yQye1VO3sFQSa3XxspBYDqqNd+OTk9TilMa9JhOTk9kJ1Sp31ycnqC4pgW9UZ8MJbcbjk5/Z7imBb1RnwoNm2nnJyeojjG12qZDnuPFCT3NMUJIrl4b0T63Ycg2h6Jb0luk5PT8xTHeHJ75eT0u9i0LXJyepHiGFe4JUm/+zCwJYlUb+jBgmNaKolPjKybqmZJ8TtGOH9526kUx7Qpeb0RJefHHHdvtG1yXm9EST45uqbbNimhw94Sv54jOcsmFk2OMWfbBA0sSI5+9yEYp0FFk6PfvWVjNbhIcvS7t220hhYkB6QGmwRWZBZBrRpBKQxL6hmV+fcQjaQ8QSbXojGUJ9DkxlKewJLLXBw1UOMoT5BjboAmUJ4gk+uviZQnyOT6ahLlCTI5+t2HlxyQGhwAtIL7fYRgdtFVPWeShZscY47k0HPJtZEcYw4kB5IjOZhODkgNDgBawW1j2aVF7ybHmCM5sGMExhzJgeRAcmlPDkgNDgBawY5ROCuMHdrGqj7I5HZrC2Mu0OTaSS7I5PZqE8kFmVxub0SSCye5A1pPckEmd1DrSC7I5Dq0luSCTO6wVlMKANUTdSldQCnMino1P5aY3IMUyKzkXs0NOignp4cpkOHk9sjJ6cm8kVjYpRTWZHoj/qGMZShsSeqNSL/7EGR6NT9TxjIUtmR6NT9XxjIUtmyVk9MLictQ+t1btllOTi9RCKQTZwBa0aWVkvjEyLIJGiAp/44RXVouiXsAWjY+oTeidNQnx5iza6xaEpI7pmUkZ9yYhN6Ix5NjaWlXcm/EqGs6Y86ukWoluSAN17CE5Oiabl+rhpNckKLGjdwBECnFAUA7Fvsd3sGUwqhit4xdnLPbhNCSi3abEFpy0W4T7CnWYa8tZ7cJoY25UzSCEgWZ3BCNokRBJtei0ZQoyOQGaiwlCmwLBUgJDgDaEd1LbhalCGyFsZjkSA5VSY6zWqzvGLWRXI2NOc7eJDmQHEiuFpMDUoIDgHawY8QuLXo3ORq4kBx6NjkO3TLmQHIgOZKD/eSAlOAAoB3sGIWxwtivDazqg0zuYE5vRMZcOMkdyumwR3LhJNehNSQXZHKFvRFJLozkjmgVyQWZXKe/EzjJhZZcF8kFmlx0J3AAqJq+6pKT092UwqgdRfp6RcndQ4mMynTYe7ZgerM65eQ0jxIZlemw93zB9CYdkZPTfEpk1BY5Ob2YkNxhOTk9QImMai/SGzHqd7+AEhm1UU5OrxRMb9AhOTktpERGrZeT06KC6fU6KCenhymRUWvl5BIuI4363T9KiYxaLZdtkASkEGcA2tHhz3LhnhE2jdIpkpLuGNHhz5UgOZtGFOmwd/xcCZKzqViHvePnSpCcTVGriOLJcWaETVGriMLkurSCMWdYi8YUSS46y4XkrCY3tkhydE23baDGd5PcqRTJpP6aUCQ5ICU4AGhJZlE0Wf0ohUHF7ml1fNpE9adMQSY3QQMpk0Fzuk1unAZRpiCTo999qMmN0RDKFGRyozSUMhk0S3XdJDdCrZQpyORa/cfPsJZcfdHkgFTgAKAlbT6TGZQiyM3res2kTIEllxlzdSQXbHJ0cLZoNmOuZsccXdND3ULhvFuSQ28nx9mboSUHpAIHAC1hVR/CLm0byZEcSA4kR3IIIjkalZEcSA7lJAekAgcALWHz2v4K40hBb0RW9WEk11nQG5ExF0pyK0kuyOSiu8aRXGjJJfdGJDn7yR0juWCTW0ZyQSbnSC7Y5GgCgtTiAKAlbXKsMIyvMJaqK2HeEpIzn9wydZJckMmt0JHE5I6RnFmZC2xW6nDCvKU+OS6NsjvmiiV3lDFnPLlVOpQwb5nfbiE5u8mt0cGEectJznxya7U/YV603UJydpNbr32UAmnFAUBL9qqdHSOjhmi0pGJ3jNirjSRnVPHeiJK0X+tJzqiBGlciuYNaR3JGDSjaGzGT3Fp2jIwq3RuxQ2sYc0b106QSyR32Vy6QnD19NblEckfod29Ws6aUSK6T5Mxq0tQSyQGpwAFAWzKLo+lqpBTGlLqp/fHp09REqcwlV1dGclPVh1IFmdwU9aVUxswqK7nJJGcwufoykptEv3tzZpaV3AQNoFTGzFBDGcmN10BKZS65xjKSG6sWSmXMdL+nxgFApBgHAG3J3Euu2X86ATu66xmVmd6kaZQqsOQyY66R5AJNrkHTKVWgydHvPszk6kku2OTovR1mcvS7Jzn0VnJACnAA0BZuG2tVdz2jSI7kQHIgOZIDyYHkSI7kwkwOSAEOANrCCsP2CiO5N2J8RUJyNpM7VjQ5xpz15JaRXJDJFe+wR3Ikh57ZpSU5kgPJoZzkllAKpBcHAG1hhWF7hbFKHUXmcwDQdnKrEzvsMebsJ7dWBxhzQSa3LrE3ImPOfnLFeyMupmu66eQ2aA/JBZncJu0qmhz97i0nt1k7isxfSnKmk9uq7ZQCgBXb5eT0LIUwpb+OysnprhKP2SYnp+cplil91SUnp7klHrNFTk4vUixT+qhTTk73lnhMu5ycXqZYpjT75O4r8ZhNcnJ6hWKZ0qQjcnKaX+IxG+TktIhiGUvusJycHijxmHVyctz1yphGdcjJ6cESj1kjV+KsXFRHgw7JyemhEo9ZJSdX9OoTVEe9DsjJ6RFKgXQPBNiSOSU56qIIG7rrsHd83kzGlLHkGspOroFyGdJdh73j82bQNd2U6SQXbHJNZSY3nX73pkxVc5nJRY+EDVPUp8zkokfChqiLfffJ0e/elqiLPR+GINXY/LamTedKGqAPFj2tHL3vLTmr82LJnS+pvz7IaeWGnF9WchdI6qsPaSsFM+PcspK7UFIffUhbKJgZ55SV3NskNevD2kzBzDi7rOT+WFKTPqJNFMyMs8pK7iKf3EYKZsYZZSX3LkmN+og2UDAzTi8ruYslNeijWkfBzHhTGckBNY8DgNZEi6TbKYVBbWUk9yvKFGhyt1GmQJP7T8oUaHL/QZkCTe4XlCnQ5H5OmQJN7meUKdDkfkqZAksOqHlcrmgNn0nYVfouLCRn2RKSIzmQHEiO5EByIDmSA9KLA4DWsMKwa4P2klyQNhbtjUhytrUX7Y1IcrZtKXkTC5Kzq3RvRJKza0fJm1hwvotdu0reCoHk7Npd8lYILC3t2sutEJBuXAJszTp9miKY3aUtZYOupHWL2V3aUjaSnFnbSs5t16f4EMuo0ndC3UxygSa3VVfQLsmoHd3MvZwtfqN2lpy7i+QCTW63/oJ2SUbtkqMIAAAAAAAAAAAAAAAAAAAAAAAAAAAAAAAAAAAAAAAAAAAAAAAAAAAAAAAAAAAAAAAAAAAAAAAAAAAAAAAAAAAAAAAAAAAAAAAAAAAAAAAAAAAAAAAAAAAAAAAAAAAAAAAAAAAAAAAAAAAAAAAAAAAAAAAAAAAAAAAAAAAAAAAAAAAAAAAAAAAAAAAAAAAAAAAAAAAAAAAAAAAAAAAAAAAAAAAAAAAAAAAAAAAAAAAAAAAAAAAAAAAAAAAAAAAAAAAAAAAAAAAAAAAAAAAAAAAAAAAAAAAAAAAAAAAAAAAAAAAAAAAAAAAAAAAAAAAAAAAAAAAAAAAAAAAAAAAAAAAAAAAAAAAAAAAAAAAAAAAAAAAAAAAAAAAAAAAAAAAAAAAAAAAAAAAAAAAAAAAAAAAAAAAAAAAAAAAAAAAAAAAAAAAAAAAAAAAAAAAAAAAAAAAAAAAAAAAAAAAAAAAAAAAAAAAAAAAAAAAAAAAAAAAAAAAAAAAAAAAAAAAAAAAAAAAAAAAAAAAAAAAAAAAAAAAAAAAAAAAAAAAAAAAAAAAAAAAAAAAAAAAAAAAAAAAAAAAAAAAAAAAAAAAAAAAAAAAAAAAAAAAAAAAAAAAAAAAAAAAAAAAAAAAAAAAAAAAAAAAAAAAAAAAAAAAAAAAAAAAAAAAAAAAAAAAAAAAAAAAAAAAAAAAAAAAAAAAAAAAAAAAAAAAAAAAAAAAAAAAAAAAAQAr9f9H6u338MgajAAAAJXRFWHRkYXRlOmNyZWF0ZQAyMDE3LTA4LTA2VDA2OjM5OjA5KzAwOjAwFRrCKwAAACV0RVh0ZGF0ZTptb2RpZnkAMjAxNy0wOC0wNlQwNjozOTowOSswMDowMGRHepcAAAAASUVORK5CYII=;" parent="1" vertex="1">
                    <mxGeometry x="106.22" y="484" width="579.55" height="60" as="geometry"/>
                </mxCell>
                <mxCell id="MIRSQrjufp5qPQAkVAbh-8" value="i_serial_data" style="endArrow=classic;html=1;strokeColor=#FF0000;" parent="1" edge="1">
                    <mxGeometry width="50" height="50" relative="1" as="geometry">
                        <mxPoint x="400" y="410" as="sourcePoint"/>
                        <mxPoint x="500" y="410" as="targetPoint"/>
                    </mxGeometry>
                </mxCell>
                <mxCell id="MIRSQrjufp5qPQAkVAbh-10" value="o_data" style="endArrow=classic;html=1;shape=flexArrow;strokeColor=#FF0000;" parent="1" edge="1">
                    <mxGeometry width="50" height="50" relative="1" as="geometry">
                        <mxPoint x="580" y="413" as="sourcePoint"/>
                        <mxPoint x="680" y="413" as="targetPoint"/>
                    </mxGeometry>
                </mxCell>
                <mxCell id="MIRSQrjufp5qPQAkVAbh-11" value="o_rx_done" style="endArrow=classic;html=1;" parent="1" edge="1">
                    <mxGeometry width="50" height="50" relative="1" as="geometry">
                        <mxPoint x="580" y="370" as="sourcePoint"/>
                        <mxPoint x="680" y="370" as="targetPoint"/>
                    </mxGeometry>
                </mxCell>
                <mxCell id="MIRSQrjufp5qPQAkVAbh-14" value="clk" style="endArrow=classic;html=1;" parent="1" edge="1">
                    <mxGeometry width="50" height="50" relative="1" as="geometry">
                        <mxPoint x="60" y="350" as="sourcePoint"/>
                        <mxPoint x="160" y="350" as="targetPoint"/>
                    </mxGeometry>
                </mxCell>
                <mxCell id="MIRSQrjufp5qPQAkVAbh-15" value="i_data" style="endArrow=classic;html=1;shape=flexArrow;strokeColor=#FF0000;" parent="1" edge="1">
                    <mxGeometry width="50" height="50" relative="1" as="geometry">
                        <mxPoint x="60" y="420" as="sourcePoint"/>
                        <mxPoint x="160" y="420" as="targetPoint"/>
                    </mxGeometry>
                </mxCell>
                <mxCell id="MIRSQrjufp5qPQAkVAbh-16" value="o_tx_done" style="endArrow=classic;html=1;" parent="1" edge="1">
                    <mxGeometry width="50" height="50" relative="1" as="geometry">
                        <mxPoint x="240" y="389.7599999999999" as="sourcePoint"/>
                        <mxPoint x="340" y="389.7599999999999" as="targetPoint"/>
                    </mxGeometry>
                </mxCell>
                <mxCell id="MIRSQrjufp5qPQAkVAbh-17" value="o_tx_busy" style="endArrow=classic;html=1;" parent="1" edge="1">
                    <mxGeometry width="50" height="50" relative="1" as="geometry">
                        <mxPoint x="240" y="369.51999999999987" as="sourcePoint"/>
                        <mxPoint x="340" y="369.51999999999987" as="targetPoint"/>
                    </mxGeometry>
                </mxCell>
                <mxCell id="MIRSQrjufp5qPQAkVAbh-18" value="o_serial data" style="endArrow=classic;html=1;strokeColor=#FF0000;" parent="1" edge="1">
                    <mxGeometry width="50" height="50" relative="1" as="geometry">
                        <mxPoint x="240" y="409.9999999999999" as="sourcePoint"/>
                        <mxPoint x="340" y="409.9999999999999" as="targetPoint"/>
                    </mxGeometry>
                </mxCell>
                <mxCell id="MIRSQrjufp5qPQAkVAbh-19" value="i_tx_trig" style="endArrow=classic;html=1;" parent="1" edge="1">
                    <mxGeometry width="50" height="50" relative="1" as="geometry">
                        <mxPoint x="60" y="389.76" as="sourcePoint"/>
                        <mxPoint x="160" y="389.76" as="targetPoint"/>
                    </mxGeometry>
                </mxCell>
                <mxCell id="MIRSQrjufp5qPQAkVAbh-20" value="" style="endArrow=none;dashed=1;html=1;strokeColor=#FF0000;" parent="1" edge="1">
                    <mxGeometry width="50" height="50" relative="1" as="geometry">
                        <mxPoint x="341" y="410" as="sourcePoint"/>
                        <mxPoint x="401" y="410" as="targetPoint"/>
                    </mxGeometry>
                </mxCell>
                <mxCell id="MIRSQrjufp5qPQAkVAbh-29" style="edgeStyle=orthogonalEdgeStyle;rounded=0;orthogonalLoop=1;jettySize=auto;html=1;exitX=1;exitY=0.5;exitDx=0;exitDy=0;entryX=0;entryY=0.5;entryDx=0;entryDy=0;strokeColor=#000000;fillColor=#FF0000;" parent="1" source="MIRSQrjufp5qPQAkVAbh-25" target="MIRSQrjufp5qPQAkVAbh-26" edge="1">
                    <mxGeometry relative="1" as="geometry"/>
                </mxCell>
                <mxCell id="MIRSQrjufp5qPQAkVAbh-25" value="IDLE" style="ellipse;whiteSpace=wrap;html=1;aspect=fixed;rounded=0;fillColor=#FFCCE6;" parent="1" vertex="1">
                    <mxGeometry x="231" y="600" width="50" height="50" as="geometry"/>
                </mxCell>
                <mxCell id="MIRSQrjufp5qPQAkVAbh-30" style="edgeStyle=orthogonalEdgeStyle;rounded=0;orthogonalLoop=1;jettySize=auto;html=1;exitX=1;exitY=0.5;exitDx=0;exitDy=0;entryX=0;entryY=0.5;entryDx=0;entryDy=0;strokeColor=#000000;fillColor=#FF0000;" parent="1" source="MIRSQrjufp5qPQAkVAbh-26" target="MIRSQrjufp5qPQAkVAbh-27" edge="1">
                    <mxGeometry relative="1" as="geometry"/>
                </mxCell>
                <mxCell id="MIRSQrjufp5qPQAkVAbh-36" style="edgeStyle=orthogonalEdgeStyle;curved=1;rounded=0;orthogonalLoop=1;jettySize=auto;html=1;exitX=0.077;exitY=0.433;exitDx=0;exitDy=0;entryX=0.5;entryY=0;entryDx=0;entryDy=0;strokeColor=#66B2FF;fillColor=#FF0000;exitPerimeter=0;" parent="1" source="MIRSQrjufp5qPQAkVAbh-3" target="MIRSQrjufp5qPQAkVAbh-26" edge="1">
                    <mxGeometry relative="1" as="geometry">
                        <Array as="points">
                            <mxPoint x="151" y="560"/>
                            <mxPoint x="376" y="560"/>
                        </Array>
                    </mxGeometry>
                </mxCell>
                <mxCell id="MIRSQrjufp5qPQAkVAbh-42" style="edgeStyle=orthogonalEdgeStyle;curved=1;rounded=0;orthogonalLoop=1;jettySize=auto;html=1;exitX=0;exitY=1;exitDx=0;exitDy=0;entryX=1;entryY=1;entryDx=0;entryDy=0;strokeColor=#000000;fillColor=#FF0000;" parent="1" source="MIRSQrjufp5qPQAkVAbh-26" target="MIRSQrjufp5qPQAkVAbh-25" edge="1">
                    <mxGeometry relative="1" as="geometry">
                        <Array as="points">
                            <mxPoint x="358" y="660"/>
                            <mxPoint x="274" y="660"/>
                        </Array>
                    </mxGeometry>
                </mxCell>
                <mxCell id="MIRSQrjufp5qPQAkVAbh-26" value="START&lt;br&gt;_BIT" style="ellipse;whiteSpace=wrap;html=1;aspect=fixed;rounded=0;fillColor=#FFCCE6;" parent="1" vertex="1">
                    <mxGeometry x="351" y="600" width="50" height="50" as="geometry"/>
                </mxCell>
                <mxCell id="MIRSQrjufp5qPQAkVAbh-31" style="edgeStyle=orthogonalEdgeStyle;rounded=0;orthogonalLoop=1;jettySize=auto;html=1;exitX=1;exitY=0.5;exitDx=0;exitDy=0;entryX=0;entryY=0.5;entryDx=0;entryDy=0;strokeColor=#000000;fillColor=#FF0000;curved=1;" parent="1" source="MIRSQrjufp5qPQAkVAbh-27" target="MIRSQrjufp5qPQAkVAbh-28" edge="1">
                    <mxGeometry relative="1" as="geometry"/>
                </mxCell>
                <mxCell id="MIRSQrjufp5qPQAkVAbh-37" style="edgeStyle=orthogonalEdgeStyle;curved=1;rounded=0;orthogonalLoop=1;jettySize=auto;html=1;exitX=0.129;exitY=0.767;exitDx=0;exitDy=0;entryX=0.5;entryY=0;entryDx=0;entryDy=0;strokeColor=#99FFFF;fillColor=#FF0000;exitPerimeter=0;" parent="1" source="MIRSQrjufp5qPQAkVAbh-3" target="MIRSQrjufp5qPQAkVAbh-27" edge="1">
                    <mxGeometry relative="1" as="geometry">
                        <Array as="points">
                            <mxPoint x="181" y="550"/>
                            <mxPoint x="496" y="550"/>
                        </Array>
                    </mxGeometry>
                </mxCell>
                <mxCell id="MIRSQrjufp5qPQAkVAbh-27" value="DATA&lt;br&gt;_BITS" style="ellipse;whiteSpace=wrap;html=1;aspect=fixed;rounded=0;fillColor=#FFCCE6;" parent="1" vertex="1">
                    <mxGeometry x="471" y="600" width="50" height="50" as="geometry"/>
                </mxCell>
                <mxCell id="MIRSQrjufp5qPQAkVAbh-32" style="edgeStyle=orthogonalEdgeStyle;curved=1;rounded=0;orthogonalLoop=1;jettySize=auto;html=1;exitX=0.5;exitY=0;exitDx=0;exitDy=0;entryX=0.5;entryY=0;entryDx=0;entryDy=0;strokeColor=#000000;fillColor=#FF0000;" parent="1" source="MIRSQrjufp5qPQAkVAbh-28" target="MIRSQrjufp5qPQAkVAbh-25" edge="1">
                    <mxGeometry relative="1" as="geometry">
                        <Array as="points">
                            <mxPoint x="616" y="570"/>
                            <mxPoint x="256" y="570"/>
                        </Array>
                    </mxGeometry>
                </mxCell>
                <mxCell id="MIRSQrjufp5qPQAkVAbh-28" value="STOP&lt;br&gt;_BIT" style="ellipse;whiteSpace=wrap;html=1;aspect=fixed;rounded=0;fillColor=#FFCCE6;" parent="1" vertex="1">
                    <mxGeometry x="591" y="600" width="50" height="50" as="geometry"/>
                </mxCell>
                <mxCell id="MIRSQrjufp5qPQAkVAbh-38" style="edgeStyle=orthogonalEdgeStyle;curved=1;rounded=0;orthogonalLoop=1;jettySize=auto;html=1;entryX=0.5;entryY=0;entryDx=0;entryDy=0;strokeColor=#66B2FF;fillColor=#FF0000;" parent="1" target="MIRSQrjufp5qPQAkVAbh-27" edge="1">
                    <mxGeometry relative="1" as="geometry">
                        <mxPoint x="181" y="530" as="sourcePoint"/>
                        <mxPoint x="496" y="600" as="targetPoint"/>
                        <Array as="points">
                            <mxPoint x="181" y="550"/>
                            <mxPoint x="496" y="550"/>
                        </Array>
                    </mxGeometry>
                </mxCell>
                <mxCell id="MIRSQrjufp5qPQAkVAbh-40" style="edgeStyle=orthogonalEdgeStyle;curved=1;rounded=0;orthogonalLoop=1;jettySize=auto;html=1;exitX=0.819;exitY=0.767;exitDx=0;exitDy=0;entryX=1;entryY=0;entryDx=0;entryDy=0;strokeColor=#66B2FF;fillColor=#FF0000;exitPerimeter=0;" parent="1" source="MIRSQrjufp5qPQAkVAbh-3" target="MIRSQrjufp5qPQAkVAbh-28" edge="1">
                    <mxGeometry relative="1" as="geometry"/>
                </mxCell>
                <mxCell id="MIRSQrjufp5qPQAkVAbh-41" style="edgeStyle=orthogonalEdgeStyle;curved=1;rounded=0;orthogonalLoop=1;jettySize=auto;html=1;exitX=0.026;exitY=0.267;exitDx=0;exitDy=0;entryX=0;entryY=0;entryDx=0;entryDy=0;strokeColor=#66B2FF;fillColor=#FF0000;exitPerimeter=0;" parent="1" source="MIRSQrjufp5qPQAkVAbh-3" target="MIRSQrjufp5qPQAkVAbh-25" edge="1">
                    <mxGeometry relative="1" as="geometry"/>
                </mxCell>
                <mxCell id="MIRSQrjufp5qPQAkVAbh-43" value="reset_n" style="endArrow=classic;html=1;" parent="1" edge="1">
                    <mxGeometry width="50" height="50" relative="1" as="geometry">
                        <mxPoint x="60" y="360" as="sourcePoint"/>
                        <mxPoint x="160" y="360" as="targetPoint"/>
                    </mxGeometry>
                </mxCell>
                <mxCell id="MIRSQrjufp5qPQAkVAbh-44" value="clk" style="endArrow=classic;html=1;" parent="1" edge="1">
                    <mxGeometry width="50" height="50" relative="1" as="geometry">
                        <mxPoint x="400" y="350" as="sourcePoint"/>
                        <mxPoint x="500" y="350" as="targetPoint"/>
                    </mxGeometry>
                </mxCell>
                <mxCell id="MIRSQrjufp5qPQAkVAbh-45" value="reset_n" style="endArrow=classic;html=1;" parent="1" edge="1">
                    <mxGeometry width="50" height="50" relative="1" as="geometry">
                        <mxPoint x="400" y="369.52" as="sourcePoint"/>
                        <mxPoint x="500" y="369.52" as="targetPoint"/>
                    </mxGeometry>
                </mxCell>
                <mxCell id="MIRSQrjufp5qPQAkVAbh-46" value="&lt;h1&gt;&lt;font style=&quot;font-size: 18px&quot;&gt;Rx&lt;/font&gt;&lt;/h1&gt;" style="text;html=1;strokeColor=none;fillColor=none;spacing=5;spacingTop=-20;whiteSpace=wrap;overflow=hidden;rounded=0;" parent="1" vertex="1">
                    <mxGeometry x="85" y="492" width="50" height="40" as="geometry"/>
                </mxCell>
                <mxCell id="MIRSQrjufp5qPQAkVAbh-48" style="edgeStyle=orthogonalEdgeStyle;rounded=0;orthogonalLoop=1;jettySize=auto;html=1;exitX=1;exitY=0.5;exitDx=0;exitDy=0;entryX=0;entryY=0.5;entryDx=0;entryDy=0;strokeColor=#000000;fillColor=#FF0000;" parent="1" source="MIRSQrjufp5qPQAkVAbh-49" target="MIRSQrjufp5qPQAkVAbh-53" edge="1">
                    <mxGeometry relative="1" as="geometry"/>
                </mxCell>
                <mxCell id="MIRSQrjufp5qPQAkVAbh-65" style="edgeStyle=orthogonalEdgeStyle;curved=1;rounded=0;orthogonalLoop=1;jettySize=auto;html=1;exitX=0.027;exitY=0.317;exitDx=0;exitDy=0;entryX=0;entryY=1;entryDx=0;entryDy=0;strokeColor=#66FF66;fillColor=#FF0000;exitPerimeter=0;" parent="1" source="MIRSQrjufp5qPQAkVAbh-64" target="MIRSQrjufp5qPQAkVAbh-49" edge="1">
                    <mxGeometry relative="1" as="geometry"/>
                </mxCell>
                <mxCell id="MIRSQrjufp5qPQAkVAbh-49" value="IDLE" style="ellipse;whiteSpace=wrap;html=1;aspect=fixed;fillColor=#FFF2CC;" parent="1" vertex="1">
                    <mxGeometry x="159.12" y="120" width="50" height="50" as="geometry"/>
                </mxCell>
                <mxCell id="MIRSQrjufp5qPQAkVAbh-50" style="edgeStyle=orthogonalEdgeStyle;rounded=0;orthogonalLoop=1;jettySize=auto;html=1;exitX=1;exitY=0.5;exitDx=0;exitDy=0;entryX=0;entryY=0.5;entryDx=0;entryDy=0;strokeColor=#000000;fillColor=#FF0000;" parent="1" source="MIRSQrjufp5qPQAkVAbh-53" target="MIRSQrjufp5qPQAkVAbh-56" edge="1">
                    <mxGeometry relative="1" as="geometry"/>
                </mxCell>
                <mxCell id="MIRSQrjufp5qPQAkVAbh-66" style="edgeStyle=orthogonalEdgeStyle;curved=1;rounded=0;orthogonalLoop=1;jettySize=auto;html=1;exitX=0.079;exitY=0.483;exitDx=0;exitDy=0;entryX=0.5;entryY=1;entryDx=0;entryDy=0;strokeColor=#66FF66;fillColor=#FF0000;exitPerimeter=0;" parent="1" source="MIRSQrjufp5qPQAkVAbh-64" target="MIRSQrjufp5qPQAkVAbh-53" edge="1">
                    <mxGeometry relative="1" as="geometry"/>
                </mxCell>
                <mxCell id="MIRSQrjufp5qPQAkVAbh-53" value="START&lt;br&gt;_BIT" style="ellipse;whiteSpace=wrap;html=1;aspect=fixed;fillColor=#FFF2CC;" parent="1" vertex="1">
                    <mxGeometry x="279.12" y="120" width="50" height="50" as="geometry"/>
                </mxCell>
                <mxCell id="MIRSQrjufp5qPQAkVAbh-54" style="edgeStyle=orthogonalEdgeStyle;rounded=0;orthogonalLoop=1;jettySize=auto;html=1;exitX=1;exitY=0.5;exitDx=0;exitDy=0;entryX=0;entryY=0.5;entryDx=0;entryDy=0;strokeColor=#000000;fillColor=#FF0000;curved=1;" parent="1" source="MIRSQrjufp5qPQAkVAbh-56" target="MIRSQrjufp5qPQAkVAbh-58" edge="1">
                    <mxGeometry relative="1" as="geometry"/>
                </mxCell>
                <mxCell id="MIRSQrjufp5qPQAkVAbh-67" style="edgeStyle=orthogonalEdgeStyle;curved=1;rounded=0;orthogonalLoop=1;jettySize=auto;html=1;exitX=0.165;exitY=0.483;exitDx=0;exitDy=0;entryX=0.5;entryY=1;entryDx=0;entryDy=0;strokeColor=#66FF66;fillColor=#FF0000;exitPerimeter=0;" parent="1" source="MIRSQrjufp5qPQAkVAbh-64" target="MIRSQrjufp5qPQAkVAbh-56" edge="1">
                    <mxGeometry relative="1" as="geometry">
                        <Array as="points">
                            <mxPoint x="199.12" y="200"/>
                            <mxPoint x="424.12" y="200"/>
                        </Array>
                    </mxGeometry>
                </mxCell>
                <mxCell id="MIRSQrjufp5qPQAkVAbh-56" value="DATA&lt;br&gt;_BITS" style="ellipse;whiteSpace=wrap;html=1;aspect=fixed;fillColor=#FFF2CC;" parent="1" vertex="1">
                    <mxGeometry x="399.12" y="120" width="50" height="50" as="geometry"/>
                </mxCell>
                <mxCell id="MIRSQrjufp5qPQAkVAbh-57" style="edgeStyle=orthogonalEdgeStyle;curved=1;rounded=0;orthogonalLoop=1;jettySize=auto;html=1;exitX=0.5;exitY=0;exitDx=0;exitDy=0;entryX=0.5;entryY=0;entryDx=0;entryDy=0;strokeColor=#000000;fillColor=#FF0000;" parent="1" source="MIRSQrjufp5qPQAkVAbh-58" target="MIRSQrjufp5qPQAkVAbh-49" edge="1">
                    <mxGeometry relative="1" as="geometry">
                        <Array as="points">
                            <mxPoint x="544.12" y="90"/>
                            <mxPoint x="184.12" y="90"/>
                        </Array>
                    </mxGeometry>
                </mxCell>
                <mxCell id="MIRSQrjufp5qPQAkVAbh-68" style="edgeStyle=orthogonalEdgeStyle;curved=1;rounded=0;orthogonalLoop=1;jettySize=auto;html=1;exitX=0.855;exitY=0.483;exitDx=0;exitDy=0;entryX=0.5;entryY=1;entryDx=0;entryDy=0;strokeColor=#66FF66;fillColor=#FF0000;exitPerimeter=0;" parent="1" source="MIRSQrjufp5qPQAkVAbh-64" target="MIRSQrjufp5qPQAkVAbh-58" edge="1">
                    <mxGeometry relative="1" as="geometry"/>
                </mxCell>
                <mxCell id="MIRSQrjufp5qPQAkVAbh-58" value="STOP&lt;br&gt;_BIT" style="ellipse;whiteSpace=wrap;html=1;aspect=fixed;fillColor=#FFF2CC;" parent="1" vertex="1">
                    <mxGeometry x="519.12" y="120" width="50" height="50" as="geometry"/>
                </mxCell>
                <mxCell id="MIRSQrjufp5qPQAkVAbh-62" value="&lt;h1&gt;&lt;font style=&quot;font-size: 18px&quot;&gt;Tx&lt;/font&gt;&lt;/h1&gt;" style="text;html=1;strokeColor=none;fillColor=none;spacing=5;spacingTop=-20;whiteSpace=wrap;overflow=hidden;rounded=0;" parent="1" vertex="1">
                    <mxGeometry x="85.12" y="218" width="50" height="40" as="geometry"/>
                </mxCell>
                <mxCell id="MIRSQrjufp5qPQAkVAbh-64" value="" style="shape=image;verticalLabelPosition=bottom;labelBackgroundColor=#ffffff;verticalAlign=top;aspect=fixed;imageAspect=0;image=data:image/png,iVBORw0KGgoAAAANSUhEUgAACgAAAAEJCAQAAADyVbZhAAAABGdBTUEAALGPC/xhBQAAACBjSFJNAAB6JgAAgIQAAPoAAACA6AAAdTAAAOpgAAA6mAAAF3CculE8AAAAAmJLR0QA/4ePzL8AAAAHdElNRQfhCAYGJwo6SlFTAAA3EUlEQVR42u3deZxkZX3v8W+vs/fM0LPv+0bE68IOIhpRUYPmJu5eISCiMVxiTHKVJC9R3BVFIUiiUZOgmEQQBoaBYdhF2dfp2felZ9+Xnumeee4f9ZyaU1WnqouZ6q7fU+fz7j96+pzqqurfd56z1TnnJwEAAAAAAAAAAAAAAAAAAAAAAAAAAAAAAAAAAAAAAAAAAAAAAAAAAAAAAAAAAAAAAAAAAAAAAAAAAAAAAAAAAAAAAAAAAAAAAAAAAAAAAAAAAAAAAAAAAAAAAAAAAAAAAAAAAAAAAAAAAAAAAAAAAAAAAAAAAAAAAAAAAAAAAAAAAAAAAAAAAAAAAAAAAAAAAAAAAAAAAAAAAAAAAAAAAAAAAAAAAAAAAAAAAAAAAAAAAAAAAAAAAAAAAAAAAAAAAAAAAAAAAAAAAAAAAAAAAAAAAAAAAAAAAAAAAAAAAAAAAAAAAAAAAAAAAAAAAAAAAAAAAAAAAAAAAAAAAAAAAAAAAAAAAAAAAAAAAAAAAAAAAAAAAAAAAAAAAAAAAAAAAAAAAAAAAAAAAAAAAAAAAAAAAAAAAAAAAAAAAAAAAAAAAAAAAAAAAAAAAAAAAAAAAAAAAAAAAAAAAAAAAAAAAAAAAAAAAAAAAAAAAAAAAAAAAAAAAAAAAAAAAAAAAAAAAAAAAAAAAAAAAAAAAAAAAAAAAAAAAAAAAAAAAAAAAAAAAAAAAAAAAAAAAAAAAAAAAAAAAAAAAAAAAAAAAAAAAAAAAAAAAAAAAAAAAAAAAAAAAAAAAAAAAAAAAAAAAAAAAAAAAAAAAAAAAAAAAAAAAAAAAAAAAAAAAAAAAAAAAAAAAAAAAAAAAAAAAAAAAAAAAAAAAAAAAAAAAAAAAAAAAKRUncH3NElvz/n55zoqaazelTP1NnVIGqH35Uz9L+2TNFR/mjP1Tu2UNFAfypl6j7ZI6qOP50y9Xxsk1euynKkdGlCxv2+z7uY/Xk2OpStMjidIW/XbkvM/RXJGbdOdJedfoXqKZNJ23UFyNZnc5WqgSCbt0G9Kzv8LNVIkk3bqf0iuJpO7TE0UyaRd+u+S8y9VM0UK1AH1zfk5cxRpnN6ZMzVzFGmk3psz9dfaL+kUfSBn6h3aJWmQPpgzda62Suqrj+VMna+Nkhp0ac7UhVpjrUwWd3v/LG9YDtBBSe/U/Jypo7RF0jn6Xc7UaVop6TS9lDP1DXpR0mStypn6Fj0uaZi25Ux9j+ZJ6qOOnKm/19kV+/vWahLjswaN1zqKYNRGjSsxd6w2UCKj2jWmxNzR2kSJjNqiUSXmjlI7JTJqq0aWmDtCWyiRUTs0rMTcVm2nRGYPRpxSYu5Q7aRERu3W0BJzh2gXJTJqr4bIFZ3bot2cFhCsJ3VOzs/91CHp3ZqXty2zTdJ5ejxn6hStlvS/9ELO1NfrZUlTtSJn6nn6XcI20bs1X1I/HcyZ+sFuDjhXAZ/B974JGkgRatBsSmDWWA0muSCNLrl5TXJ2jVQryQVpRMnDSCRnV6tGlJg7hwKZNbTkxyUkZ9eQkh9RsrS0q0VjSybH4T/UOA4A9r46zaQINYhVvWWzSI7kQHIgOZIDyYHkSI7kkF4W7yvxRN4V2ZmLcZ/Lm5o5sbotb2rmsqLVeVMzl/5uzpv6qiRpT97UZyRJnXlTD1XkUOlbda0kaY6e479ezYlWGB/hQhtDztc/+TH3VLfJfUxbKZgZ5+rLPrnfd5vcx7ks0ZBzdJ1P7nfdJvcJbaZgZpytr/jknug2uU9y+b0hZ+mrPrnHuk3uUm2kYGacoa/55B7pNrnLuFmJIafr6z65h7pN7nJuEGTIm/RNn9yD3SZ3hdZSsOAcU7+cn49Ikp7NO66zR5K0KG9qZot0Vd7U1ZKk9rypbZKk3XlTM8d3DidORYoXO05Ozq82UFsek5PTAc6qNeX1fsx9u8RjHpGT0yFubW/K63xy3y3xmIfk5NTBDdJNOdUnd0OJxyyUk9NhkjNljk/u+yUes0BOTke4tb0ps3xyN5Z4zP0+OW5tb8kMn9yPSjzmPjk5daoP5TJkmk/u5hKPuVdOTl15LQlQXVN8creUeMxcOTkdVX/KBeDkDdAxOblu+loiTNvk5PQ8hTClr7rk5DS3xGO2yMnpRYplSh91ysnp3hKPaZeT08sUy5Rmn9x9JR6zSU5Or1AsU5p0RE4ur+Farg1yclpEsYwld1hOTg+UeMw6OTktplimNKpDTq7EuUjSGjk5LaVYpjTokJxcifP/pFVyclpOsUyp1wE5uRLn3Eor5OS0kmKhlgcCes8Bfxo4dxeoPcP8jdPbKIUpHb71evExF904neRsOexPui+e3BB/43SSs+WI32wuldxokjOos9vkWvwt70nOWnIrukluoMaRnEFd/vBQ8eT6azzJGXRUy7pNbiLJGXSs2+T6ahLJodZxALB3ZT59ncqp/DVnTk7CsDbmJhc9lX82yZlObqIGMOaCTK54v3vGnO3kxmtQ0eTqSM5wcuOK9rsnOdvJjSna7362308jOZvJjSra734myZlOrni/+5n+hkAkhxrGAcBqLHYaNY1S1Bh2aW2PuXpNJ7lAk5tBckEmV7zfPcmRHHoiOZEcyYHkUFZys0gO6cUBwOosduZQihrDCiPUMUdyJAeSA8mRHEgOJEdyJIeaxwHA3tWWt3hBrcisSKI78SCcMZdJrovkAk3uKLfYDja5ZZQqyOSOkVywydFKIszknJZQKpJDLyYnkkMt4wCgrcUOQpVJdIU6KYUxi+VKjrnM9JU6TKmCTG6VOiiVMUvKSm41yRlM7lgZya3RQUplzNKyklunA5TKmGU6WkZy67WfUplLrquM5DZqL6UyZrnfUyud3CbtplSoXRwA7F27tKXkYgdhatFYSfSMsmivNpUYcwPpsGfWfm0okVx/TSA5ow5ofcnkMr0RubzGnoNaVyI5eiPadahkv/s+mkxyRnWU7HffrKkkZ9QRrSqRXBPJmdVZMrnoLv0kh5rGAcDeltnpiXoMoTbMosOe+TE3Q00kF2Ry09ScmBwd9uzKbDon97uPeiOyeW13zBVLjt6I1pObon4J82aokeSMJzdJ/RPmTSc588lNTOx3H223kJzdLZTkfvfR2o/kUNM4AFidFUb0STpqA7eMtT/mmjSF5AJNbirJBZlccr97krOfXENi13SSs59cPckFm9wMkgsyuTqSCza5mSSHtOIAYHUWO/QBri2sMEIdcyRHciA5kFwtJzeH5EgOJAeSAzI4ANjbaANSi+iwF+qYi/q0kVyoydGnzfLmNWOu9sYcvRHDS45DtySH6iTHrS5C20IhOaQCBwAtLXYQqkyaa+mNGOiqfh0d9gLdvN6gfZQpyOQ2ag9lCjI5eiOGmtxm7aJMBpXqmp6ZtlU7KFOQye3Qdspkcq/gWDfJ7dRWygSgknbKyekPFKJm9FWXnJzuoRRGbZOT07MF05vVKSeneZTIqK1ycnq+YHqTjsjJaT4lMmqLnJxeTEjusJycHqBERrXLyemlgumN6pCT0wJKZNRGOTm9UjC9QYfk5LSQEhm1Xk5Oiwqm1+ugnJwepkRGrZWTSzg/s1775eT0KCUyao1c4nUIddonJ6fHKRFqG2cA9r7MAme27z6K8M2gN6JxS/yYqy9Ijg57tmWSmVWQ3HTf05nkrMqcj1TY7z7qjcjlNbbHXGFy9EYMI7lorXbcFPUluQCSi9Zqx032PZ1JznZy0wq6pk/UAJILYAulsN/9BN/TmeRQ4zgAWK0VRovGUIoawV1awhhz/TWe5IJMrp8mklyQyRX2uye5MJLro8kkF2RyzQX97kkujOQK+92TXBjJNZJcoMkV9rsnOaQEBwCrtdihD3DtYIUR6pij2xfJoWeTm83SkjEHkgPJkRzMb6GQHFKCA4C9jz7AtYbeiKGOudkkF3hybKSFtmNEcqGPOS7eJjmQHEiulrdQSA41jgOA1VvscACwVmSSbKfDXnBjLvPzFjrsBZrcNjrsBbdjlNnc3qFtlCjIMUdvxFCT263NlCjI5PaqnRIFmdx+baRERi0qmdwBradEACqrXgfk5PQIpagJUW9EOuzZFfX1eiJnagMd9gJIbo+cnJ5MXIbSYc+y3Qn97qPeiI9RHsN2ysnpqTKWobBlu5ycniljGQpbtsnJ6bkylqGwZaucnF5IXIY+TXkM25zY7z6zDH2W8qDWcQZg7zumZZK4B2CtmOK7SHHCuF3OX+R7as7UqMMeydlPLvdT2knqT3LmLfbJxfvdR70RSc6yJX4LJZ5c1BuR5OwnlzvmxqmF5AJZWub2ux+rwSRnXptPLt41fbSGklwgyc3ISW6kWkkO6cABwOqt6odrGKWoAdzTKpwxN0QjSS7Q5EaTXJDJ5fa7J7lwkhuosSQXZHIDcvrdk1w4yfXXBJILMrm+mkhygSY3meSQRhwArN5ih7sA1gZ6RoU05uaQHMmhaus5Nq8ZcyA5kBzJwd4WCskhNTgAaGWxg1CxSxvqmCM5kkPv7hiRHGMOJAeSIzmwhQJUDQcAq6FYf0SEiA57oY65qMPeJsoTaHJ02Astucym9n5toDxBjrkDWkd5gkzuoNZSniCT69AayhNkcoe1mvIEmdwRraQ8ACqvSUfk5DSfUgSvTnvl5PQ7SmFa1Kv5wVhymQ57v6c4pjXokJycHopNS+pSCmuS+t3TGzGk5OJdtumNGMb2SKZX8+OxaZn+ss9TnOC2JLfIyelFimNc4ZZku5ycXqY0xhVuSW6Uk9OrlAZp2NBD7+v0ny7QBzh84zVIEj2jrOvS8rwxR4e9MBwt6Jo+hg57QYj63R//fJ3eiKEkt1RSvGs6vRHD4Hxyx5eWUbM5krOe3JK85Fo1guSCkN81fYhGkVwQMkvLWdnkopZlJIcU4ABgdWTuLzDOHzxCuLhjRFhjLjoEQXKhJRcdgiC50JIbke13T3JhJddKcoEmd4o/eERyoSUXHTwiudCSa9Fo/zONJELR5pMbS3JIHw4AVnOFUadZlCJwrDDCGnPKjjmSIzn0bnLs0oaW3BzGHMmB5EByNZzcbJJD+nAA0MZiB6FilzbUMUdyJIfe3TEiOcYcSA4kR3JgCwWoIg4AVgd9gGtF1GGP3oihjbnM90N02As0uQ467AW3Y5TZzKY3Yqhjjt6IoSbXqRWUJsjkukgu0OSiuxcjnC2UzPdjJAegp/TXUTk5/ZZSBC7TYe85CmFeX3XJyeke//NWOTm9QGHMa1annJzm+Z83y8npJQpjXn6/e3ojhpbc/f5neiOGIup3v8D/vF5OjpvaByDqd7/Q/7xWLtsaBJbV66CcnB72P6+Wk+MgUhDJ5fa7XyknxyF3pOW/P6ohOmOMPsBhG0GHvWBEZ4xlxlyrhpNcII5oVSy5oRpJcoHo9MllPlePbm/P5TUhJLciNubojRiOrrzkxpJcII5qeSy5gRpPcoGIzhjLJNdfE0guyOT6aiLJIT04AFgtmZ2gKepDKQLGHSPCG3MT1V/c7DfE5CZoIMkFJrMpPV6DSC7IMTdWLSQXZHJjNFjSLNWRXGDJjdJQkgsyuRFqlTTL71eTXDhbKMM0TNIsNZAc0oMDgNVdYTRoBqUIGDtG4Y25es0kuSCTqyO5oJObnbPJjTCSm8WYCzK5zHgjOZIDyYHkgDwcALSw2EGoOAMw1DFHciSH3ktuDskx5kByIDmSA1soQLVxALBa6ANcC6IOe/RGDG3M0Rsx7OS6/P2SEM6OUebz9aMkF+iYozdiuMktpSxBJudILtjkaN8S2hZKtDdOckiFRkpgYIWBfM5/r6vwYystk95ydVK1ACyRU13Oqn6ljpBckMmt0mGSC2Lz+pjq85LrILkALC1IbrUOkVwQyR1VQ05ya3WQ5AKwTF1qzElunfaTXACWFyS3QftILojkOtWUk9xG7WHfm/8vacABwGrZrc0aJfoAh4zeiMdN10d1scarVTu0XvP0S4Pn+ezVRo2TNEcDNY7kJA3TrOzXJH8DZIsr8/1arwmS5mgAHfYkSc16q96p0zVdp+iwduoVPaH/0CZz7/Og1muipNnZ3ojpvrxmnM7SG3WqJmuMBqlOe7Rez+lO3a+j5pJbq8mS5tAbMdFQLdJokztAHVqjqT65ySQX21FNYim7w1qt6ZLmqFlTSC5nW/u9er9O1Si16IDW61U9qfmGtjGPaKW/Q3GTppJcyRFna9x1aqVmSZqtJk0jOQC94SE5OXVU6SCs8182X+W1/F7hY3vnb5PO9K/zFTMr3epUrVnXqzP7+5mvTl2vZnNj7gE5OR3R2f5dXp/y5FzCl03z/f+qKLmvpzi5N+lW7UlIrlM/1ABzyc3z7+0s/y6/keox54p8LdGF5pK7V05OXTrDv8dvpXxpmetnhpeZc+XkdDSb3HdYzxX9suUun9zp/t19jzGnel2lHeazu1NOTsf0Zv/evs96rsTXIUPJ/SYvuRtrcE+81va9URHcA7B6MmdC9NEkShEobhmbWYb8WtcWHMZu1LW63dzyJZNUk95CckEuLRtJTtKzulItCdMb9Vd6Uq1Gk7uA5EqYqQX6qMnkGvRWkitwkS41v7SsJ7lA13P12Y8DSK6v5uoWnRJIcnUkV5Z5JAdUf+cd1V3scBHwyarzX70v5AOAlavat/R+SdJBXasp6qdp+gf/+d4H9E2jY+5MkpMkbdej+md9ThdqRCBLyzNIzturn+gSTVJfteoi3eGnnqY7jF2QSHJx63W7/k4Xa7aGqEkDNEfX+Au3G/RTzWBpGcTWwUD9i2TkXpaMudf+nPEvtlAsJ9eke3SxJMnpV3qPxqpZgzRLf65btYrkzCZXl/hVr/V+/u0kx743kF5v8yfL/n1VXr12LgGu1t92/EKb/kb+R1WjajP9xb+HsqtPSTpLHf7CP1u7tG/xf+Nin9yAFCdXrVFzYs7z767NX64xMMXJOe3RlzQ4b+rlOuaf7UOmkjs3L7kWxlyeVr88cvqxqeTOzknOFfyPS29yN8nJ6Ytml5nRzUkW+e9DU55cOBemnZ6XXGvKk/uK/83d2TPIrXpTXnLDWFoWON8/2z71M5TcG/27etV/H16De+K1tu8NBG60Hyo/D3CY9/SrhLEQWiEnp5WpXnTf5n/ri3nTv+Sn32ZqzA3372qvnJxWs9INZtXd6t9d5t53a1Od3B2++VC+W/yz3W0quSE5ya1jzCV4r3+2VYaT20By2d3YY3J6SY1ml5kt/sOATHKbUp9cOLulA31yu+XktDnlyZ3mP14+mr31h10DcpLbytIywc0m9wr662gsue01uSdea/veQPB2ysnpqQCHeU+/SggLob7qkpPT3BQvuvtpv5yc9hecHTJYB/ycfqbG3DZ/HpKT072sdANadW+JJXcfySV4vX+2DcaS2xxL7n6SS9Din83aRaWbYsk9QHJ+vb/UN9iwvMzcEEvuwdQnF9Ju6bpYcg+lPLl/N3lmdDFr/MFKJ6dHWFoWaPDbcE7vM5bc6lhyj9Xknnht7XujQrgHYDUtkSTNqfg19E36oG7TIu1Wlw5pm17Q7fq8ZuYM0vwBmz9sx+mvdadWa786tFnP6Ca9rdsBP1Cf0WPaoKPqKvNVyjFYf6OntE0HtFQ367RuFjmVetXuzVSDJKt3jOidqr3LX0R7v/bkzdnjd/UH6J2m6hLd8DftyYWH5Lqz1H8fbqwubbHk2kguQZf/foAxZz656zRD0k16mqUl6zmS68HkWvXn/re+GVBy9SRXxNv9naZ3GfoYML6FUvnkKrEnLtXpPfqxXtE2HdE2vaxb9O5u98W7S5plNFBlP/XDY1xFn/WNWlqk9Xry4Cx8xHm6N3s/qfjXM7FFV+Ei4M3+U+fMZyndv0opxx95htpzfrdTX+52IXSir/rafNg/72Vm/j/1ftW+7h91TcK8v/bzvmZqzN0a+9suT3Fy6mZlbs8tsb/tUySXYJT//a3Gkrs59rddSXIJovsBzzWW3E2xv+0qkpP0ZnXJaZ2/B6ndZeYPY3/bZ1OfXEg7oj+I/W2fS3VyH/OP+10g+3M3xP62q1laFvg3/9s/NZfcd2N/2zWG9sQza5znE+Y/qzecVNJh73sDNeALfnhcVMHnnOzv+3Iyi53i8/cU9CyO5kz2FzQff6ZKHACclPesma/vmFgIXeef9yxzq/req9pd/lHvSJh3kZ/3W1Nj7prY33ZOipMLbyfp6tjfdh7JJfjf/vcfN5bc52J/2/kkV2CgnvWX/Vm709Vfxv62C0hOTXpJTk7vNb/M/Ezsb7sw9clFj/0XLdYB7dda3a2/MtOOKNenY3/b21Od3I/8464PZH/uU7G/7R0sLfM0a5e52kQuj/1tlbpiqRJ74tIlOljkEQeya6ETSTrsfW+gBlzsh8f/reBz/iLbZ+lanaaBatAATdPF+poWlb2773RMC/RpnaahatQQnaHrtCPbEbA+8Xnmy+kVfUSjcuaf7MGI+XJ6SG9Ti1r0Nj2cnf6ukq/RO4ud//avMsTcqr73qhZ1r0zq9Tsz23HXkotiq6WhKU4uvAOAfxxLrpXkEiws0pCn2t4eS24YycX00RRdoeX+uf7G3Ji7MJbccJLTP8nJ6b8CWGZeEEtuZOqTS94t3alPG0zu/Ng7HJ3q5P7gf+sSScP0Bf1BW9WhTXpcX9UUg8mdG0tuLEvLPJf4Z9rib51kyTmx5MYb2hOf4++k7rRGl2usmjVOl2tt9plnnnDSYe97AzVgcg/c4naTf873nMTu/jzNKpg2Wkv8b/xZkU2reWqu2EGF48/6y9gdEuv1az91WWxqtRZCmabxGw39f+r9qrWXOJR2ip+3ydSYG5/9O9tTnZwqNlZ7y9jsO9xCcgn+zD/XfkMH2aJ1hzN4cXJ1k8s/GPG8wfMijl9U3vu9ES0md6oOy2mXRgWwzByRfW+7SK7EuSk3mkuuNXa9TbqTW+1/61Rd4pu3Hf/q0k3qYyy5obHk6lI/5vL9yj/TTQaXlkOyf+e+iiVXiT3xx/28p3LOVh6i5/z0R0446bD3vYEaUO97qD5awec84gdg/4rv7r/D/8a/Jz7P9sSzck72AOBmDcqZPlhbC04jr85CqFEdcnJaYHAjrfeqts//Tt+Eef38vL2mxlxd9sT8halOrnJjtffs9u/wYZIrMCl7jvZ1BpOLLiZ5lOQSDkkc1S8S7q5rQ/S/6rHUJ9egpwruP2p5mRkdMnmCMacl+o7+VLM0SA0aqnP0rdjleZ8xl1xUiydTnly0vr8i8Y7kTk8kbndW02b/zv7AmMvT3+/rWrp9S1x0KkPlWjud/J74WdmPdCfkzZmqQ37eGSeYdMj73qjgIShUzzEtkySdWsHnjM63+kjF3220IXlG4tyfaUcPVOhn2pfz8x793P/rvVXObqr//NFit6/eq1r/7Mqu0OG8x1jZHFrr/5Xu5EK0huSKaNHdOkWStMhY0x2SK2cr7P9oieZpmsHqrCY57xqdIekx/SSQpWWU3BLGnGbpb3WHlmifjmqXntTf63V6yc/7ugYbq84qkpMk32hH+qHqtFCXaKSaNVKX6CE//VxzZ5ORXDF/ogGSpPVGW7qsrHhyJ78n/gH//T+1ruDd/jLvMZVPmn2RFOAAYHVlNqtbK3jRVnR/mn/VXH38JO4hMliX6ja9rG067I/pH/Rzku8oc1+P1KewXfx8//3MKic32/COUe9V7ZD/3pwwr0/eY6yILmbbmOrkQrQ9b9OK5DL66i69TpJ0UB9PPBhvJbl2kvPqVKc6DdB0fdKf6fNuPWvw7AiSy5imr0o6rCuDObuB5EpZp3f7j6yH6FKjyW1OeXLRlmM/fUV/rLu1VZ3aqrv1dn3Vz7lMf2QyuS2MuTwfzu6fWj1fOqNyNyk5+T3xaGvgtwnz7vDfz++xpNkXAXrYP/iDa5Xr/jdIT+ecJr9Yt+hPXvPd+a7Onn5f+HUs8XmSDwue7CXAhc86quAObtU5Dfmb/jWuMvS/qferFt49AKX7DN5y38L/d/sn79/r3+HfkVxMc7YuR/V+o8nN9e/w/5Fcos9n75E4wlhyd/t39qVUJ1enR+Tk9I8BLTPv9O/tHxlzRXzRP989xpL7jX9fX055ctFd1B5ImLfAz/uuqeSixoBfZczlGOxvmOT0ZqNbKD/x769yV86d/J74xhKtgKI7Yq8/waRD3vdGxXAGYHW1+e+zK/aM+3S+/jH2OcYsXaW7tEHXvIasv6cbS1wWkXwj0d09Up9dRacMqXJyZ/nvLQb/V/Ve1aLbVCedwTos7zFW9MkeOElzciEiuUKNul0X+3//beJnxZaS60NyiW7QzyRJw811Am5mzEm6ShdIatO3WFrW0Hpurv9+GsmZTC7acvxhwrxo2oUkF8CY+1NfmRV61ujSssN/r9z7O/k98VP8950J86IbbrX2WNLsi6QABwCrK7qAdHYFn/OwrtcYvVX/pAXZxdpwfV+/KTPtC/R5/6/HdZlep1PUR3Wq6+a3D6csuejw1rhU//9d5r9PTJg3Me8x1pIby+In0DE3hlJ4DbotexeYH+kG88mNJrIi/tl/fx/JGfQtSU5Xmry8nuRO1Oq8SllLblTK81nqvye11IimTTCZ3EgGV47oAuBfm32HmT3wI9llgoU9cQA1rcnfYe/+Hnr+fvqT7CWPuf3Oip+q+6tst9/cc/0GJ/5O6VN+a/US4Lps/1uLXYB7r2rf8L9zTcK8a/y8r5sacba7AHMJcCmWuwBXI7l6/Wf2Gf7b9Eal5S7ANtYxUc90a3dMtdwFuPeSc2V+WWK5C7CNMTfAP98BY2POchfg3kzuq/63GhP3nDLzbB2St9wFuHpjbrg6/bP8kazKXG7+co89/4nsiXMJMHoYR6Krq9N3H5rTQ89/SHfr3fq2/+nSsn4nuvXo1/KGcTV6FBaeGRlVam1Vc5uQ7VA22+D/qt6r2tP+e9KtaKNpz5iqzbjsRdtzUp1ceMZmb0tAcpl197/pY/7fC/XxvHuzWjI6e4/Q2SRXRHTRmK0z6UdlL0NizIVlRPZspFNJrohJ/vtWU7Vp1XCSkyQ95b8PSZgXTdtlqDZDswdNZhe5UVI6x9yf+0O4i/Sq0aXlEH+QredaOp7Invga//31CfNen/eYyifN2jUFOABYbYv9zm1P3kvuxoSN+Gh3sS5h0zF50fLOE3jl4q9SnsLXfFfexkFPvOprWTiOLXG3xGrpvard73tDv7Pg/+9g/5oHeuzs1pNNblRi65K0JBee2bElVGvqk6vTrfqk//cz+oDpWzAcX+8MN3e5nZUx90b/faPRMXf8sATJhbW0HGLwgkQbyUWX279idGnZYvDy7d5MboG/C+DZCfOiaauMJjeGMZcVXQB8u/ml5eIefp3Xticenbv9/oRn+kDeY04+adauQK+LTnM/owdfY1DCpQ67/LQhBY+OLpGcnfcc60/gEuDir1Ja9KybNShn+uDs5REXlXgHJ/qq5ft87LIfO03Rq1G16ILxL+ZN/5Kf/ktj4+2aWHLnpDq5Yu/BqqtjyZ2X+uRuzj7bq9mztKz6XCy58xlzie7xz/cDU8n9ZSy5C0guoGXmZ2LJXUhyCUZkX/OzppL7dCy5t6c8uZ8Uvc3OgwY7JX8qltw7GHPeOB3zzzFNVl3u3+GHevh1Xtue+Jl+zv6CO11O1oGE4wavJelw972BGvJRP2A+WaHnW5jtT1u46/xibNqLftrbCh79lJ9za2xao/6nyJ1uSm8CF3+V8hZCTrfFPkuo0+1+6orY1MJ3cKKvWr5/jb3Dy8yt6nuzarP9/T0O5ayKzlKHnJw6NcvYeLs1VqXLU51cODuzGbfEqvSplCd3Q/a5lgdwk/+bY1W6kjFXoFk3+mfrSrzcp3puilXpKpILaJn5w1iVPktyBcboGf9sW7K3c7HhB7EqfS7lyU3QITk5XZc3/brsHVPHG0ruhliVrmbMeX/jn8Fq/19J+q5/j6+r4HOe/J649Fj2npLxg3GDs8uuh0846XD3vYEa8gY/YL5ZwcX9C/o7na1hatJIna+f6qh/jc8nbNq/pLeqJWfB8LfZYf0LvUEDdIou0TNymnsCBwCLv0p5C6H5clqoCzVIg3ShHs5Of0/Jd3Cir1q+J2KLyW+bW9X3btW+l/1U64uarD6aomt10E/7nrnx9lgsue+mPLlQdmYzHokld0Oqk/ta9pnWJfbftuahWHLfT3VyK/TPukLnapIGqlFNGqZzdK1WGlyXRDsxx5O7kaVlQMvMBbHkfpTy5JbrZl2qMzRa/VSvwTpTX8u2JXL6iLHk7o8ld3Pqx9wXs8323qdhatQwvS/2f/tLppK7L5bcLSwtvehg1RcMb6Hc6z9+61vhup/cnrg0J3um32pdprFq1hj9hdb4afs084STDnffG6gh/f1C4a4KL+4Lvx7L6ab1R9nOTPld7AZoecKcTRp9AgcAi79KeX/F5Owpxa7o7n/hs57oq5Zvu5ycP7V9rrlVfe9WrUF3F/kfd5cazI23bbHk7k15ct13t7RkSyy5+1KdXPfdSG1dbLM5ltz9JFf068fmNpg3xZJ7IPVLy5AOAG6IJfdgypMrPuKOGTwssS6W3EOMuZxrNnK//tVYcpkDM5n9uUdITpI0NTvSxsuuVXJyWtYjdT/xPXFJuiR7MkX+1wG99ySSDnffG6gpq/ylXJVxvuZl77kQ39D5ifrnPfJyf5lm4UCdpiV505dqZpHN3e6GePFXKW/D+ky/++iyF0ldX8ZG+Im9arlGZj+ByZwSbW1V39tV66NvqCvv97r0DfUxN9aG+3e313+qlvbkwjkA2OrfUeYOpWtTnVxYBwCH5CS3juQSv5bpEnNLy9zkNqR+aRnOAcAWvw24x394m+7kio25xQYvVBvok9vt78PFmKvX1X5LO/61S58xltyAnOS2kpwk6R/8bzxheA+80ifhVG5PXJJO1wsJy67nsm3DTizpUPe9gRpT+dOPx+sLukfr1aEOtesRXZ/Q0luSpujLWqgN2p9dUB1fJF6jJ7RTh7VGC/QJfyjnRA4AlnqV8jasB+sLelrbdVDLdUvCPZKS38GJvGq53prdgMx84tfP3Kq+96s2Q9fpabXriNr1tK7TDJNj7S15yQ1IeXLhHAA8z7+jNr8ZNTDFyYV1APDcvORaUpzceH1Y39Y9elU7dFhd2q01ul/fNNTUJu7snOScmX73drYOrO7gRLePX+S/D011chP1Cf1AD2q59qpLh9SuP+gHeofJC9ROz0uulTEnaaSu1kKt0SHt1xrdqc/mNSiw4E15yQ0jOUmvmrubZaFK34arknviklSn9+hWvaod6tR2vaof6+KTTjrUfW+gxnzHD5LTKEUgPusTu9N/fz0lCcRVPrE7/Pc3UpJAXOkT+43//mZKEogr8pI7nZIE4vK85M6kJIG4zCcWtW47m5IE4pN5Y+5cShKIT+SNufMpSSA+VuFGnNXC+XZ4jeopQdUt9t9nU4pAREk97b/PoSSBJfcUYy7wMUdyJAeWlmDMMeZAcjjZ5NooBdKFA4DVxwHAMFcYR/QYyQWZXCfJBZpcF8kFm9yjJBdkckezN7QnubCSO0ZywSb3MMkFmZwjuWCTW0opkC4cAKw+DgCGucJYrlf86dYkF1ZyK0gu0ORW6mWSC0zm/OhVelnHYj8jlDG3Wi/rKGMuwOTWkFygya3TS+oiuQCTW6+X1ElyASa3UXspBdKFA4DVt1vt7BgFpEVjJElt2uuTY1UfSnJjfXL7fU9LxlwYBmq8T+6A7yNLcmHo75NbrIM+OZaWoSQ30Y+5Dt91mzEXhr6alE1uNckFpI8m++SOaBXJBaRZU31ynVpJcgFp8i3TuAAYqcMBQAsy5wDOUCOlCMCcWGptPrkmyhKAWb7v3+LsmJuqZsoSZHJTfGdy2Dbbb2PEk+tLWQIwsyC5yWb63aN0cg15yU1Uf8oSgGgf4HhyE8z0u0cp0wuSG2ewUzEKTfN7b4spBdKGA4AWZBY9zZpCKQIQPwCYSa6J5IJNbhplCTK5Rk2nLAGYHUsu83FJA8kFOubqNYOyBJrcTMoSZHJ1JBdscrMoS2DJAanCAUALuAtgqLu0i/NWIggtOcYcyaHnk2sjOcYcSA4kR3IwmRyQKhwAtKCNFUZwK4xjWsaqPtDkljLmgkzOkVzQyfFxSYjJLWHMBbxLS3IkB5JDd8mFfw/AOv8FlIkDgBZwGCm8FcZqHWJVH2Rya3WQ5IJMbp32k1xgMgf71msfyQU55jK9EUkuvOQ2aY+kJXRNDy65zdpFckEmt1U7JC3x/e5JLpzkdmg7pQBQDTvk5PQMhTCvr7rk5HS3/3m7nJyepTDBJHeP/3mrnJxeoDDmNatTTk7z/M+b5eT0EoUxr0lH5OQ03//cLienlylMMMnd73/eKCenVymMeY3qkJPTAv/zejk5elwGoEGH5OS00P+8Vs6fgQvb6nVQTk4P+59Xy8lpGYUJILkDcnJ6lFIgjf/9YUFmJT+L03fNmxXrsHf8+2xGknkzEpObSXIBJNeYkFyUJywn15SYHP3urZuWmNx0kjNvqu+PnptclCfsivqj5yY3lX735kX90XOTm0Jy5kX90bkDIFKInV8bMoufgRpPKYzL7xmV+d6f5AJNrp8mUZogk+uryZTGuPwbbGfOQ+pDcoGOuWZNpTRBJke/+1CTayS5QJNroGt6cMkBKcIBQBu4C2Cou7Tc2D705BhzJIeeTa6N5BhzIDmQHMnBbHJAinAA0AZush3aCmMJq/rAk2PMkRxYWqJUcm2MOZIDyYHkUpAckCIcALSBHaOwVhgbtYdVfZDJtWsXYy7I5LZoB8kFmdzWbIc9kgsruR0kF2hyO7WV5IJMbrc2k1yQye1VO3sFQSa3XxspBYDqqNd+OTk9TilMa9JhOTk9kJ1Sp31ycnqC4pgW9UZ8MJbcbjk5/Z7imBb1RnwoNm2nnJyeojjG12qZDnuPFCT3NMUJIrl4b0T63Ycg2h6Jb0luk5PT8xTHeHJ75eT0u9i0LXJyepHiGFe4JUm/+zCwJYlUb+jBgmNaKolPjKybqmZJ8TtGOH9526kUx7Qpeb0RJefHHHdvtG1yXm9EST45uqbbNimhw94Sv54jOcsmFk2OMWfbBA0sSI5+9yEYp0FFk6PfvWVjNbhIcvS7t220hhYkB6QGmwRWZBZBrRpBKQxL6hmV+fcQjaQ8QSbXojGUJ9DkxlKewJLLXBw1UOMoT5BjboAmUJ4gk+uviZQnyOT6ahLlCTI5+t2HlxyQGhwAtIL7fYRgdtFVPWeShZscY47k0HPJtZEcYw4kB5IjOZhODkgNDgBawW1j2aVF7ybHmCM5sGMExhzJgeRAcmlPDkgNDgBawY5ROCuMHdrGqj7I5HZrC2Mu0OTaSS7I5PZqE8kFmVxub0SSCye5A1pPckEmd1DrSC7I5Dq0luSCTO6wVlMKANUTdSldQCnMino1P5aY3IMUyKzkXs0NOignp4cpkOHk9sjJ6cm8kVjYpRTWZHoj/qGMZShsSeqNSL/7EGR6NT9TxjIUtmR6NT9XxjIUtmyVk9MLictQ+t1btllOTi9RCKQTZwBa0aWVkvjEyLIJGiAp/44RXVouiXsAWjY+oTeidNQnx5iza6xaEpI7pmUkZ9yYhN6Ix5NjaWlXcm/EqGs6Y86ukWoluSAN17CE5Oiabl+rhpNckKLGjdwBECnFAUA7Fvsd3sGUwqhit4xdnLPbhNCSi3abEFpy0W4T7CnWYa8tZ7cJoY25UzSCEgWZ3BCNokRBJtei0ZQoyOQGaiwlCmwLBUgJDgDaEd1LbhalCGyFsZjkSA5VSY6zWqzvGLWRXI2NOc7eJDmQHEiuFpMDUoIDgHawY8QuLXo3ORq4kBx6NjkO3TLmQHIgOZKD/eSAlOAAoB3sGIWxwtivDazqg0zuYE5vRMZcOMkdyumwR3LhJNehNSQXZHKFvRFJLozkjmgVyQWZXKe/EzjJhZZcF8kFmlx0J3AAqJq+6pKT092UwqgdRfp6RcndQ4mMynTYe7ZgerM65eQ0jxIZlemw93zB9CYdkZPTfEpk1BY5Ob2YkNxhOTk9QImMai/SGzHqd7+AEhm1UU5OrxRMb9AhOTktpERGrZeT06KC6fU6KCenhymRUWvl5BIuI4363T9KiYxaLZdtkASkEGcA2tHhz3LhnhE2jdIpkpLuGNHhz5UgOZtGFOmwd/xcCZKzqViHvePnSpCcTVGriOLJcWaETVGriMLkurSCMWdYi8YUSS46y4XkrCY3tkhydE23baDGd5PcqRTJpP6aUCQ5ICU4AGhJZlE0Wf0ohUHF7ml1fNpE9adMQSY3QQMpk0Fzuk1unAZRpiCTo999qMmN0RDKFGRyozSUMhk0S3XdJDdCrZQpyORa/cfPsJZcfdHkgFTgAKAlbT6TGZQiyM3res2kTIEllxlzdSQXbHJ0cLZoNmOuZsccXdND3ULhvFuSQ28nx9mboSUHpAIHAC1hVR/CLm0byZEcSA4kR3IIIjkalZEcSA7lJAekAgcALWHz2v4K40hBb0RW9WEk11nQG5ExF0pyK0kuyOSiu8aRXGjJJfdGJDn7yR0juWCTW0ZyQSbnSC7Y5GgCgtTiAKAlbXKsMIyvMJaqK2HeEpIzn9wydZJckMmt0JHE5I6RnFmZC2xW6nDCvKU+OS6NsjvmiiV3lDFnPLlVOpQwb5nfbiE5u8mt0cGEectJznxya7U/YV603UJydpNbr32UAmnFAUBL9qqdHSOjhmi0pGJ3jNirjSRnVPHeiJK0X+tJzqiBGlciuYNaR3JGDSjaGzGT3Fp2jIwq3RuxQ2sYc0b106QSyR32Vy6QnD19NblEckfod29Ws6aUSK6T5Mxq0tQSyQGpwAFAWzKLo+lqpBTGlLqp/fHp09REqcwlV1dGclPVh1IFmdwU9aVUxswqK7nJJGcwufoykptEv3tzZpaV3AQNoFTGzFBDGcmN10BKZS65xjKSG6sWSmXMdL+nxgFApBgHAG3J3Euu2X86ATu66xmVmd6kaZQqsOQyY66R5AJNrkHTKVWgydHvPszk6kku2OTovR1mcvS7Jzn0VnJACnAA0BZuG2tVdz2jSI7kQHIgOZIDyYHkSI7kwkwOSAEOANrCCsP2CiO5N2J8RUJyNpM7VjQ5xpz15JaRXJDJFe+wR3Ikh57ZpSU5kgPJoZzkllAKpBcHAG1hhWF7hbFKHUXmcwDQdnKrEzvsMebsJ7dWBxhzQSa3LrE3ImPOfnLFeyMupmu66eQ2aA/JBZncJu0qmhz97i0nt1k7isxfSnKmk9uq7ZQCgBXb5eT0LIUwpb+OysnprhKP2SYnp+cplil91SUnp7klHrNFTk4vUixT+qhTTk73lnhMu5ycXqZYpjT75O4r8ZhNcnJ6hWKZ0qQjcnKaX+IxG+TktIhiGUvusJycHijxmHVyctz1yphGdcjJ6cESj1kjV+KsXFRHgw7JyemhEo9ZJSdX9OoTVEe9DsjJ6RFKgXQPBNiSOSU56qIIG7rrsHd83kzGlLHkGspOroFyGdJdh73j82bQNd2U6SQXbHJNZSY3nX73pkxVc5nJRY+EDVPUp8zkokfChqiLfffJ0e/elqiLPR+GINXY/LamTedKGqAPFj2tHL3vLTmr82LJnS+pvz7IaeWGnF9WchdI6qsPaSsFM+PcspK7UFIffUhbKJgZ55SV3NskNevD2kzBzDi7rOT+WFKTPqJNFMyMs8pK7iKf3EYKZsYZZSX3LkmN+og2UDAzTi8ruYslNeijWkfBzHhTGckBNY8DgNZEi6TbKYVBbWUk9yvKFGhyt1GmQJP7T8oUaHL/QZkCTe4XlCnQ5H5OmQJN7meUKdDkfkqZAksOqHlcrmgNn0nYVfouLCRn2RKSIzmQHEiO5EByIDmSA9KLA4DWsMKwa4P2klyQNhbtjUhytrUX7Y1IcrZtKXkTC5Kzq3RvRJKza0fJm1hwvotdu0reCoHk7Npd8lYILC3t2sutEJBuXAJszTp9miKY3aUtZYOupHWL2V3aUjaSnFnbSs5t16f4EMuo0ndC3UxygSa3VVfQLsmoHd3MvZwtfqN2lpy7i+QCTW63/oJ2SUbtkqMIAAAAAAAAAAAAAAAAAAAAAAAAAAAAAAAAAAAAAAAAAAAAAAAAAAAAAAAAAAAAAAAAAAAAAAAAAAAAAAAAAAAAAAAAAAAAAAAAAAAAAAAAAAAAAAAAAAAAAAAAAAAAAAAAAAAAAAAAAAAAAAAAAAAAAAAAAAAAAAAAAAAAAAAAAAAAAAAAAAAAAAAAAAAAAAAAAAAAAAAAAAAAAAAAAAAAAAAAAAAAAAAAAAAAAAAAAAAAAAAAAAAAAAAAAAAAAAAAAAAAAAAAAAAAAAAAAAAAAAAAAAAAAAAAAAAAAAAAAAAAAAAAAAAAAAAAAAAAAAAAAAAAAAAAAAAAAAAAAAAAAAAAAAAAAAAAAAAAAAAAAAAAAAAAAAAAAAAAAAAAAAAAAAAAAAAAAAAAAAAAAAAAAAAAAAAAAAAAAAAAAAAAAAAAAAAAAAAAAAAAAAAAAAAAAAAAAAAAAAAAAAAAAAAAAAAAAAAAAAAAAAAAAAAAAAAAAAAAAAAAAAAAAAAAAAAAAAAAAAAAAAAAAAAAAAAAAAAAAAAAAAAAAAAAAAAAAAAAAAAAAAAAAAAAAAAAAAAAAAAAAAAAAAAAAAAAAAAAAAAAAAAAAAAAAAAAAAAAAAAAAAAAAAAAAAAAAAAAAAAAAAAAAAAAAAAAAAAAAAAAAAAAAAAAAAAAAAAAAAAAAAAAAAAAAAAAAAAAAAAAAAAAAAAAAAAAAAAAAAAAAAAAQAr9f9H6u338MgajAAAAJXRFWHRkYXRlOmNyZWF0ZQAyMDE3LTA4LTA2VDA2OjM5OjA5KzAwOjAwFRrCKwAAACV0RVh0ZGF0ZTptb2RpZnkAMjAxNy0wOC0wNlQwNjozOTowOSswMDowMGRHepcAAAAASUVORK5CYII=;" parent="1" vertex="1">
                    <mxGeometry x="103.34000000000003" y="211" width="579.55" height="60" as="geometry"/>
                </mxCell>
            </root>
        </mxGraphModel>
    </diagram>
    <diagram id="feGOnDedD-6F13mN_-1H" name="第 2 页">
        <mxGraphModel dx="1702" dy="790" grid="1" gridSize="10" guides="1" tooltips="1" connect="1" arrows="1" fold="1" page="1" pageScale="1" pageWidth="1169" pageHeight="827" math="0" shadow="0">
            <root>
                <mxCell id="bF-xHmNJlWQCe_c8ArNR-0"/>
                <mxCell id="bF-xHmNJlWQCe_c8ArNR-1" parent="bF-xHmNJlWQCe_c8ArNR-0"/>
                <mxCell id="bF-xHmNJlWQCe_c8ArNR-2" value="" style="shape=image;verticalLabelPosition=bottom;labelBackgroundColor=#ffffff;verticalAlign=top;aspect=fixed;imageAspect=0;image=data:image/png,iVBORw0KGgoAAAANSUhEUgAAC+kAAAC4CAYAAAAlxEz1AAAAAXNSR0IArs4c6QAAAARnQU1BAACxjwv8YQUAAAAJcEhZcwAAEnQAABJ0Ad5mH3gAALY+SURBVHhe7N0FfFRX/v7xQ4DgTnGHULS4lRRpsSLFNbi7QwiSQHAJ7hJcg0OCBbcIErxoC7QsWkrpVnb/+3v+5zu3k8wklyGhQCF5dl/vFzD3zLmjt5HPPaN27NiBb7/9Fv/617/w448/4rvvvkPHjh2RNWtWKKXevfhaci2vtkq7qN2y0UrLpeXWOmvy/x+125rtODFVK6WZ7YfoHWrcuDG2bdtmef9Y7d+/HytXrsSRI0fwn//8Bz/88AO+//57uzGOXLhwAZs3b8aiRYvw73//Gz/99JNljsjj9uzZg7Zt25reLvowDBo0CGfOnIny3InLly9j06ZNyJMnz1/jXTVfLVBz+esyIiIiIiIiIiIiIiIiIiIiIiIiIiL6aPzjkb6tWpqE+D1s5NQSakm1gn9d9ipfaZk0s7mJ3iFG+uQII30iIiIiIiIiIiIiIiIiIiIiIiIiojjkg4r0nbQEkcTTrNvl75G325Lr244nek8Y6ZMj0Y308+mxxVK7IkNBX6gSgVBJGekTEREREREREREREREREREREREREX10zCL9bt26WYLRJEmSOJQgQQLEixfPfGKiOISRPjkS3Ui/ix47rrArvhjoCzUpECorI30iIiIiIiIiIiIiIiIiIiIiIiIioo+OWaQ/fPhwVKlSBYULF3Yobdq0llDfdGKiOISRPjkS3Uh/qh4b4OqKJr6+UIGBUC6M9ImIiIiIiIiIiIiIiIiIiIiIiIiIPjpmkb6ExZ6enhgwYIBDRYsWRbJkycwnJopDGOmTI4z0iYiIiIiIiIiIiIiIiIiIiIiIiIjiELNI38/PDz4+PvD29naodOnSSJEihfnERHEII31yhJE+EREREREREREREREREREREREREVEcwkif6O9jpE+OMNInIiIiIiIiIiIiIiIiIiIiIiIiIopDzCL9devWYfz48fDw8HCoePHiSJ48ufnERHEII31yJLqR/hg9dourK1r6+iJFYCDiM9InIiIiIiIiIiIiIiIiIiIiIiIiIvr4mEX6s2bNQufOndGkSROHJCpNnDix+cREcQgjfXIkupF+Kz12iqsr+vr64qvAQKRgpE9ERERERERERERERERERERERERE9PExi/R79eqFQoUKIU2aNA4lSpQITk5O5hMTxSGM9MmR6Eb6afXYuq6umOvrizWBgcjFSJ+IiIiIiIiIiIiIiIiIiIiIiIiI6ONjFul37NgRWbNmNb8CEUXBSJ8ciW6kL2NdXV3h6+uLwMBAuDDSJyIiIiIiIiIiIiIiIiIiIiIiIiL6+DDSJ/r7GOmTI4z0iei9cdKKaLWIiIiIYqiilkEz+xqDiOKuJFpR7UvN7NhBRHHbF9onWgLN7BhCRHFTQi23ZnbcICKqrOXRzI4fRBS35dXkewyzYwcRERHRx0a+9/lU+8cj/XjxEC+BMxIkSwvnFGmR6C1wTp7WMl+8+AnM90n0ljHSJ0diEumXK+eK2bN9sXVroL6MkT4RxVAibZh2UNutbSciIiJ6jZ1OUPuTQa1ICfWFs/nXGEQUd2XWPLRtmr9mdhwhorhpb2Ko9WmgKuivH5LFMz+GEFHclEJz045o/BklEdmSrx82pIBqk8T8+EFEcVs7baW2VzM7hhARERF9TBZp7bV/OtKPlyARnNPlQrryrZCzshvyfekGl78hb1U3ZK/kZpkvYYpPLCcBmO2X6G1ipE+OxCTSd3Fx1cdgXwweHIiMGRnpE1EMJdV8tfvarr/+TkREROTIxmRQF8tAhdSEapDD/GsMIoq7cmnLtSvaPs3sOEJEcc8KJ6jTBaFuNIaqkx0qFU/0IyIbaTVZSOS5tlNbpZkdS4go7jmlv3449xXU8M/Mjx9EFHfF00Zqp7UgzewYQkRERPQxmaI108wi/S5duyJX7txwTpTorXBycjKN5eM5xUfClBmQvmR9lBl/HvXnXUCrJRfReumba7HoIurMvmCZL2Xe8nByTqL3o/cfad9EbxMjfXIkupG+sx6bNpErcqT3Ra6MgXBOyEifiGLIGukf0hpqOYmIiIheo3xmqIUeUIfXQjWoYf41BhHFXdZIf4/WVjM7jhBR3JMvAdSotlA3DkPV+RIqVQrzYwgRxU3WSP+mVl8rqJkdS4gobskVz/j6Yc8SqOG9zI8fRBR3WSP9HZqXZnYcISIiIvqYZNXSaGaR/swFC9GxTz80bNv+rcgm8WnixFG+yEqSrTByfd0bDSfsws6rvyPw1u84cud3HP0bDt/+HQdu/m6Zr4r7OnzyeUs4p8sZZd9EbxMjfXIkupF+cz12gXLVfDFEBSKjYqRPRDFkjfT9tfJ/XUZERETkSLZsUFOmQAUGQjVoYD6GiOIua6S/Tav512VERAkTQvXqBXXjBlSdOlCpUpmPI6K4yRrpX9XKask0s3FEFLfIoo7y9cOOHVDDh5uPIaK4yxrpb9b6/HUZERERUWxgFukv27wdQ2fMRfdxU95It7GT0XXsJPSeOA2j5y3CZ2XKIWny5FF2nq5YdXw+aBVGH3iK//3vf/jvf/9riZn/LplH5uu57REKtpuGFLlKRNl3rJYuHVSZMsYPx0WOWPBx9fJD/tKloYoVg0qQwHzMP4iRfhyQNy9UqVJQuXObb3cgupH+VD32F+Wq+SJQBcKFkT4RxRQjfSIiIoopRvpE5AgjfSIyw0ifiBxhpE9EZhjpE5EjjPSJiIgotjKL9MctXYH6g0ehYtf+b6R85z4o16kXavYZBM85C1C0dFkkTRY10s9SojpqeqyCz5HH+OOPP/D777+/NTLf8ICHKNNlGtLmiWakHz8+VNKkUOnT//0QXOZJmRIqSRLz7e+KnAzh6go1YQLU7t2GZs2gUqeGcnY2v87HoGBBKB8fKC8vqGTJzMe8itxv+SWByYkibwsj/VjMyQkqTRqodu2gvL2hWrWCSps2RseImET6zxKWw48pZmFLqi3IEz+P6XxERK/ESJ+IiIhiipE+ETnCSJ+IzDDSJyJHGOkTkRlG+kTkCCN9IiIiiq3MIn2PuYtRqccgFGjZ5Y3ka9YBeZu2RbmOPTBq9vxXRvrZSlVHvRErMOfYQ0uE/LaN3vsAFbtNRfq80Yz0JWSXlbI7dTJCfbMx0VWyJFStWlCFC5tvf1ck0B84EGryZKgFCwwjR0LVq2f84t3sOh8DWUV/1y6olSuNkx/MxryK3O+6daEqVTLf/hYw0o+lJNCXk0KaNoXy9DTeV/JDIzc3I9Q3u46JmET61zPlxY4qbdCvXj9kSJXBdD4ioldipE9EREQxxUifiBxhpE9EZhjpE5EjjPSJyAwjfSJyhJE+ERERxVb/bKRfDXVHLMesow/w8uVLi59/eYmfXrzEc03+LX+KF/py2fbk+avJ9X75ax7htecHVOw2BenzFo+yb1M5c0J16QJ16hRUgQLmY6Krd2+oJUug3nc8PWYM1KZNUM2bQ+XIYZg40Yj1y5c3v87H4O9E+nLiwurVxqcLmG1/Cxjpx0LyyRopUkC5uEBt3Qo1apTxqRTyp37MLSfiyCdlSMhvdn0bMYn0j5ZIhAGj0yHvogxIlONvfqIHEcU9jPSJiIgophjpE5EjjPSJyAwjfSJyhJE+EZlhpE9EjjDSJyIiotjqH430S36Fuh5LMPPwXbx48QK//vICNx+8wJEbBrns9K0XOPf9C3z3rxe4/sMLbDj/AmvOvsCqM4bV5yIuO6yv891D43rCy/87VOw6EenzFouyb1MSfxctCtWyZYxWyTY1YgTU9u3GN5pm29+V2bOh9u6Fql074rJy5aCqVYPKnNl+7Mfk70T6ct/37YNauNB8+1vASD8WyprViPLlZJsePYwoP3t2qLJlobp2hZo/H6pJk2gdK2IS6d/KoLC3goJ7dYWMKc3nIyJ6JUb6REREFFOM9InIEUb6RGSGkT4ROcJIn4jMMNInIkcY6RMREVFsZRbpD529EJ937Ye8Tdu/kVyN2yB3k9avj/RLfIk67gsxI/COJUD+9cVPCL79DEtOPcGcY09w4wf995NPsPXcE1z87hkuf/8Mc088w9IgLfgnzD35DN6Bz9Bh82PMOPoM+6/8hJs//mSZS3juvInPO49D+ryfRdl3FLlyQVWuDFW3LtTXX9v/UFm+YXR2NrYXLmzE7gULQtWrZ5C/J01qrKgtf8o4Wbk9KMgIw63jPv0UKnFi+/3KZTVqRIwR+fIZ+0uQwAiAq1aFypsXKkMGqFKlIsblyWOs9m07n1mkH5ncn2LF7PcpP0iXANl2nOy/eHH7cTVrGr/Atx0n90kCZttxEsZnyWI/Lrokwi9Txn6+AQOgQkLsI315bOQEBNtxn39uPE6yXZ4Lebzc3aHOnzdWP7eOk+ulT2+/30yZjOvbzicnB0QjwmakHwvJe338eCj9mFtO3rFenigRVO7cUJcuQY0bF/V9YyK6kX4HPXbjX8ZqWTSz+YiIXomRPhEREcUUI30icoSRPhGZYaRPRI4w0iciM4z0icgRRvpEREQUW5lF+gNmzEWZTj0hq+Hnb94eORu5WeRp2gaftuiAwm6dUbh1Z7g0b4dcjVsjR8NWlj/lskJunZC/RXuLil16O4z0sxavitpDF8Bn3008efIEL188wYlvH8Ln4A8YtuMeNof8CI+d97Dk2A84f+shvv/xMXaef4Czdx7h2v3HCL75GPOO/QslZ3+P3Rf19gdP8OjxE8tcYuS2b1GhozfS5bEJbF9FguxFi6COHIE6ccKI563bJISXHzKvX6+/KBxpjO3Tx4i+Re/eUAUKGPF4xoxQCxYYP5x+9AjqypWIca1bQ6VLZ3wDKgG8/F1W6N64MWKM6NjRCH/TpDEi+S1boHr2hKpeHcrbO2JcmzbG/iSSl6hf5pNVvw8dgmrVyojVRZIk9vdVTibo189+nzt3GquCp05tRMhyHflFvXwigO24zZuhGjY0Hg/Zp4TwclKBp6f9uLVrjcdJxkU+keBV5HYl16+TEiWMONp2vlOnjMfTNtIvVMj+8RAzZ0J99ZUxRqJ7Dw/j8Xj6FOrevYhxY8caJyrY7r9CBaipU+3nk3EVKxq3y3ZsJIz0Y6F/INKXKL90woRw1a/f0vq9mDS67x0iIitG+kRERBRTjPSJyBFG+kRkhpE+ETnCSJ+IzDDSJyJHGOkTERFRbGUW6ffzmY1KPfujcq+BqDdkFIq4dULR1p1RsVs/NPYYjW6TZ6DH1FmoNdADxdt3R75mbVGsXTfLZR3GT0Xj4WNQo7876ujtjiP9yvh68DxM3XMdjx49wovnj3Di6g+YvOcWOq+6hv7rr6DDyquYs/82Qq79gGvf/YilR29hz/nvcOHmfZy/8QOWHP0eucZdxKHLP+Dx40d4oslcYviWq6jQYXT0In1XV6iJE6FOnoR6+dIIxa3brEG9rMYuwbf88nrMGCMIF6NHQ7VrF7Hq+tChxjy3bxvjreOsK/TLfLKKu0T2cl0fn4gxwssLqmVLYxV4CcSvXTO+WZUQXqJh67hRo6CaNjVW8pdPApDbcPSoMV5OOJAQX0hgLN/0Wu+PxPDNm9vvc8YM4wSE+vWNAFkC5U6djAjZdtz06Ua4LwF+zpzGCvpdu0YdN22a8c21/IBewn/rvh2REP6LL4wTEiZMsJ9v3TqoO3fsI325nd262Y+bNAlq2DBjJf9PPjEekzVroO7ehbp4MWKcXM/FxX7/8jjJyRe288njLav4y+2yHRsJI/1Y6B+I9GVslixZUE2/fhs1aoTU0X3vEBFZMdInIiKimGKkT0SOMNInIjOM9InIEUb6RGSGkT4ROcJIn4iIiGKrV0X6dQYOQwfvSRgxbwlcu/ZFlW594TZyLMb7rsHmg8ew9chJDFvgi2+GeqJUx16oOcADh8+GYf3+w5i0aiN6TJ2NNqMnOo70i1XG1wPnYIr/Ncv+nz/7F05d+Q7T/C/DbWEoqk87hcZzgjB992Ucu/AdjmpdV5zF4HXnsfzQt9h75jbmHbiGHCOPYc/ZO/jhxweWeayG+11GhfZeSJe7SJR9RyGBuHUldUeR/sOHUAEBUH37GnGukCh8+XKozp2NsbKCu/yCe98+I3y3jrOuKi8r30tYf/Ag1OTJxsrvEuRbSRy+erWx8r410r9/3wjVJa63zicx/5w5xg/BP/8cautWY7X5Fy+gbt6EOnPG0LixEebb3l8J7G33Kfdd7oNE8LJiv5wkIL+gl5jduj8hq9dLgC+xvuyzSxeovXuNkN12vlq1jNu7cKFxAoHtvl8lc2bjxINNm4xPArDdr9xHuT22kX6yZEZob7tfidXlG3t5/CWmludNHjM5eUFifet8EvDLdtv9SxAtn6BgO598SoJ8eoA8j7ZjI2GkHwv9Q5F+mTJlME2/x9avX4/csp9IcxEROcRIn4iIiGKKkT4ROcJIn4jMMNInIkcY6RORGUb6ROQII30iIiKKrcwi/QHT56Bq5x6o1qI1GrZuhwIt2uPzBk1Qu1UbtOg3BJ3G+aDzxJkYu3wdBsxehDpDRqLBMC/c/vFfmLFhK9qOmYJqfYeiVr+hjiP9z75ArQEzMXnnRdy7dw9PHz3A8bDrmL0jBKPWnsL6I1fRcsY+/fcT2HnyMjYdvYjSHttQwn0r+i07ipUHzmO6Hpuh1wbsOHUF3929Z5nHatiG86jQdhTS5SocZd+m8uc3YmxHkb6/vxHjS6xu3S4r52/bBtW/f8Rlstr89u3GN5rWy6ySJIH67DOoK1egLlyA2rIFau3aCJcvQx05YqxQb4305XJZ5T5Hjoh5JCKvWtUIhrNkMVa3lxMDZE75BbuE7kJC9sgr6csq+bb73LAB6tYt4wSEb74x7qOsPN++fcT1hATKEvRXrgxVoADUwIFQ169DnThhP588Ht9/D+XnB5Uvn/0cryJhgHyqwP79xn213SafUrBrl32kL/dryBD7/cp1HzyAWrLEOCFCxsmq+vK4yAkDtnNGJo+nPP+28x07ZpzwICcmmF3nL4z0Y6F/KNJ3dXWFr68vAgMD4RL50x6IiF6HkT4RERHFFCN9InKEkT4RmWGkT0SOMNInIjOM9InIEUb6REREFFuZRfqjFixFnV79UbVJC1T9piEy1WuKb9p1QOc+fdHJfSRajpqIll6TsWBbAKau80Or0RPQYJgnbj94gD7T56J0h57I26QNynXs8ZpI3xW1+vlg4rZzuHPnDn68fw/BF76F38EzWige3b+LiesOY+72E9gXdAE7T4ShxZQdaDBhG0avOQy/w2exen8o6k/cioMhl3FLzyHzWLmvDUWF1sPfbqQvEbmstm57vb8T6V+9aoTxcn1bkyZB1a4dEekPHhwRpzsye7axsr1cN/I2Z2eorFmhatQwfgFvu7+dO42o/nWRvq2MGY1IX34QLyv2285nJY+NrJBvdv3IohvpyycVFC9urJo/d679/o4fNz5NICaRvqzILyce9OhhjLGdLzgYSr+WGOnHQYz0iehjxEifiIiIYoqRPhE5wkifiMww0iciRxjpE5EZRvpE5AgjfSIiIoqtzCL9Oes3o8+UWejiPRFuHp6WSH/EnPlY778HfvsPwXfnPizbtR+7ToRgzuYdlki/3tCRuHj7NjqMn4LCbp2Qs1Gr10f6RSuiVp8pmLAlFDdv3kRY2HmcOB2EwKMnLEJDgrHrwFHsOXQMh4+fxKFjJ7F+90Gs2xmInfuPWMbsP3ICa3cF4siJU5YIVsLmq1evWuZzXx2ECm7uSJfTZtV7R951pJ9cPwapU0OlTRsR6c+ZA1WpElSRIhHKlzdWdc+b9+1G+vKD8lq1jE8D6NfP2JfcjjJljHB/z57XR/qyCr/MI/dDgn+J9M+dg3J3t78PxYoZt13i5qRJ7ed4lehG+rKC/+jRUEuXQrVubb8/eQ5CQ18f6UtonSaN8ZjKpxPMn288F02bRsz3xRdQXl5QJ08y0o+L5H3u4WF8MoWrK1SKFMbrRo4FJUsanx4xbJjxKRZm17cR3Ug/hR5br2xZrJsxA4F+fnD5K9wnIoo2RvpEREQUU4z0icgRRvpEZIaRPhE5wkifiMww0iciRxjpExERUWxlFulLiD9++Vr0mjYb37iPskT641euwebDx7Ay4ADGr1iPsb5rsHbfIfis80MLz3GoM2QEzl2/iTbeE1GgZQdkb9jytZF+lqKfo2afSRjndxrXr1/H4kUL4T3GC6NGDn8jM6b7YP36dThy5LBlviGrTqCc2xCky1kwyr5NvetI//PPoRo2NCJ8a6Q/ahRUhgwRY4RE+40bG/H824z0JUpv3tz4wXmXLsZlsqq/rBgutzMk5PWRvoyXueV+SMwukb5cr1Ur+3FyW+vVM2J72a/ttleJbqQv4f/ixcY38Nb7Kb8EkL/PmAGln/vXRvqyEnqTJsa2fPmMExdk7sqVje3Wx0pOBJBIm5F+3COf2CCvqYkTjVhfXhuysv2XXxpx/oQJUDVrGiesmF3fRnQj/Sp67IxcuXCiaVME6veoS/r0pvMREb0SI30iIiKKKUb6ROQII30iMsNIn4gcYaRPRGYY6RORI4z0iYiIKLYyi/SPnjmLBVt2oOOEaSjevpsl0nefvxizN23FyEUr0MJzApqO8MbElesxYuEyNBrmaUT6126izZiYRPoVUL33BHhvPIFr166hW+dO+OLzcihd4rM30rRxA4wZ7YktWzZb5hu08ijKthqEtDkLRNl3FMmSGfH81KlQ//63seK8xLfyw+Y3ifT79IFatcpYsV5+4S1k+/TpRvxdsCDUwYNQnp5GdG4dI2Q+ic0l1H/bK+lLOH/smPENsOxLVqWXwH73bqjHj41Iv25dqJYtjV/Qd+tmf9vkdk+aZDxOFSoYsb+swN+pk/244sWNsF1CZvl35NtiJnNm4/Hw8zNuk+18cn8OHDBC+kKFoCZPhlqzBqpZM2O7nFQhtys4GOr5c/tIX1ZBX7vWWCnfOp88DgsWGI9rrlzGvBLxy+WyXU6QkDkk0P/hB0b6cZG89+V9L+/PjRuNT4to1MgI9HfuNF7/8p60vs4ciG6kP1KPvePsjEdp0iAwfXq4yLEn0lxERA4x0iciIqKYku+BGekT0asw0iciM4z0icgRRvpEZIaRPhE5wkifiIiIYiuzSP/MlStYtjsAbmMmIGejVpZIv6H7KAybtxgzN27F0t17sWjHboxavBytPMfDtXu/N4v0i5RH9Z5jMWb9UUuoOmn8OPTu3g1dOnVEl86dYsx7zGisXbMGR48a8w1cfghlWw5A2pyRonoz1atDzZ9vrB7/3/8aoXu7dsYvq98k0peQvE0bI1Jfv94werSxSr2s2C8nAHz9tXHZihURY4Ssri9Ruqxw/zYjfWdnqBw5jBBdgnbZl8Tp8sv47t2hDh82Iv2qVaHy5DFWy5cY3va2yfghQ6C++MJYaVweCwnlJWK3Hefra6yyL7c/edTn3lTSpEZsL8G5nKRgO5+shK9fn5b9S8wvEX3HjlAzZxrbly0zbpc83mFh9pF+xoxQVaoYcbV1vlmzjB8ClCpl3D759AL5t4T8sl1W0JcTLeTf8kkBjPTjJicn49Mj5KQdeV/KSTbyOpL3UAx+8RTdSH+qHvvLXwI1F81sPiKiV2KkT0RERDHFSJ+IHGGkT0RmGOkTkSOM9InIDCN9InKEkT4RERHFVmaR/vYjRzFi8TJ81W+IJdAXn7XujAZDR8F9/hLM27YTc7ZsR+vRE1C+c28UaNEeFbv3w5xN21GzvzvyNm0TvUi/cDlU7z4Go9cetgTJu/Rt2bBuHdatXYt18mcM+fv74/Tp05a5xMClB1C2eX+kzRGNSF8iXAlwt2yJIBF49uxG7J0ihRFqS7ifJYv9deWX2BLqywr0tpfnzg3VuXPEfLKCftq09mNatDCCdtv9ymrdEo4nTmysdC9Bef36Rixse10zsqL9yJFQJUuabxcSHkuUL/uSEwQkRpdfyvfsCTViRMRJCLK/3r3tb5uMr1zZfr40aYwTFGzHyar0EujLdrkfsgK/nDgg982MRPcyTsbnzGmsWm47n5XcVuvjILdTvoGXy2VVfAnxy5UzYuoePYz7ab2N8k1/jRoR88j9LFIkYrsoWxbK29vYLnG+rKD+5ZfGPuR5tx0bCSP9OMD6PpdfOpltdyAmkf6d9AqHSyl4faGQObn5fEREr8RIn4iIiGKKkT4ROcJIn4jMMNInIkcY6RORGUb6ROQII30iIiKKrcwifc+FS1G190Dkado6PNLP3qAFXJq3xWdtOqN0p54o1akHPm3R3rLSfrb6zZGrsRtKdexhuU4W/e9oRfqFyqJ6Ny94rQrEuXPnLIH9yZMncfLECePPGAoKCrKEsDKXGLBoL8o264u02aMR6cvK9rlyGavcW2XIYKw+L98wSqgv8fgnnxiX2V5XwnsJ9yVWt708USJjDut8shq/rMpvOyZ9eqi8ee33K/PJ/qyreMvtkstso/NXkf1lzQqVLJn5diH3R1aXl33JvmVFfLlPcplc1xrBy/5km+1tk/GRV/SX+ySr29uOk5X45cQG2S73WyL3zZuhjhwxJycWyDgZL4+bPJ6281nJ7bE+DnI75fbK5bI/uV2yTwkM5L7I/bTeRiG/KLDOI9eTlfttt8uJEXJShmyXEyxku1xHxsrzbjs2Ekb6ccCr3ufREJNI/2RRZ4xwT4XPpqdFkmyRjhdERK/DSJ+IiIhiipE+ETnCSJ+IzDDSJyJHGOkTkRlG+kTkCCN9IiIiiq3MIv1+PrNRvG2X8ED/TUQr0i9YBtW7jILnin2WgPVt67/AH2Wb9kba7Pmj7JveIwnnq1Y1ViEfO9Zc06YRUf9HiJE+ORKTSP9SzuxY2bAeWrdvjbTpIn3yBhHR6zDSJyIiophipE9EjjDSJyIzjPSJyBFG+kRkhpE+ETnCSJ+IiIhiK7NI3332Arh264P8zdu+sUKtOqBq934OI/1Mn5bClx2HY8Sy3QgJCXnres/ZjlKNuiNNtnxR9k3vkXwqgAT4sgq+rERuRlYnl3Fm1/8IMNInR6Ib6XvosWecy+JY6umYmW4jsiXIbTofEdErMdInIiKimGKkT0SOMNInIjOM9InIEUb6RGSGkT4ROcJIn4iIiGIrs0h/wYbN6Dt5Otp5jn1j7b3GofvYSQ4j/bR5S6B0y8HoM2cLQkJOIzj4NE6f/vtkHpnPbdIG5P+6I1JkzhNl30RvEyN9ciS6kX4xPbaBctV8UVkFIrlyMZ2PiOiVGOkTERFRTDHSJyJHGOkTkRlG+kTkCCN9IjLDSJ+IHGGkT0RERLGVWaTvt9MfPouWwHvGbIe6DxkGt+690LxzN1NNO3VB4w6dkSNvPiRKlDjKzpNkyIkcFeujVk9vzNsUgGVb9sJXW771zckcSzbvtcxXoZ0H0n9WBYlSZYiyb6K3iZE+ORLdSN8yPn0BqAp9oZrO1TpqTYmIoq91I6hDuRjpExERUfRZI/2QEKipU82/xiCiuKtXHajD8j2GMyN9IopgjfQfPICaOBGqXTvzYwgRxU0d6kOtLcpIn4jsWSP9Aweg1q83P34QUdzVTNtQBGpfSkb6REREFLuYRvpbtsBnxkx4jxvvUKWqXyJbzpxIky79K6VOlw7OiRLByckpys6dEjgjcZpMyFysMlx7+aDB4Flo5jEHLYa/uSbD5qDuoFmW+dLmLYYESVPCKX6CKPsmepsY6ZMjMYn0nUunROq5xZDuWjskCNoOdeIEEVH0nToI9W1tqFX6+FMy6vGIiIiIKIrMmaFGjjQi/XPnzL/GIKK4K8hPf4/xNdTmVFBVTI4hRBQ3JUgA1b491PffG18/nDplfgwhorjpVADUpe5QR/Txorgmn/5pdiwhorhFIn35+iFAHyMuXzY/fhBRHHZcHxu6QO3LCdXR5BhCRERE9LEyjfT9/ODj4wNvb2+HSpcujRQpUphPHE2WUD9tFmQo9TXyVKiD/K718OkXb85FXz+XnkfmS5Astd6H/mbPZL9EbxMjfXIkJpF+TtecaLimOTrcHoN0M0YZsQwRUbS5a8WgWujjT9aoxyMiIiKiKFKmhPrqK6gBAyJ9XUFEJHpr+nuMtkmg8pocQ4gobpJFmUqXjnS8ICKyGqx9CdVdHy+yaAltjh9EFLfJ1w9dukQ6ZhARWVWB6pYOqozJ8YOIiIjoY/VPR/pyxrRTgoRIkDQVEiVLhcTJ/55EmrOeR+aL5xTffJ9EbxkjfXIkJpF+WdeymLF8JjYd347cn5czVrUkIoq2TFoSqLT6+MNffhEREVF0xI8PJT/byZgx0tcVREQig6a/x0jnBJXI5BhCRHFX0qSRjhdERFbyvYX+HuMTfayQn1HGszl2EFHcJl8/pE8f6ZhBRGQlXz8kgEpmcvwgIiIi+lj945E+USzASJ8ciUmk7+rqCl9fXwQGBsLFxSXKXERERERERERERERERERERERERERE9IEzi/Rnz56Nrl27omnTpg5JVJokSRLziYniEEb65Eh0I/3iemxXV1eM9/XFiMBAZGKkT0RERERERERERERERERERERERET08TGL9Hv06IFPP/0UKVOmdMjZ2RlOTk7mExPFIYz0yZHoRvoj9dgNrq5o7euL9IGBSMBIn4iIiIiIiIiIiIiIiIiIiIiIiIjo42MW6Xfs2BFZs2Y1vwIRRcFInxyJbqQ/VY8NcHVFE19fqMBAKEb6REREREREREREREREREREREREREQfH0b6RH8fI31yJCaR/hFXVwz09UWRwEAUcXFBEX2ZKOSkkDOFgnN+PWeRvxTScmjO2l/7IiIiIiIiIiIiIiIiIiIiIiIiIiKifxgjfaK/j5E+ORKTSP87V1eE+PpiW2Agtrm4YJu+TKxNqjCylELm+XrObX9Zow3TMml/7YuIiIiIiIiIiIiIiIiIiIiIiIiIiP5h/3SkHy+BM5zTZkfa0o2RvWIT5P6iKfJUenO59PWzVmhimS9B8nRQ8eKZ7pfobWKkT47EJNL/xdUV8PUFAgMBFxec0Zdt0FYkVZhRXKGLj0L+tQpOgRmhrlSE2loJKm9y0/0SEREREREREREREREREREREREREdE/wCzS79m7NwoUKoRUadK8FQmdnRHPJJZ3SpgYiTPkRtYvWqPa7G/RdsUNdF93Cz03vLkua2+hle8Ny3yffFYDCZOnQ7z4zlH2TfQ2MdInR6Ib6Y/QY6+5uuKery/uBQbinosLRuvLSmpFnBSaOCuEplPomEEhYaOKUH4LoLYuh8qby3S/RERERERERERERERERERERERERET0DzCL9KfOnoPWXbqhdtPmb0WWHDnh7Jwoys4TZ/4UOap1Rl3PTVgX9ht2Xf0Ne67/hr033lyAvv52PY/M59p/KdKVbgjnNNmi7JvobWKkT45EN9J31WN7uLqir68v+gYGoq+LC8boy3prsq22dvOvfyesWhVq7VqorVuh8uY13S8REREREREREREREREREREREREREf0DzCL9JRs2Y/BkH3QZ5f1GOo8cY9HdayyGTpqGQsVLIkmyZFF2nrpQZZTqMR+Dt32Hp7/+Pzz79T949OIP3P/pd9x6/G9cefArHvz8B75/8BRXbn6Pq7fu4qdf/8RP//4PfnjyHNe/f4CwW//CuR9+x/3nf+DxL3/i6UtNzyPztVt1A3mbjUby7EWj7DtOih8fKk0aqEKFoNKnNx9Db4SRPjkS3Ug/uR6bq7grSo/2RcUFgciewwX99WWztK5aH+2exkifiIiIiIiIiIiIiIiIiIiIiIiIiOgDZhbpT/Jdg2YeY/BVryFvpEqPgVp/1Bs4DF5zFqBo6bJImix5lJ1nKlEd1d1XYerhJ/jzzz8tHj//Ny7fe47AK4+xOuhH3H36EkHBQVi1YhnWrV2F//73D/zvf//BjW8vY/vOnZi1NgATj/yMKw9+w88v/8Bvv/8RPtdQ/4co1Xka0uQpEWXfcVJy/Rx88QXUwoVQNWuaj6E3wkifHIlupC9jC6V1Rd/ivhhbIRBZkrmgsL6sk7ZQC9J+1RjpExERERERERERERERERERERERERF9wMwifY+5i1GpxyAUaNnljeRr1gF5m7ZFuY49MGr2/FdG+tlKVUe9ESsx+9hDS4QsLt19Br/ge1hw8A78Qv+F1Vt2YsjQIWjauCH69u6pb+M9PHz4A86fDcKmzZsxfv5adJh9EFtCHuDKDy/x+GdjHjF67wNU7DYV6fO+xUhfVqGvXBmqcGHz7e9KqVJQX30FlTOn+fbokFX0mzeHunEDqksX8zFmsmaF+vJLqLJloUw+EUElSQLl6gpVpQpUqlRRt7+p3Lmh6tSB+vRTqMSJzcfEhIsLVIMGUNmzQzk7R90ul8tjXKZM1G2vwUifHIlJpO+qXOGrfBGoAuGi9GtWX1ZAG6od1H7RGOkTEREREREREREREREREREREREREX3A/tlIvxrqjvDFrKM/4uXLlxaBF3/AuB2XMWrDWVy9ehNt27VH8eLFUbpUKXTs0AHBwcEIDQ3CubOhOHniONauXYsu3bpj7Kaz2HHxKW7+60X4XF577qNit8lIn7d4lH2/sV69oFatgurb13z7uzJmDNSmTVD165tvj443jfRl9f25c6E8PKAyZ466PWNGqMWLoVavNoL6yNvflAT669cbtzltWvMx0RUvHlSTJlC7d0NJ3JwiRdQxtWtD+flBTZgQddtrMNInR2Ia6a9QvjihAlFZuSCFviyhlllrpt3WGOkTEREREREREREREREREREREREREX3A/tFIv+RXqOuxFDMP38OLFy8s9oXdg/uaIDQatQK9unXFuLHe8PHxwYIFCywRtETOd+7cxr49ezBpwgS0bN4MxT8rggELD8DvzEN8++Pz8Lm8/L9DxS4TkT5vsSj7fmMDB0Jt2QI1dKj59ndl6lSogACopk3Nt0fHm0b6snq/BOyyWn7yqM+jJdy3xsLySQORt78pWflewvoiRYzV+s3GRJdE+nLbWrUyVuhPlCjqGDkBQr+u1MyZUbe9BiN9ciSmkf465YsfVKD+0wVf6ssk0k+l1dZuaoz0iYiIiIiIiIiIiIiIiIiIiIiIiIg+YGaRvvuchXDtNgAuzTu+kTxN2iF3kzavjfSzlqiKOu6LMOPgd3j+/LnFnnPfY/DyY6gxYA7qfV0TGzduQGhoKK5cuWIJnH/55RcEBZ3GkkWLMLB/fzRq0ACVK32BQYsDsSnkR1y9/yx8Ls9dt1Gx83ikz/NZlH1HIavBFy0KVbZsBInTJQ6XwDtBAiMWl4D78GGoOXMixmXPHjX6zpIFqnhx+/myZYNydoZycoJKmhTqM327ZFzq1FAS6FrHyWWyPxknK77LuDVroE6eNFazt47LlMkYY7tfR2wjfVkt3jqPKFMGKkMG+/Hx4xu3S1bSr1IlaiyfMKER6FerBrV3L9SRI1AtWhjzyX1/09Xv5bHJnx+qUiVj1ftcuewfX3kMJbSXMfLYffKJcftlvxLip0plP1/KlFAFCkBVrmzMJ8+13Hbr9sSJjU8AGDAA6tQpY/V+6+MiJwqYrbofCSP9WEheh/KeLVHC+Lv1cnnPyetRjhfW97Tt9UxEN9LPocc2U65YqHxxTAUiQLmgj77sMy2XxkifiIiIiIiIiIiIiIiIiIiIiIiIiOgjYBbpD5wxF6U79ED2hq3eSLYGLZGzkdvrI/3iVVB76AL47L+Fp0+fWviH3sKwNafQddZObNywDocOHcLp06dx/vx53L59G7/++iuGDBliiV4XL1yI3Tt3YOe2zZjufxl+oT/g8vePw+cauf0GPu80FunyFI2y7yjq1IGaOxdq9+4I3bpB5chhxOoSas+eDXX1KpR+rNS1axHjOnQwgnnb+SSGX77cfr7WrY1wXaJeCc8XLIiI2vv3jxjXrJmxP4nHJTrX91Pp+64ePYI6ezZinKz8brYi/KtYI/1bt6AuXoyYR0joW6OG/XgJkyVcl+0SA/foYQTx1u0SyDdsaETt+rVjeVyOHjXGy32XyN52vuiSAH/UKGOeFSug6tY19mXdLicT9OljjCldGqp6deP2y/jJk6FKlrSfT04YGDfO2L50KVT58lDJkkVsl5MiRo82bvvjx1B37hhjhZwUEY1PB2CkHwvJSTryuOrn0PJ+tV4uJ3jIiR7z5kG1aWP/nniF6Eb6nfTYOcoVfZUvaqtAzQUT9GXjtBoaI30iIiIiIiIiIiIiIiIiIiIiIiIioo+AWaTfz2c2XLv3w+fd+6JGf3cUbNkBhVp1RLnOvVFn8Ai09Z6MdmMno2rvwSjapgvyNG2DIq07Wy5r4TkOdYeMtGz7Wl/3dZH+14PnYeqe63j06JHFzqBv4b7qGHrM3QV//104deqkZSX9oKAgHNi/H8uWLEGvnj0xe9YsnDp5EteuXMSW9Svhs+M8NgZ9j4u3H4TPNWLLVVToMMZxpC+rYn/zDdTw4cbq+L6+ESTslrBeVtJOrm+/hNzBwVDffw+lb1P4uKZNo4a6EpZPnWo/n1y/SROoYsWM1fGvXDEC2xEjoCZOjBjn6QnVoIERh+fLBzV+PNSlS1D370MdOhQxTuL0aKziHc420j9xImIeIfG6BOkyp3VFfVk1v1MnqAMHjJMT5CQGOWnBOp+sUF+zJtT8+cZJBPK4yP2R+eS+y8kH1rExIauTS4Qv0bys+t+rl/0q/xJPL14Mdfo01IwZUMOGGbdf9iufdDBwIFTFisYnIMh4eRyHDDE+iUDuuzy2kaN/OUli1y6oH34wnhfr46Jfa5bV9K1jX4GRfiyUNavxfpWTZHr3Nk4IkdeenOQhJ6zI8aJRo2h9YkR0I/2peuzZjK6Y6eqLmjUDkTKlC1rqyyZro7QZ2iONkT4RERERERERERERERERERERERER0QfsVZF+3UEe6Dx+MkYvWIovuvXDl937od2ocZi6cj12Hj0N/xPBGL10NRqPGItyXfpa4v0z125g29GT8Fm/Bb195qHd6EmOI/1ilfH1wNmYsvsqHjx4YLH9xCUMWLQHDT0WYPDg/ggKOo07d+5YAteF8+ejdIkSWL5sGS5dvKBv9zXs2OqH+jUqYciC3Vh7/CbO37gfPtdwv0uo0N4T6XIXibJvC4m4EySA2rQJavp0qNq1jaC7YEEjaO/Y0Yi+u3Y1xkq0LkG4fszUyJHGauxCQnmJ/W3nlmhf4u7ChSPIPiSolcDXGunL6vhbthjxvHU+CcpllX0J/WVeWdFebse+fcZJA9ZxsqK3NUSPDmukbw3frfOIdOmgliwxbl+5csZ4mVtW6pdQee/eqJG+bJfbkCcP1MaNUDt3QpUqZcwnt1keW+vYmJD7LJ8iII//uXOvjvTv3jVODJg0yQilZb/VqhmxvaxyLp+AIOPlT7k9Ev6bRfrW/cknGOzfb1zX+rjI/Y/83JpgpB8LWd97soq+vOflJJuWLY0/5XUi72Gz976JmET6D0uWwbWxU7B06VrkzJkLzvoyV22Rdlf7U2OkT0RERERERERERERERERERERERET0ATOL9AfMmIMvu/REdbe2aNyuo2Ul/YqNmqKuWzu0HuCObhNnoseUORi7Yj36z1qI2oNHosEwL9z+8QFmbdyGDuOmokY/99evpF+sEmoNmIlJOy/i3r17FluOnseQJfvQzWcTtm/djCtXruBMaCh2bt+OJYsWYeaMGfDyGoW1a1fj3NlQXAo7h7XLFmCS3ymsOXYdode+C59r2MbzqNB2JNLlKhxl3+EksJWV9GU1e1kZe9kyI5CXEFyCfQlhJca1jpdV2iWqHzrUfp7IzFbSl+BcVofv29d+JX03N/vV2iV0lxXtJX63XiZzBQQYq/ZbL4sp20i/Sxf7bXICgtx32cfnn9tvk/sil0eO9K0yZ46IheUxi7z9TckJCWfPOl5JX058cHWNCPIrVTJOKJATDqyXCTmhoFs380jfqn59qD17jBMiIm97DUb6sZQ11JfXjHzChbwP5RMn5MQVeT+ZXcdEzFbSz4iZ+jVdq1YtpJRPq9CXZdLqaVxJn4iIiIiIiIiIiIiIiIiIiIiIiIjoI2AW6Q+ftwi1evRF1aYtUK1BY2St3xxft26Dtt16oP0gD7QaNRFuoydjtt8OjF+5Hs09x6HBME/cfvAAg+csQqXuA1CoZUdU7NLbcaRf1BW1+k3HpO3nw4NVv0NnMHTJXgyYtwPBp07i8qVLOHb0KDauX49FCxZg8eLF8PAYhmXLllpW2b8Udh4bV/li0qaTWHXkKoIu3wqfy33dGVRoPRzpcr0mHJdgW+J3ifS3bTNW1m/UyFj9PmNGI2C3jnUU6UvQKyuvlywJNWgQ1MqVUNu3R7h2Der4cftIf+JEqHz5jOtZ55EoWOJc28sY6Udcbo30/f2hWrSASq5fW9ZPFGCkT2+bvK/l9SKforFhA9SAAcZ7yfb19RoxifQPJEyITvo1nUMfA8rqfWTRlyXSsmottDsaI30iIiIiIiIiIiIiIiIiIiIiIiIiog+YWaQ/ZeU6dBozCe08PNFq0DBkqtcUgyZPw9INm7B6hz8WbwvA4u17sOtEMOZs3gm3MRNRb+hIXNbX7TRxGoq27oKcjdxQrmOP10T6FVGr7zRM3HIGt27dsth4IBiDFuxG92nrsXP7Vhw/fgwnT55EgL8/fHx8ULlyZSxYMB+nTp20RK/r165BjapV0HfWZiw7cAEnL1wPn8t9dTAquHkgXc5ohOMSn1esCPX111D16kGtWgXVvbsRhNuOcxTpJ0hgRP2yEv+YMUZQX6tWBJlz3z77SH/UKPsA/VUY6Udcbo309WtX1a5tfx1G+vSuuLsbJ/H062e+3YGYRPoBWhutuLZMa6hJpJ9Kq63d1BjpExERERERERERERERERERERERERF9wMwi/fV7AuG9bDV6+8xBo+FjLJH+hJVrsf3oCWwIPILp67fCZ91m+B08hukbtqCl13jUGTIC567fRBvviSjQsgOyN2wZjUj/c9TsMxnj/IJw/fp1iw37T2Hwwp3oPWMjDuzbg1MnT2Lfvr1Yvnw5vLw80axZMxw7dgwhIcHYtHEDxo0ZjTbNm2HAvG1Ysvccjp27Gj7XkFUnUd5tKNLlLBhl3+FklWyJtiVMT5vWiLllBXtPT6ixY6HatIEqXjxivFmkL8F9tWrGCvq5ckFdvAg1bpwRtEsoniqVsTK/rKZ/4MDbi/TLlzfi/8gnErzK+4z0ZXX7L7+E+uor41MBIl8nOj6ESD93bqiaNaHKlrUfGwkj/VhKjg/yyRby/pX36pQpUB4exvtI3k9m1zER3Ui/qR47UfPQBmpztJFaPe0zjZE+EREREREREREREREREREREREREdFHwCzSP3X+AhZv343246aiUOvOlkh/yJyFmL5uE4bMXYL6Q0ej7qDhGLN0JdznLUED91FGpH/tJtqMiX6kn6VoBVTvPR7eG4/j6tWrFlsOnsLYVXsxeuVehIZdxfGgs5izaCl69h+Efu7DcSI0DGcufYuFy1ej54DBGOA+AkH6srm7z2J14HkcP3s5fK5BK4+grNsgpM1ZIMq+LSTcltXvJbqXCF6icomyRf78UIMGQS1caKyob71Op05QS5caoa51rAT7ixZBde4MlS2bEXpL4F+uHNSnn0J98YWxgv6TJ1BBQW8W6cv+1q2Dat8+Yr+TJhlhvYTwZteJzDbSt739ooB+jObNg/L1NU42kPESKH/yiXGfDx82PglATgyQAN92Xrn9ErbL9ipVjPkkapeQftas6J9EYOXsbHwiwYABUJcuGSdMFC1qxNKyPaaRvpyAICcSjBgBdfeuEeu7uEAlTmx/3erVoVauhJo2LeJxkZM05DKzT06wwUg/FpLXobz+S5c23tPyGpCTYoYNg9LPqZJIXt5Tcgwxu76N6Eb68fXYcvp1OSl9eqzMlAn5EibECH3Zaq2r1kH7XmOkT0RERERERERERERERERERERERET0ATOL9M9cuQLf3QFwGzMRORq7WSL9hu6eGDZvCWZu3Iolu/Zg4fZd8Fy8HG6e4+Havd+bRfpFyqN6z7EYs/6oJVQVp0LPY2vgKUzfsB+dp21Gx7FL0NJjBpoMnarnXgivNYcwYO5WtB69BN8MmYX6wxej68JDWL0/FIdDwnA27FL4XAOXH0LZlgOQNuenUfYdTkJ0CW8lWl+wwIhercaPh2rRAqpw4YjxBQtCtWplRPjWcd7eUE2aGKvIJ0tmhOMSlkvMv3q1EfBLGL5585uvpF+ihDGHBOTW/Up0Lqu8y4kBZteJzBrpy2rywcER8wi5ne7uRmSfPr0xXuJ22acEyfq1oa5fN8a5utrPK+Nk9X35lAG5rzKf3PfBg40TFFKksB//OtmzG3OdPAn17BlUaKhxEoU8BrI9ppF+kSLG8yv3+eVLqKNHjcfOuuq/lTyO8njKNuvjIo+3PAbWfb8CI/1YSF4P8n6RE2HkNSCfqCGXlSljnJAjJ/A0awaVLp359W1EN9KXsZ98+inKd+2Kr/RrNkWmTCilL+uhyar6h7VfNEb6REREREREREREREREREREREREREQfMLNIP+DEKXgvX4VagzyQ+Ztmlki/TMeeaD5qLEYuXo7523dh7tYd6DR+Gir3GIAibp1QqdcALN+9D3UGDUe+Zm2jF+kXKofq3cdg9NrDuHjxokXYhQs4FXIWa3YfQYuxa9HacyGaD5uJRoOnof5gHzQZPhdfdhmNugN90HrCanSevRtus/Zh19EQnA0Lw4WLF8LnGrAsEGWb90faHA4ifZEyJVSjRsZq8H5+EXr0MKJ8idCtY2X1dbmsS5eIcRLsSiQr2yT6T5UKqnVrIyRfvx5q7lxjJfiuXY3wv2FDKAlyZdV6Wak9dWr722NGVpGXOFhW8bbut2lTI6iXbWnTGqvcy6cBmJHAWOJ2CXvXrIHatStiHiGr9NerZwT11pXBZd5evYwYXsL3gABjVXkJ4W1vm9xnWV1fVvSfM8eYT2L9GjWMy+Xxk1XpK1Y0v21CgnlZuVzmk9spq5bv3Am1f79xW6dMgSpVytguq+xLxG/9tALb2yInP0yebHwKgtwu62Vy0oTMIydJyP0ZOdKI922vK/uXx1MeV+vjInG/PO7WVfxfgZF+LCQni7RsaZzwYf0kB3mNyPFCPmlDPiVCTuKxntTiQEwi/QT6fZxMv49S6NdTfH1ZUn1ZOW2MdkJ7qTHSJyIiIiIiIiIiIiIiIiIiIiIiIiL6gJlF+pNXrsU3Q0egoFtHS6Avcjd2w2dtu6BSzwGoPXg4vh7kgVIdesClWVvkaNgS+Vu0w9cDPVDYrROyNWgRzUi/LKp3Gw2v1Qdx/vx5i7CwMJw9dw6HTwbDd9tBrN4RiPGzl6BdryGo3qg1qjVsjYo16qNDv2GY7rsJ6/efxnL/kzgZcuav6xvziAGL96Fss35Im/01kb6QILdCBajq1SN8qq8nkXnksXKZi0vEOPm7bcgvJEqXVeQlXJc4Xa4jEa7E8rIv+bfsTy6zxumvIzG/BOfW/ebIYawWL6v3S0i+fLkRtZuRcF2C9kyZjJXwrXNYye3MmtV+fxLry6cI2I6TlfYzZ7YfZyWfCCAr6ss4ue+yL7lcTiCQkxHkhAWz2yYkhpdxMl4em2LF7Pcrt/2TT4zt1hMl5LGMHEjLpwWULGlE//HiGZfJvBL4284nK+Nb92dLHk95XK3j5PGOxkkUjPRjIXkd5stnnJQif7deLid/yPtd3r/Wk3Nsr2ciJpG+5f0pJ/AEBhrHFn1ZGq2iNkL7UWOkT0RERERERERERERERERERERERET0ATOL9Pv5zEbxtl3CA/03Eb1Ivwyqd/GE14p9loDVjET7/rt3Y9qUKWjX2g3FChdE104dMH/uHOzftw/nzp0zvZ4YsMAfZZv2Rtrs+aPsO1aRYFhWhZeV5WUFezMDBhhhu9n13zX5ZIG6dY0TBcxum5BPI5BxZtf/CDDSJ0diGukn9PVF1sBANHdxQVF9WQItlVZbu6kx0iciIiIiIiIiIiIiIiIiIiIiIiIi+oCZRfrucxbAtVsf5G/e9o0VbtURVXv0cxjpZypQCl928MDwpbsQEhJsERwc1dmzZ3Hs6FHMnjUDhT/Nh3Xr1uqxIZbo1Wy8da7ec7ahVMPuSJMtX5R9x0qycrwjZtd5n8xuky2z63wkGOmTI9GN9NPpsblcS6Ow72Q0DlyNoy65MFhfllvLojHSJyIiIiIiIiIiIiIiIiIiIiIiIiL6CJhF+gs2bkbfKdPRznPsG+vgNQ7dx012GOmnzVcCpVsORu85WxASchpBQadx+nRUEt6fOHEC27dvw4Tx47B3717L5UFBQVHGGpeftsznNnkD8n/dESky/7VCNdE7wkifHIlupN9Wj13tmh7rfEtjbmAltHdJjvH6Mk+tmsZIn4iIiIiIiIiIiIiIiIiIiIiIiIjoI2AW6a/fvhMT5y/EiGkzHOoy1AOtevVF8+49X6EXWvXojVz5P0WixEmi7DxZ5rzIU6UpvhkwGb7b9mH1jv1Yu/NAFOt26T/1tuV+/pi7YhNWbQ0wLo80zmLHAazavt8yX+WuY5CxVA0kSpMpyr6J3iZG+uRIdCN9bz32nmsCPPBNilOBydHXxQmb9WVHtAnaSO1HLTzS19dTJ05AdegAVbMmERERERERERERERERERERERERERH9kypVgsqf3zzS99u6DT6z58B74iSHan1TH4WLl0SeTwuYyq1JoJ88ZUo4xY8fJVxNkCQ5UmRzgUuVRmg6ZgW6TlmDPtPXoe8r9PFZi97T1ui/r42yzaqXHtNp0hrLfNlKVUPidFng5Bz1BAGit4mRPjkS3Uh/qh77wlXhT1+Fx4EKx10U7ujLHmkXtTPaL1ovLWGVKlD6NacePIA6dgxq3z4iIiIiIiIiIiIiIiIiIiIiIiIiIvonrVoF1aXLKyJ9Pz/4+PjA29vbodKlSyNFihSmUWp0OSVMhCQZciBLpeYoWN0Nn9VqjWJfv7mitdyQv1ory3zOKdNDxYtnul+it4mRPjkSk0j/uqvCXl+FeYGai6Yvi6yyFl/OsurZE2rePCIiIiIiIiIiIiIiIiIiIiIiIiIi+hB4e0M1bPjPR/pEsQEjfXIkJpH+odKJ0XNSBmRZlQUJcyU0nY+IiIiIiIiIiIiIiIiIiIiIiIiIiD5gjPSJ/j5G+uRITCL979MWwrFifTG2wlhkSZbFdD4iIiIiIiIiIiIiIiIiIiIiIiIiIvqAmUX68+bNQ69eveDm5uZQvnz5kCRJEvOJieIQRvrkSHQj/Q567N5PyuN8hbnY8dUO5E2R13Q+IiIiIiIiIiIiIiIiIiIiIiIiIiL6gJlF+oMHD0a5cuWQK1cuh2QV/fjx45tPTBSHvI9I/9mzZ7h//z7u3Lljh5H+h88a6Ud+7oRtpJ9Xj+1R1BW73H0R6BMIl2wupvMREREREREREREREREREREREREREdEHzCzS79ixI7JmzWp+BSKK4n1E+vL+vHr1Ks6ePRtO/u3v789I/wMnkX5wcLAlyLd9/uQ5PnfuXHikL2NdXV3h6+uLwMBAuLgw0iciIiIiIiIiIiIiIiIiIiIiIiIi+ugw0if6+95HpC+XhYaG4ujRo+HCwsKwa9cuRvofOIn0T506ZVlN3/b5O336NEJCQhjpE9Hfk1TLprnYyKIl1szGE1HcklzLodkeIzJrzprZeCKKG+QYIMcC22ODHCvkmGE2nojiFvleQr6nsD1GyPcc8r2H2XgiihsSavL1Qx7NemzIqSXTnDSz6xBR3CHfY8jXC3k122OEfF3BYwRR3JVAS6dZjwsil5ZWMxtPRHGLfP3wiWZ7jJCvH1JrZuOJiIiIPkaM9In+vvcR6b98+RI//fQTnjx5Ek7es/v27WOk/4GTSP/8+fN48OCB3fP38OFDy/GXkT4R/S2ltGnaPhvjtIKa2Xgiils+1xZqtseIUVp2zWw8EcUNEs/IscD22LBIk2OG2XgiilsKaGM122OEj1ZaMxtPRHGDnLzjqW3RrMcGX62sJqG+2XWIKO6QnzPI1wvbNesxYon2qcbFRIjiLgn022rW44JYrbXQzMYTUdwiP6PsptkeIxZr9TWz8UREREQfo48l0ndKmAjOabMjdbE6yFq2HnKUr4ecf0N2PUfGUnWQ6rPaiJ80lek+iaLrfUT6P//8syXqlnms7t69iz179jDS/8BJpH/27FnL82X7/N27dw9Xr15lpE9Ef89X2g7tkrYlPtTFklB+n0OVSWs+nojilrraYS1U254E6kpZqNXloFxSmI8norghnya/FL+i7dDHhtAiUEdc9TEji/l4IopbJMb30y5qW5Lq7zVKQe0sr7/3yGg+nojihtzaGk2+twhwgjqWB+pcDaiamaBSJjS/DhHFHfm1vVqwtscZ6lR+qJDqUKXSQiWNb34dIor95FN4Rmj3Nfke44T++uFkBahBn5qPJ6K4RVbOn6Dd1dZqpwtAHSgH1c1oJ4iIiIhihddF+k5OTnBOlOidSeicCAkSOP4BbjynBHBOnQnpS9RFscG7UWtsABpM2oOGf0Pd8XtQxdMfnw3cjmTZiiBeAmfEi+dkun+i13kfkb5c/9KlSwgNDQ135coV7N69m5H+B04i/aCgIFy8eNHu+QsLC7PE+9ZIP5EeW9XVFYt9fbE7MBD5GOkTUXTU1HZpe7TWiaH8h2lToMoXMh9PRHFLA+2otk7r+glUoBfU5rFQn+YwH09EcYMENLIKbqDWTR8b1vWAOjZDHzO+MB9PRHFLOc3/L20zQQV4QO0er7/3KGs+nojihryafP0gEe7ABFDTG0HdWAdVpwJUqmTm1yGiuEM+iee4tk0bkhJqoRvU1dVQZQtCJUtsfh0iiv2yat7aba1VPKi5+uuHwIlQw9uYjyeiuEU+cWe6dkOro48Ry9pB+Y+F6tPYfDwRERHRx8hRpB8vXjykSp0Gn39V/Z0pW6kK8hcpan7j/pIoQ15k+6Ilqg9eBp/jv2L52V+xNuxXrLvw5laf+xWLgn/F1CMv8JmbN1Lkr4gEydOZ7p/odd5HpP/o0SPcvn0b165dC3fz5k0EBAQw0v/ASaQvUf6NGzfsnr/r169bwn1rpF9Zjx3o6opRvr7oHhiITxjpE1F0SKS/VVuhFUwKpY8hyt8fqnx58/FEFLdIpH9Am6qVywq1fj2U/hpTfcrVqojiNGukLyfwlM8GNWUKlP4eRDVoYD6eiOIWa6TvqxXOBbV8OdS2bfp7j5rm44kobrBG+vL1Q42EUL16Qd24AVWnDlQqfloxUZxnjfQXabXTQg0bBnX1KlTZslDJeCIPUZxljfTlk4A/jQc1SH/9sGMH1PDh5uOJKG6xRvrntHT6GOE10vj9RZ8+5uOJiIiIPkaOIv348eMjZz4XeM1bBI+Z8zB0+hwM9pn9VgyaNhPuer5BE6eiScfO5jfuL+lK1oPrsE0Yf+gZ/u///g///e9/8fsf/8Ev//4Dz17+joc//4bf/vgTP//8HA//9QCPHz/SY/5jGffy5S94/OQJfnj0DPd++hO//v4f/Pmf/1iiadn+n//3P7Tb9BC5m49H0qxvuOJs2rRQWbJApUljvv1DoZ9PlSIFVO7c/KH5W/Y+Iv0//vgDv/32G3799ddwjx8/tuyHkf578Dfe5xLpy/P59OlTu+fv+fPnuHXrVnikP1WPDXB1RRMJbCWQYaRPRNHBSJ+IHGGkT0RmGOkTkSOM9InIDCN9InKEkT4RmWGkT0SOMNInIiKiuMBRpO8UPz6y5c2HITPnoqnHaFTrPRSVug98K8p17Ik6/YainccoNGrf0fzG/SVr2Xqo67URc44/wZ9//mmJlf/17Fec/+4nBFx4hKUn7uOHZ7/g2LHDWLxgLtavXYX//vcP/O9//8Hli2exdpMfJq30h+eB57j2r9/wy69/4Lff/zCi59//xKCd/0LxtuORKvsbRvotW0KNHQvVpIn59g+FBPpVq0KtWQNVt675GHoj7yPSv3//vuWyoKCgcJcvX8bu3bsZ6b8PrVpBjRv3Ru9zifTl+Yr8/J09exZnzpxhpE9Efw8jfSJyhJE+EZlhpE9EjjDSJyIzjPSJyBFG+kRkhpE+ETnCSJ+IiIjigtdF+lnz5MVAn9moPWA4SnfsjSKtu78VeZu0hWuX3mgx2AON2jmO9HOUr4tGYzZg4clHlpXExaXvn2FLyA9YdvQutp59iA3bdsPDwx1t27TCqJEeePDgBzx69ADnzgRh05YtmLRkE7ovPAr/C49w8+G/8ezFb/i3nuflr7/Bw/9HlGk/DmlyvGGk378/1Lp1UD17mm93pGhRqC++MFa3N9v+NqVODdW4MdT581Dt25uPMSOrh1eqBFWyJFTSpFG3J05shIAVK0KlTBl1+5vKmROqRg0jVE6UyHxMdMXTX9DnzWv8wkC/tpWzc9Qx1vtZokTUba/xPiL9hw8f4saNG7h48WI4+XdAQAAj/XfFycl4zdeqBeXuDjVhAtTAgcZJLjH4xZNE+iEhIbh27Zrd83flyhWEhYUx0ieiv4eRPhE5wkifiMww0iciRxjpE5EZRvpE5AgjfSIyw0ifiBxhpE9ERERxwWsj/dx5MWDqbNTsOwzF2/ZEgZZd3oocDd1QvlNPNBs07LWRfs7yddDYez0WnvgXfv31V4tDlx9g+p5rmLbrCs5/+wN69umLihU/R8XPK6BHj+4ICzuPixfP4/zZUBw6dAhLVq5Ft6FjMXvvdRy58QL3n7zESz3Pi19eYoT/fZTtMBZpchQ03f9rDR1q/KJKYn2z7Y506WL8Mrx2bfPtb1OaNFDNmxs/OJf9mo0xIz9AGzMGqkcPqE8+ibo9XTr9xbKXETDnyhV1+5uSVf9nzzaCaDnBwGxMdEmk//XXUMuWQVWoAJU8edQxcrKEjw9Uv35Rt73G+4j0X758iWfPnuHRo0fh5D27b98+RvrvggT68jrJkwdq4UKokfobwg4doEaMgFqxAqpIEeMEFRlndn0bEumfP38eDx48sHv+5Lgrx1/bSH9/eVe0neuLZDsC4ZSXkT4RRQMjfSJyhJE+EZlhpE9EjjDSJyIzjPSJyBFG+kRkhpE+ETnCSJ+IiIjigmhF+lNmo2affzDSL1cbjUevwYJjP+DFixcWu8/exdDVp9Fh0iZMmTABQ4cMQf/+/TFy5Ej4+vri+vXruHbtKg4e2I/5c+eid8/uqOxaEe4rT2PHhWe49eBn/Kzn+en5zxix63uUbT8aaXIUMN3/a/2dSN/bG2rXrpitbP+m3jTSL1jQiJPr1zeP5TNnhlq7FmrrVqhCb/hpBGZkRfu+fV8d1ceERPrlyhnPVeHCUEmSRB0j92/PHqiZM6Nue433EelLoH/v3j3cvn073J07d7BH32ZG+u9A+vRQVaoYP0geP944yUNeO/XqQU2cCOXhYZzYkSKF+fVtSKR/5swZy/Nl+/yJy5cv20X6F3O5YllTXzTvEog06RnpE1E0MNInIkcY6RORGUb6ROQII30iMsNIn4gcYaRPRGYY6RORI4z0iYiIKC6IbqRfo7c7PmvdHfmbd3orsjdoFf1Iv2wtNPJcgXmHv8dPP/1ksTPkDnovOIDP249G4QL5sCcgAPfv38eTJ0/w888/47fffrPErxLou7VsiTKlSuLT/PkxcMkhbDv3CNfvP8UzPc+Tp8/gsf0myrYdhTTZoxGqpE1rrKwtUYvV1KlQu3fbR/qyunzevPbjJPpNkMAIxhMlgsqdG2rePKjDh43g1zpOrqsfe7v9ZsgA5eJiP59E9zKX7ThHbCP9UaPs59KPTZQfpMsK4RLgy/Z8+aAyZoRKmDBiu9wXeTwkApQTDQ4cMH4gL+PlvqdMaT9fdMljo19/4fPI7bZ9POQ2ZMpkjJEf7Mntltsv43PkiPrDPvl39uzGdnnuJPi3nc/ZGSpbNqju3aGOHYNaudIYK7JkMQ/6I3kfkb5cFhoaiqNHj4aTMbv0Y89I/x2QIF/ifP28qaJFIy63vncvXYIaN854bdlez4RE+qdOnbKE+rbPX1BQEEJCQsIj/SF67FnlijPKF8tVIHIqRvpEFA2M9InIEUb6RGSGkT4ROcJIn4jMMNInIkcY6RORGUb6ROQII30iIiKKC6Ib6VfpMQAuzdohW4OWb0WWb5qjXMce0Yr0c5SpiQYjfTHn4G08ffrUYtvpGxi6+iQGLN6LfXv3WELokydP4uzZs7h16xZ+/fVXdOjQAX379sXaNWtw4tgRHD9yEDP33cCWMz/i2t3HeKLnefT4Cdy3fovSbUYgdXQi/ZYtoTZuhDp1KsL330MFB9tH+rIyvvzyynZc585GqC+Rr0Tvsvr8/ftQP/0EpW9z+Lg2baIG7r17G78wt51PgnuZy3acI9ZIX/Z1+7b9XPrxU3Xr2o9PmhRqpP4iWLZL7DdokBHqW7dLoC+Ph2x78gTq2TOosDBjvNz3atXs54sueWwmTYqYp3Fj47Zbt0ugLz/ck4hAVtmX2y23X8bPnx81SixTBmrWLGO7nx9UpUr2q59LoO/jA3XmDNTz51APHhhjhUTaxYrZz2fifUT6Qj5F4rm+jVbyvt23bx8j/XfhLUf6Yfq98ejRI7vnT04qunHjRnikn1OPLatcUUb5opAKRGJG+kQUHYz0icgRRvpEZIaRPhE5wkifiMww0iciRxjpE5EZRvpE5AgjfSIiIooLohfpz0THsZNRd/BIlO7YCzkbuSHzN81QoWsfVO41EGU79ULBVh1RqFUn1Brogeae49DKawK+GeqJz9p2Ra7GbpY/aw5wRyvP8Wg0fDRcuw9A7QHD0MbDMxqRfg3UH74Usw/cxOPHjy22nLyGwcuPoNecHdi6dXN4oB8cHGzE0cuXWwL9efPm4cTxYwgNOoW1yxdjyvYwbA65jyvfPcQjPc+/Hj7C0M1XUdpt+KsjfVlRXsJc+WGzu7v+InE61IIFEU6fhjp+3D7S//prI/C1HSffbMovvAsVMlaB9/Q0wnCJ/A8dihgnv/CK/AOrRo2gZsywn2/oUKhataIVCVtYI/2bN42o3XYuWdFfIvwvv4T65BNjfOLEUBJ/79xp3E4J2W33JaH7V19BzZxp/DD+zh2oDRuM+eS+lyoVMTYmrKva790LdeECVNeuEbdJyGr5c+YYj5nE/HK75fbLfuXf8gW7xPvyvMn4AgWg+vUzgoOLF42o3/aXBvIpBfILha1boe7eNcZYHxfZt5w0YB37Cu8j0peo+8GDB7irb6OtPXv2MNJ/F95ypC/HJ3n+Iz9/V65cCY/0nfXYZMpV80ViFQgnRvpEFB2M9InIEUb6RGSGkT4ROcJIn4jMMNInIkcY6RORGUb6ROQII30iIiKKC14V6efMmRMpU6ZCoeIlMWDKDExcthIj5i5GU48xlhhfIv22Yyejl89sNB3hDddu/VCz/zAMX+CLOX7bsWDrboxfsQ71hnqisFtn1BwwDCMX+WKF/35MWb0R7bynoI3XBHT2HPv6SL90ddT3WIxZe43bKfyOXUa/hXvhNmYZJkwYi5CQEMuK1MFBQVi6ZAkaffMN5s6ZgxMnTuDSxQsI2LUNPTq0wqiVR+F3+ntcuvUjHuh5fvjxAYZsvITSrTyQOlt+0/2r+PGNHzKvWgU1cSJUvXpQ5cpFmDsXas8e+0hfwm4J3uUH1FaTJxtxecOGxir1n30GtWyZEfiPHRsxX5YsUAkS2N+GggWNX4TZzierw8+ebawMbzv2VayRvvzgfMIE+/vg6mrE9nIigDVIlvudN68RwR89atxPCeSt8yVMCJU5M1T16lD79hnhf4sWxnwlSugvotNFjI0JeWzy6+fCy8sI5uWH/RLSW7fr16ZavBjq+nUo/bxbQmq5/bLfVq2MXxzKN/Zy+2W8PHfy+EnAL58iINFB6tQR88nJCBIpDRxonHAhJxpYHxcXF/tV91/hfUT68v68dOkSQkNDw0ngvXv3bkb678JbjvSD9LEp8vMnq+tLvG+N9I3x+rWsfLVAjZE+EUUDI30icoSRPhGZYaRPRI4w0iciM4z0icgRRvpEZIaRPhE5wkifiIiI4oJXRfply5ZF3br1MMxzNAZMmY4Z8+Zj6uy56DtuMr7qMwRZ6jeHx6JlmLBqHTpOmIYa/dzhtXQVvBav1FZh9NI18PZdh/GrNqByr0Fo4TUeC7ftwv7gsxg6ZwkauHuhyTAvdBgxOhqRfjXUd1+AGf6Xcf/+fYsNh86j/8IAdJ60GsuWLMKVy5dx8cIF7PH3x4J58zBowABMnToZe/YE6MvDcPLoIUwZMxLe605gw4mbCLt+F/f0PN/fvYch686jdMuhSJ3tFUGsBPMSnJ8/b6wmHzlokRXt5RdVtpF+xYpQvXsb32BayS+8ZfX3Ll0ixnl7Q+3aBdW+fcRlZmTFeonlbec7ccKYs3598+tEZhvp294GkSSJccJAQADU55/bb5OV5+XyyJG+lYT6a9caK9HLpwRE3v6mWreGOnv21ZG+PB8S1MunDMgJA7JNTliQFfiXLImI9EU8/QV9t27mkb6VPI5ysoWcrBB522u8j0j/yZMnlsuvX78e7pa+PwH6uWGk/w685UhfovybN2/aPX9yYtHFixcZ6RPR38NIn4gcYaRPRGYY6RORI4z0icgMI30icoSRPhGZYaRPRI4w0iciIqK44FWRfp06dTB23DgcPHHSEukPGToYHsOGYvikyegxdRbyt2iPMctXY/zKtWjhNQ61BnjgyPmLGDBjAeoNHqX/PQLdp87B4fOX0HiEt2XV/QXbdmLtvoMo2qorcjZqhQqdeqLZoGGvj/RLfYVvhsyFz47zuHPnjsW6/SEYsmQvRvnuxbdXLuPG9esIPHAAK5cvh++yZTig/96zZ3fMnDkDIcFB+O7mDQQfOwyfnWex5uhVhF6+hdt6npu3bmPw6hCUbj4YqbPlM91/tCP9AQOMWFxi25H6i8djx4wfQFk9fgwVFBT9SN/JyYjnZT5ZwV+Cddv5nj2DOnw47kb68g187dr214nFkf7vv/9u+fPly5fhHj16ZNkPI/134C1H+vJ8Pn361O75e/78ueVEC9tIP2lSV2TO7IscOQLh7MxIn4iigZE+ETnCSJ+IzDDSJyJHGOkTkRlG+kTkCCN9IjLDSJ+IHGGkT0RERHHBqyL9/PnzI3fu3Khas5Yl0m8yYAjajRgN7yXLMWfzDkuI7z5/CXpPn4Pag4bjm6Gj8O3de9gXfAZ+h45jY+BRbD92GicuXEXTkWPhNmYifDZsxoJtu5C9QUtk+aY5ynXsEb1Iv+SX+GbQbEzbdtYStIo1e4PQf94O9Jq2Fn5+63H06BGcPn0a/v7+GDduHIoUKYI1a1ZbVqkODQnB/LlzULJoEfSatQUrD11G8MUbuKnnuX7jJgatDELppgOROkte0/1HO9IfMgQqSxaojRuN+L5aNaiSJSMsXGhE4NGN9CWcL1YMassWKA8PI563nU/C+H37GOnbXicWR/p3797FuXPncOLEiXDy+t6lXz+M9N+Btxzpy/Ep8vMXoo9NssK+baRfvLgrvLx8sWBBIHLkYKRPRNHASJ+IHGGkT0RmGOkTkSOM9InIDCN9InKEkT4RmWGkT0SOMNInIiKiuOBVkX727NmROEkS5C1YyBLp1+wzEE08PDF2+WpsCDwMj/nL0G/mPDQd6Y2K3fuh3tCRuGxZ4f4QZm7Yhqlr/bBomz8OhYah8fAxaOk1AVPXbcLczduR+ZtmyFSvabQj/ewlqqDuwJmYsjUEN27csFgdcAoDF+zAoDl+OHhgH4JOn8aePQFYsmQxRo0ahTZt2lgi2NOnT2H9ujUY7z0andu1weDFAVgeeBGnw77FdT3PtW+vY8CKEyjVtP/fj/TlTwnIQ0KMeDd/fqgUKYyI3c3NCOYOHnx9pF+6NFT16lCffQZVoYKxXzkBIGNG44fd+fJB6ftnWUX/wIEPM9KXH7hVqQL15ZdQKVNGvU50fAiRfq5cxnMhP0S0HRvJ+4j0ZdV8OUHlypUr4eS9ICemMNJ/B7JmhWrSBGr+fKjevY33pbz25D3ZsyfU7NlQDRtCpU1rfn0bEulLkC/HWtvn79q1a5bn2Rrpl9Vju3/uihELfdHHPxAZ8jHSJ6JoYKRPRI4w0iciM4z0icgRRvpEZIaRPhE5wkifiMww0iciRxjpExERUVzwqkg/a9ascIofH1lz57VE+lV69EOdwcPhtXQFdhw/iZX++9F9ykxU7jUIRdt0Rq0Bw3Dk7HlMWrUBvX3motukGfCYvxSbDx5DvSEj0cJzPKas2Yg5m7ZZAv2YRfqVUWeADyZvOWWJWsX6fScxytcfo5fvxsmgMzh2OgRLlq+Eh6cX3Ed6YcW6jQg5fwlrNm7GyDFjMFxfvnb9RkzcdBKrD4bh1LkruKrnuXz1KvovP4qSTfsgdRZjJesoJPaWwF1+YT11KlS5clCZMkUYOxZq504jpJdVtQ8dMi4rXtz4t/wpq+jrx1kdP24fyEvYL6FM164R80kAPHq0EaDLD6/kOjJO4nyJxiV+lwj9zh1jX28S6Q8aZH8fJD5esMCI7cuUMcZL2C4/XJcTAuTkAon+SpSASpzYfl45eWDePKh164zAX+aTWH/UKCh3dyPitx3/OnJShNxW+SH/xYvGpwhIRCQrmMv2mEb6zs5GSC3Pz/ffGydEyOMol9tet1Yt47mQEzGsj4vMLydc6PeE3dhI3kek/8svv+DZs2eWWN9K5tyr7y8j/XdATlyR14mcaLJ0qfG+/PprI9hftcp4bUjIH/l1ZEIi/fPnz1uOsbbPnxx35fhrjfT76rHLXF3RSb/XPtXHm8QujPSJKBoY6RORI4z0icgMI30icoSRPhGZYaRPRI4w0iciM4z0icgRRvpEREQUF0Q30v+iWx9U7TMIfWfMxep9gdgfcgYdxk9F8XbdkLtJa1To0gfT1mzApNUbMH7lOnj7rsbopSswcqEvXLv3Q5MR3n8v0u8/FRM3Hcfly5ctAk+GYvmuI5iybj+8V+7DqIWb0H30LLQaPA7dxszBvB0nMVVv6zlhMZoOmojWo+Zh3MaTWLHvDPafvoAzYZdwSc9z4dIl9PM9iJJNer060ndygkqaFKpHDyOe9/Kyt38/1JEjRvguK7RbI3tPT4OMkX/LyvcS1dtG+hIASzxuO5+M7dwZqlQpY+V6iYIj71f+HRRk/BI9ppH+zZvGN7+281lvp6xeLycWyHiJ4mVuCfflh+3BwUawLiv8284rnxbQuLH5bWzWLForjduR6L9FC6gtW6AePIDavRuqf3/jkwlke0wj/dy5jRMN5ESKn34ywiSJ7uVy2+sWKADVoUPU+yEnCbzml5DvI9J/8uQJ7t69i5v6+bO6c+cOAgICGOm/K/Iakk+CkPe09fUwUn9jKK9H2093eA2J9M+cOWP5JATb50/+fUkfg6yR/lQ9NsDVFU0ksJX3NiN9IooORvpE5AgjfSIyw0ifiBxhpE9EZhjpE5EjjPSJyAwjfSJyhJE+ERERxQUxifTLdOqJb4Z6wmOBL9YFHkRDDy/kb9EOWeo3h0uztqjVdyimrN2IjYeOwO/wUfis34RK3ftbttXs7w73+UvgtWRFzCP94pVQp99kTFh/xBIui6uXLyHozDks2hqICv0X4YseE1Gj3zTUdZ+H+iOXoM7wJSjZbjSq9J2FBmM3osEUf3wxehf2Hj+DK5cv4NLFCwjT85wLC0PfJftRsnFPpM4SKdo2066dEb5duWJv61YjBLeO69bN+AX3uXNGZC6xrUT+c+dCNWliP2fRolDjx0fMJRF/5B9qDx5sRPIhIUZ8Jyt8yyr1ixZBVasGlTy5sdK+rGBvRsL2LFmMlcAlYre97eLsWahGjez3KXPa3i5x8iTUN9/Yj7OS2yEhvIyT+y77kstlZfxPPjEie7PbJmRFchkn42XcnDn2+924EapyZWO73I8xY4zHUqJ86/5F6dJGwC/brZF+hQrGSui288knG8gnItheV8inBMjzaB03YwZUyZJRx0XyPiJ9ua6E3seOHQsnY3bt2sVI/33o1Alq9mzjRBaz7Q5IpH/q1Cmc1e8z2+cvWL+nQ/R72jbSP6Jfb33HjUPOZcvgLO/bSHMREUXBSJ+IHGGkT0RmGOkTkSOM9InIDCN9InKEkT4RmWGkT0SOMNInIiKiuCAmkX7+5m2Rt2kbFG7d2RLs523WBlnrN7cE9/JnniatUbxdV5Tp3AtlNfl7rkatwrcVbt0JRdt0jnmkX8wVtftMxPi1h3D+/HmLsLDzOHvuHI4HhWD7geMIOHwSPnMXo22XXqhWuwG++roBXKvWQO+Bw+C7fhv2HAvFjkPBCDlzLnyOc9oZPUefRXtRsmF3pM6cy3T/dtKlM2L4woXt5c1rbLOOs43SZbysSi8rb8vK+LKive2cSZIYkbp1rvTpIwJzK1ldvmBBgwT6Ml+mTBHx/RdfGEHe5cvmJFJ3dTV+WC4nDNjediHzyqcA2O5TPkHA9nYJWW0+8jgrWXHc+tjIfbf+YF4eC1mJXD5FwOy2CQkCZJyMl1BeHifb/ebJY6zYL9sTJjTus4yREwms+xfyiQfWxySe/iJeLpMf/slltvPJdc1+KCj3WZ5H6zj5VAGZM/K4SN5HpP/7779b/nz58mW4R48eWfbDSP89kPelvG5i+skQmkT6YWFhlk9DsH3+nj9/bllN3zbSf6hfb9f063epfp/ndHY2nY+IyA4jfSJyhJE+EZlhpE9EjjDSJyIzjPSJyBFG+kRkhpE+ETnCSJ+IiIjigphE+nmbtrasmp+tQQvkaNjS8vfMfwX38meWb5ohe0O9rVFLC/m7XGbdJtcTMY70P6uI2r3GYezqA5aVqK1kVfGQ0DM4FRyCkDNnsW37DkycOAmtW7uhWNGi6NmjOxYuXIS9+wMRHHoWp4NDLdcJv74Wov/dZ4E/StbvGr1IX1Z7l0Bewnpbcpl1JXjrOInNhWyTYFwuk+g2coAvYbiE59a5ZJw1MLeS7db5ZA7ZLpfJ3+WHWxLZjxhhrPxuRiJ5CXFk32a3X+aNfLus+43OOGE7t+04+QF9rVpQo0eb3zYhq9dL5C/j5fGQ+2W7X5nXOp/tfZex1v3bXle2R77Mdj6z61rJ4x+dcTbeR6T/7NkzyxyRx+3Zs4eR/vtgff/Kn2bbHZBIX449kZ87ceXKFbtI/2f9enumX78Bel/5Ih8HiIjMMNInIkcY6RORGUb6ROQII30iMsNIn4gcYaRPRGYY6RORI4z0iYiIKC54XaSfLXceDJzsg2q9BqCIW0fLSvpvS+VufdFqyPDXRvpZi1ZAre5jMGbFHoSGhiAkJKrQ0FCcOHECWzb7YeQIDxQrUhALF8zDwcADOHXqlGW72fWCQoLRY/Z2FK/XGaky5TTd/wdP4nUJ3GXl95Ilzcnq+dYI/n2TYD5zZqiiRc1vm8id2z6s/8i8j0hfri9Bt8TeVvLv3bt3M9L/wEmkHxQUhEuXLtk9f7K6/rlz58Ij/ZF67LfaNW2Dllszm4+IyA4jfSJyhJE+EZlhpE9EjjDSJyIzjPSJyBFG+kRkhpE+ETnCSJ+IiIjiguhE+oMmTUPbkWPQaPBwfDPQ461pPdIbXT29XxvpZyhYFl90GAH3RTsQEhJkiV3NSHR/9OhRrF69Cr16dMOePQGWqD84ONh0vEXwabSevAn5a7ZD8gw5TPdP9DrvI9J/+vQp7t69i5s3b4a7ffs2V9L/CEikLycK3bp1y+75k39LuG+N9KvpsUP/0lpLp5nNR0Rkh5E+ETnCSJ+IzDDSJyJHGOkTkRlG+kTkCCN9IjLDSJ+IHGGkT0RERHGBWaTfr18/FCtWDJkyZ0bREiXhPn4yRk2fhdGz5sJ7zvxwQ8ZPQl9Pb/QeOfqN9BzphQ4DBqNa/YbmN+4vyXMURsE6ndHaaxG27TuEHfsOY+cr7NDbt+05CL9d+7B97yHTMULm2K7HbtkTiCp9piFDmTpIlCaj6f6JXud9RPq///47fv31V/zyyy/hHj16ZNkPI/0Pm0T6smr+kydP7J6/n376yRLqWyN9GZtUy+rkhFzJksFZPgGjSBEiIse65oTal8w+0j92DKpVK/PxRBS39M0BdTyxfaSvv35UdeuajyeiuKGO/l7jQEr7SP/4cX3M6Gs+nojilpZ59PcUKewj/X379PceXc3HE1Hc8HV+4+uHjfEjIv3vv4fq2dNYKMDsOkQUd9TT32OcTQq1xCki0r99G6pFC6gyZcyvQ0Sx35efQi34xD7SDwiAmjXLfDwRxS119dcPK9PZR/q7dkFNmGA+noiIiOhjkj8/VKZM5pG+hMWjRo1C//79MWjIEIweOxZjxo2H93h7lb/8Etlz5UbaTzK8sdTp0iNZypRRolZbTgkTIdkn2ZGjfB185b4MLceuQoeJa9DxFTpMXI32E1abbrNqO341GnutwJdDFiNtvhJIkCQF4sVPYLp/otd5H5G+XCafFiHzWUn4vUt/k8JI/8Mmkf6pU6dw5swZu+fv9OnTlufUNtIvpU1MlgwrK1RArgMHoG7eJCJy7EdfqPtl7CN9/d8Ndf+++XgiilsezIe6q7/5s430X77Ul901H09EccPd/fpYUNM+0pfjwoMH5uOJKG65v1l/T1HFPtKX7y9+/NF8PBHFDd8f1F8/1IDalTIi0v/Pf4xjg4S4Ztchorjj+31Qv5WCWp00ItL/80+oe/egbt0yvw4RxX7fnYB6pr9msI30Q0Ohnj41H09EcYt8/fC8g32kf+EC1OPH5uOJiIiIPiaHDxs/HzGL9Ddu3IgpU6bA09MTXl5e8Pb21sbCe6y9suXKIXWaNEiQIMEbi685xY8fJWq1Ey8eEiROhuRZXJCjcnMUqdEKJb5ujZJ/Q/FabihYvSVyVGqGRKk+QTwnfRv0fkz3T/Qa7yPSl1Xzb9++jWvXroW7qd/MAQEBjPQ/cBLph4aG4saNG3bP3/Xr13Hx4kW7SD+3yoJmiWqjW74h+GToRKipU4mIHPPpDDVeH0Na62NOJmcoNzeomTP15T7m44kobvFpDzU2E1QDfYzIlRqqvf63HCOmTTMfT0Rxw7Sh+lhQVB8T/jo21K+vjxVj+fUDERl8+uhjREH9vYU+RmROa3yPMX48jxFEcd20YfrYUASqe2KoAvGhvvjCWAWXxwYiEpbvMXJDtXWGKpwUqnp14xjBnz8QxW3TRkLNqAblob+3yKBV1V8/DNXHi+nTzccTUdwiXz/MqKSPC/r4kFT7uibU8OE8RhAREVHs4OEBVbeueaTv5+cHHx+fv+L8VytdujRSpEgRJUh9FySij584GRKnz4YUGbIjVca/J6WWPEM2JE6XFU4JnE33SRRd7yPS/+WXX/D06VM8fPgw3P3797F3715G+h84ifTPnTtnOcbaPn8PHjywHH9tI/1kqgSyO41F3uTrkKiA/ia0WDEiotfQx48iyaFy6GNOYieo7NlNxhBR3JUbqnBiqCz6GJE0IVTOnCZjiCjuKaCl1seEv44NWbLoY0XhSGOIKO5y0VLq7y3kewxn43sM+WhW07FEFHcU1FJB5YkPlSIeVPr0kbYTUdwm32Mk099jOEGl1MeJDBkibSeiuKmQlhHqU/29RSLtE/31w6efRhpDRHGXfP3wCVR+fXyIr2XSx4sCcpnZWCIiIqKPTMGCxu9gP5ZIn+hD9j4i/SdPnlgul9XXrW7dusWV9D8C1pX05ZMPbJ8/WVk/8kr6Srlqvlqg5vLXZURERERERERERERERERERERERERE9NEwi/R9fX3h4eGBXr16OVS4cGEkS5bMfGKiOOR9RPpy3bNnz+L48ePhZMyuXbsY6X/gJNI/ffp0lOcvODgYISEh4ZF+Zj02V7ISSJXNGyr3EqhEOUznIyIiIiIiIiIiIiIiIiIiIiIiIiKiD5hZpC8BfoECBZAqVSqHnJ2d4eTkZD4xURzyPiL9P//8E3/88Qd+//33cLK6/oEDBxjpf+Ak0pfn89mzZ3bP34sXLyyfhmCN9EfosSvLJELtaWmh1mWAyp3AdD4iIiIiIiIiIiIiIiIiIiIiIiIiIvqAmUX6nTt3Ro4cORA/fnyH4sWLZz4pURzzPiL9p0+f4t69e7h9+3a4O3fuYM+ePYz0P3AS6YeGhto9d1aXLl0Kj/Qn6bE7K8ZDo8UJoPZq+XiMJSIiIiIiIiIiIiIiIiIiIiIiIiL66JhF+h07dkTWrFnNr0BEUbyPSF/en1euXMHZs2fDXb16Fbt372ak/4GTSD8oKAiXL1+2e/7kOT537lx4pD9Vjz1UWqHnJIUsqxQS5jKfj4iIiIiIiIiIiIiIiIiIiIiIKNZJp+XU8tlIrSXQzMYTEX3IGOkT/X3vI9J/9uwZ7t+/b1k93xZX0v/wSaR/5syZKM+dkHDfNtK/llVhUy2Frs0U0qcxn4+IiIiIiIiIiIiIiIiIiIiIiCjWqa0N06bYqKSxoyKij9HHEunHi58ACZKmQZIshZEqR2GkyVkYaf+G1FqK7IX1fIXglDCx6T6Jout9RPq///47fv31V/zyyy/hHj58aNkPI/0Pm0T6YWFhePLkid3z99NPP+HmzZt2kf6/kiXDlezZsVj/O0eiRKbzERERERERERERERERERERERERxSrxtEnaZe2+djMp1P99BjXgE6iczubXISL6kH0skX6CFOmRtnRjFB1/FfUWXkdz3xto8Tc0WnwDX826hiLeFyyhvtk+iaLrfUT6t2/fxunTp3Hw4MFw586dw86dOxnpf+Ak0j958iSCg4Ptnj+5LCgoyC7SP1CuHDrOnIk0fn6Iry8zm4+IiIiIiIiIiIiIiIiIiIiIiChWsUb6W7VB8aC+Lgn1f/+CGtANKmc28+sQEX3IHEX6Tk5OSJk2Lb6oUeudKf/llyjw2WfmN+4viTPmQ7bKbqg51Bezjv+MVaE/Y/35v2fN2Z+xNOhnTD/yDMXajkfKApWQIEU60/0Tvc77iPRlFXa5/o0bN8LdunULAQEBjPQ/cBLph4aGWlbNt33+5N8XL14Mj/S/1mNHVawIjyVL4LZvH9Lmy2c6HxERERERERERERERERERERERUaxijfQ3aT3iQVUsC/V/f0IN6AeVM4f5dYiIPmSOIv348eMjS46c6DnSC53cR6DdEA+0HTzsrWgz0B0d9Hzt+g9CjYaNzW/cX1IXqoJS3WZj0IYruPX0v/j+2Z+4/eQPfPvwd1z68d84d/9X/e/fceXeU5y9fh/nbz3AvZ/+wL3nf+L6j89x/vZDBN98jKC7v+PG4z/09Q13nv6Jbx/9iUZzQpDt635IkjGv6f5jDf18qpQpoWR17tSpzcfQG3kfkf6LFy8sof7Dhw/DyZx79+5lpP8+pEsHlS0bVJo05tsdkEhfPvVAni/b5+/Bgwe4du1aeKSfUY9t4OqK2b6+WBYYiJwuLqbzERERERERERERERERERERERERxSrWSH+j1jUeVLlyUP/3f1ADBkDlzGl+HSKiD9nrIv3s+fLBY/Z8dBg9EU2GeaH+4JFvRe1+7mjpMRpdR3mjcftO5jfuL5nK1EPNUZsw/ehT/Pe//8Wff/6Jpy9+w40HvyDo1jP4X3yExy/+jbCwc9i1YxsCD+zT4/7E//73X9y5dR0HDh3Bur2nsPzML7j79Hf8+tuf+OOPPy3z/P7nf9Bn20MUbj0eKbIXMt1/rJE0KVSJElDDh0NVqGA+ht7I+4j0Hz16hNu3b+Pq1avhZCV2rqT/nnz5JZQ+NqpKlcy3O2BdSf/69et2z58ce+V5tkb6MtbV1RW+vr4IDAyECyN9IiIiIiIiIiIiIiIiIiIiIiKKCxjpE1Fs4yjSd4ofH1nz5sUAn9mo2W8YirfriQItu7wVORq6oXynnmg2aBgatetofuP+krN8PTT23ohFJx/jt99+s/j2h+fYfe4Blh79HvMO38Xh4POYMXMaunXpiNGeI/Dzz0/x8uVzhJw+hoVLfTHIZxXcll7CoWvPcf/pb3jx8jf8W8/z8tffMDLgAcp2GIc0Od5ipJ8xI1Tu3FDp05tv/yfICuDNm0PduAHVpYv5GDPW1fdlFXFn56jbEyY0/iOYKxdU4sRRt78pub358xuPYYIE5mNiQlZCL1gQKlUq41MFIm+Xy+V+6td+lG2v8T4i/bt37+Ls2bM4ceJEuIsXL2LXrl2M9N+VePqLPXl9f/qpcXLLsmVQgwcbr6MYvNYl0j99+rRlNX3b5y8kJMQS7zPSJyIiIiIiIiIiIiIiIiIiIiKiOI2RPhHFNq+N9HPnxYAps1GzzzAUb/tPRfp10Nh7PRae+BdevnxpsSfsPsbtvIrpe2/of/+JWl/XRuo0qZEtWzY0a9YMx44dw8mTx3D58gXtIvz9d2PQ4CGYuOMq/K+8wHePfsEvep6fX7zECP/7KNvBG2lyFDTd/xsZNAhq7Vqozp3Nt/8T3jTSr1kTatMmqKlTjVA/8nY5IWHJEqjVq42YOfL2N6WfR3X0qPEY/t2THSS2bt8e6tw5qDp1jCA/8pjataH8/KAmToy67TXeR6QvnyIhZC6rp0+f4sCBA4z03xUJ9DNnhjpxwnhdyGtS/gwLM0J9s+uYkEhfTqj4+eef7Z6/X3/9FXfu3GGkT0REREREREREREREREREREREcRsjfSKKbT6KSL9cbTQavQYLjv2AFy9eWPifu4uhq0+j7YT18PbywvARwzFs2DCMHTsWq1evxs2bN3HjxrfYv38vZs2cgW5dOqPi5xXgvuoUdlx8hlv/+hk/63l+ev4Cw3d9h7LtRiNN9gKm+38jHh5QW7dC9expvv2f8KaRvoTCbm5QX39tHrdLxCyB/ubNMQqXX6toUf0f265QZcpAJU1qPia6JNIvVQqqTx+oAvp5NlsF/ZtvoPz9oaZPj7rtNd5HpP/kyRPL9W/o58/q1q1bCAgIYKT/LmTIAFWtGtSoUVCenlDVq0MVKmS8D+TfcnnVqsYnTZhd34ZE+mfOnLE8X7bPnxynLl26xEifiIiIiIiIiIiIiIiIiIiIiIjiNkb6RBTbRDfSr957KD5r0x0uzTu+FdkbtEL5jtGL9HOU/RoNPVdi/pG7eP78ucWu0Dvov+Qw6gycjaaNGmDtmjU4fPgwgoKCcPXqVfz0008IDg7GsqVLMEgfpJs0bIgvXCti6Irj2Hb+MW788Aw/6XmePvsJHjtuoWxbT6TJHo1V4GVFdwlnixSJICvJOzsbIbisvJ0vH9SsWVCHDkGNGxcxTqJf2W47n1xXonHb+T75BEo/9srJyYjTI+/PKl06Y4ztfI7YRvpeXvZzFS5sbLcdL3PLyvnyHzsJlEuUsI/lEyQwHg9XVyNuDwyEql/fmE9W1DcL+qNDAvocOaA+/9xYxT9vXqhEiSK2y2OYJYvxH94UKYzbLbdf9ps7t3GZ7XzJkkHlymXczlq1jOvaPg/y3MlcvXoZK6bLCQfWxyV79midIPA+In15f165cgXnzp0LJ6/13bt3M9J/F+R9J1/gnTxpvA7lfZk8OZQ+NqpKlaD27YPq3984ScXs+jYk0pfj0eXLl+2eP3mO5U9rpJ9Jj22oX6ezfH2xVL+fcjLSJyIiIiIiIiIiIiIiIiIiIiKiuICRPhHFNtGN9Kv2HIQCLTsiZ6PWb0WW+s1jEOnXQoNRyzH30B08e/bMYnvQTQxafgztJq7DlMkTcTAwMDxavn//viVqnjBhAkYMHw6fqVMxf85szJw+DRO2hWHL2Qf49t4TPNXzPH7yFMO2XUeZNiOjF+l/+SXUyJFQs2dHkBXYJVaXaD1tWqhhw6BOnYK6cwfqyJGIcbVrRw3X69SB0rfTbr4aNYwwXMJ0WV078v6sqlQxAnPb+RyxRvo3b0IdPGg/l48PVPny9uMllpcV9GW73MamTe1Dfonh5fGQ616/DnX7NtSaNcb4MWOgSpa0ny+6JIKWlf5lHm9vI4iWONq6XR7jFi2MVfZlZXO53XIbZHy/flFX85cTBiTAl+2yAvpnn0ElSRKxXZ677t2h/Pyg7t6FCgszxgr9XrA8B7bzmXgfkb6ceCLvUZnDSsbt2bOHkf67ICd+jB8PpZ83y6c6WC+X96WcDHLpknESjpzIYXs9E9aV9OX5ivz8yYkX1ki/gR7r7eqKQb6+aKCPaakZ6RMRERERERERERERERERERERUVzASJ+IYpvoRfqz0GDIKJTv0geftmiPbPVbIFO9pijYqiOKtOlsuSx3YzfkbtIaJdp3R4WuffB5t74o3akn8jZti2wNWiBvszYo3r6b5fKynXujcOtOqNpzAFoNHfH6SL9MTdQfsRSzD9zE48ePLbacvAb31ScxfOVhhIWdx4kTJ3D8+HGcPHkSp06dwunTp9GgQQMMHz4cJ/W2H+/fxaXzIZiz/wY2h9zHle8e4pGe518PH2Ho5qso3XoEUr8q0pcV8iXAlxXv3d2h9uyBOncugoS8X3xhrNAuNm2CevAA6uefoe7fjxgnIbisxi0r1EskLjG5xOxHj9rPJ1G+rFov8W/FilDXrhmh8IUL9uOGDjVC4uiuWG+N9G/dMmJ027mCgqD69DFWrZeV52W8/Cm3T+L777+HmjvXWOHeOp+s5N+6NdSBA1A//QT1/DnU1avGfAEBxskG1rExIWHy9OnGPuVEBwns5VMIrNvlP7iLFxsr98ttFnL7Zb8bNkC1aWPcTnneZLz8x3rBAqh794z7rl8XKnXqiPnkcZYgXx7fFy+g9Osi/HGZMgWqePGIsa/wPiL93377DS9fvsQLfRutHj58aNkPI/134C1H+mFhYZZjl+3zJycc3bx5MzzSn6rHHivuioGjfZFvYSAS5WCkT0REREREREREREREREREREREcQAjfSKKbaIX6U/H0m27MGvDNnQYOw2FWnSyRPq9p8/FqCUr0HmCD6r1GYKa/YdhwZZdOBh6HsfDLmPtvkOo7z4aRVp3QYNhXpi9aTuO6cu3HzsF9/nL0GvKLPT0nvj6SL90ddT3WIxZe43bKfyOXkKvubtQd6CPvr1tERISjAcPHuD8+fOYNnUqMqVPjx3bt1vu0/Vvr2L5kgUoXSQfBs73h9/p73Dp1o94oOf54ccHGLLxEkq38kDqbPlN9x++Qr6E4NOmGcGuRPZWEu5LmN+7txGGS8Tr5QW1axdU//4R4xImNLbL34sUgTp7FmrUKCMot44Rsmr9tm1QnTpFRPoeHkaobjtOQnb9/Km6dc1vd2TWSP/GDaiePe3nkm1Llhj7lf+4yXi5rbJSf6NGxokJkSN968kLuXIZcbzcFjm5QOaTVfj16yd8bEzISQyy3w4djFD+VZH+w4dQf/wBtXSpcftlv199BbV7N9T8+RH7l/nk9sjzYxbpW58z+aSA/fuN+2l9XOR2yPWtY1/hfUT6t/Rtl5NR9u3bF05WZ5f3MCP9d+AtR/ry3MnJQ7bP39GjRy2X2Ub6Pzu54mlCX/gnCkS+eIz0iYiIiIiIiIiIiIiIiIiIiIgoDmCkT0Sxzasi/fLly6NBw4bwHDfeEulPnzMXU2bOQt9xk1Ct71Bkqd8cwxf5Yvyqdegwbipq9HOHt+8ajFy4HMPnL8PwBcvhtWQ1Jq/ZhCq9B6OF53gs2LoLe0+HYsDMhag7eCQaDR2F9sO9Xh/pl6qG+u4LMMP/Mu7fv2+x4fB5DFgYgK5T1mL1iuW4cuUKws6fh//u3Vg4fz5GDB+OiRPGY9eunbh44TyCTx7F7CljMW7DSWw4cRNh1+/inp7n+7v3MHj9eZRuMRSps70iiLWufN+5sxHfjx0L5e1txPmycn6FClBNmkCVLWuMl+hbVsOXaF3CcLm+kMtlu8z12WdG5CuRfqZMEWOERPoS+HfpEhHpDxlihOW242bMMFas/+Yb+9v7KraRfteu9nPJqvnLlkH5+xv3x3oduc316hn7iRzpW7fLY7BunRH4S9hsndN6f9+EXFdWxJcTGV4V6cu2lSuN22eN6StXNk4okO22JwnINvkkA7NIX8j+5PK9e6FmzYrxfXgfkf7Tp09x7949S6xvdefOHezR95eR/jvwliN9OaHi9u3bds+fuKTnsY30f1GueBHPFwfiBcJFMdInIiIiIiIiIiIiIiIiIiIiIqI4gJE+EcU2r4r0q1atih49e2LpqtWWSN/D0xMjRnth2OSp6DjRB5+27ADPZSvhvWI1WnqNR62BHthx/BRGLV6JLhNnoNP46XCf74vtx4LwjbsnWntPwvytO7Hp4FFU7jEIRVp3RpUe/dFyyPDXR/olv8I3Q+dh+s4LlshZrAs8g0GLAzB4/nYcP3LYEukfP3YMmzZswKKFC7FgwQIMHz4Mq1atxJnQEISdCcX65UsxYdNprD36Lc5evYPv9Dy373yHQWvOoHTzwUidNZ/p/i0k+JZAvX17Y5V2WTleovYaNYyYV1aTtw2/R4yA2r7dCMxt5xHWSF/fZkukbxugC4n0ZTV4Cemtkf7gwVApU9qPk0hfgvT69e0vfxXbSF9OALDdJrdJ7o/E+J9/br9NVup/VaQvMmeGWrsWautWqEKFom5/U61bO4709+0zTpzImDEipq9UyQjt5VMBbCN92d6t26sjfSGPozyeM2dG3fYa7yPSf/HiBZ48eRL+aRJCTljZq+8vI/134C1H+ufOnbO8BmyfPznmXtPv78iR/i/KF4GKkT4REREREREREREREREREREREcURjPSJKLZ5VaRfsmRJVP3yS/TsP9AS6bcbOATdho+E19yFGL9yPar0GoQRi3wxZN4i1Hf3RN0hIxF28zZWBgRi2trNmLR6ExZuC8DxsCtoOsIbrb0nYuamrVi6KwB5mrRBtvrNUb5TTzQbNCwakf6X+GbwHPhsP2dZiVqs2ReMgQt2of9sP+zfF4Dg4CAcP34cW7dsgc+0aXBzc8OsWTMQGBiIkOBgbPPzQ+e2bTB0yR6sOnwFIZdu4pae58bNWxi0Khilmw10HOlbFSsG1bIlVI8eUH36QE2fDtWwIVT69PbjGOn/fa+L9OWTCmrXtr9OLI70Hz58iJs3b+Ly5cvhrl+/Dn9/f0b678JbjvRDQkIsx1rb5+/q1auW55mRPhERERERERERERERERERERERxWmM9IkotnlVpJ81a1Y4xY+PrLnzWiL9mn0Ho8nwMRi3ci3W7j+EXlPnYMCsBWg9ZqIl2JdQ/8b9+wgMPY+tR07C7+Bx7Dh2GsfOX7ZE+q1GT8CUdRsxZ/M2ZKrX1KJcxx7Ri/RLVEW9gTMxdWsobty4YbF6zyn0n7cdvaatwebNG3DkyGEcPXoEfn5+GDlyBAoXLoxDhw5Z7tvePXsw2nMUShQpjB4z/LA88CJOh32L63qea99ex8AVp1C6aX+kzpLXdP+WwDtBAqiCBaGyZYNKnNj49yefQK1fb4S8EofbhuRmkb7E7Hn1PiTqjWmkL0G+7KNkyQiTJ0PNmwdVubL99V/lfUb6zs5GyJwnjxE1R75OdHwIkb48ZvnyQen3g93YSN5HpH/37l3LauwnTpwId/HiRezatYuR/rsgr93evaECA6Hq1TNeA/K6kde1fILGzp1QPXsan+Rgdn0bEumfPn06yvMn4X5oaGh4pN9fjz2mXDVfLFCByMFIn4iIiIiIiIiIiIiIiIiIiIiI4gJG+kQU20Q30v+iWx/UHjQM3stX4UBoKHYcPYkuk6ajXJc+KNCyA77W205dvIh+M+ajet9hqNR9AFqPnoCdx06h/tBRaOk5HlPWbMScTTGP9LOXqIw6A6dh0paTuHbtmsWqgONwX7oL49fsx4N793Dzxg0sWbIIvXv3wIgRHpYVxiWKXrHCF330Zd5ew/Hj7evw2XEWy/afx4mzV3BVz3P56lX0W3EEJZv2RuoseUz3bwny06UzgvGpU6Hy54/Y5uQE5e5uBOr9+kVcbhbpS5Avl8kK/DGN9OU/Nv/7H9T/+38R+veHSpbMCNBtr/8q7zPSl3Hr1kFt2mRE7pGvEx0fQqTfuDHUrl1QU6bYj43kfUT6/9PP///p14Gt58+fWz4tgpH+OyInmMhJNWFhxvtSXiOTJhmvI1ldP5rvPYn0L126hJcvX9o9f7///rvlNWGN9OPpsU7KVfPVAvV1GekTEREREREREREREREREREREVEcwEifiGKbmET6VXoPRG+fOVi1dz8OhJ5B+/FTULxdN+Ru7IZyXXph0oo1mLJ2I6as2YRJq9bD23c1hs1dgs+79rWswv/GkX7xSqjTfwom+B3HlStXLA6dPoOVAUcxZd0+jFjqD/c569DZayZaDpmALt7zMGPLcYxfGYBu4xej8aApaDVqAUatOY7V+0MRGHQBZy9cwmU9z8XLl9HX9xBKNu6F1Flym+7fEuJLxN6+PZSnp7FyvoS6QlazHzMGqnNnqDJlIq5ToYIR48s261gvL6gOHaBKlTJW4e/UybhM4l/rGOs4ia7Llo2I9P39jX0PHRqhdGmohAntb6sj1khfAmOJ0W33KWT+pk0jVo2XQFn+7ednXEeC+WnTjFX8beeVEwVkpfGRIyMeG7lP8m8J4mW/tuNfR6J/uf8Sxz98CLV/v3F/5ZMMZHtMI305SUCeH7n8p5+gtmyB6tHD+FQD2+u6uEC5uRmPg/Ux8faGGjIEqmpV+7GRvI9I/8mTJ7hz547l/Wp1Sz8vAQEBjPTfFXkNpUhhvG/ldSGvBzkBR074kPew2XVMSKQvK+bLp4DYPn9yMpF8GoI10pexuXK5okkTX3TuHIj06RnpExERERERERERERERERERERFRHMBIn4him5hE+mU790LDYV4YscgXy/z3oP4wT3zasj2yNWiBgq06oKnHaHgtXYlZftswe/M2eC5ZjtoDPVCoVUfU6DcUg2YvxPAFS2Me6Rf7AnX6TcaEDUctQas4FxaGQ6dCsHjbQbSesA5tRi9Ec48ZaDRkKpq4z0Ab72Wo03cSGg6ZCbexK9F++ja0nXMA/sfO6OtewAU9hzh/4QL6Lj2Ako16vjrSFxLqS7wuMfS8efo/BBsj9OxprIyfKlXEeFmpvXx54z8Q1nGyMr6E5jLO2RkqWzYj9pUV7G3n04+/JSzPlCki0p840diHhLxWMo+s5C0hsfxdVvaWcN/Mp58a+6teHWrbNmNlfNt9rlkD1ayZsc/EiY37ICcmSMwusfzRo1CBgVArVkB98UXE/RSyf1npXkL9OXOM+RYtMgL9jBmhkiaFypIFqlgx89sm5P5YTziQVfgHDzZOTDhxwjihQE6GsJ4cILdx+HAoHx/j8bG9LSVKQM2ebYTU8pzJZfK4yAkDcp9PnTLuj1y/cGH768rtlP+Yt2kT8bjIJx1UqWJ8koLt2EjeR6T/4MEDy6dInD9/Ppz8218/Toz03xF5f8knach7x3qSjnzCg6yuL+9hs+uYkEg/ODjYcoKR7fMnq+vLn7aRfunSrpg82RerVwciVy5G+kREREREREREREREREREREREFAcw0iei2CYmkX5ht44o2b47avR3h5v3BJTq2AM5G7VC5m+aWf4s1qYLvnEfhdbek9Bm7CTU13+XQD9nw5b4rG0XVO83FLUGDHuzSL/PRIxfdxhhYWEWFy+E4czZc/A/fAqTVvnDZ9V2DJk0Hy17D0ctt56o3rIHKtRthTYDxmDcki2Yu+04Jm86ihPBZ3HxrznOa2fPn0ffxftQslEPx5G+lQTfsrq8rMxuJSvep0wZdayE3RKRW8fJCvoSgtuOkcsk+rWdr3hxYxX75MkjIn2J1s32ISSmL1IEauxYI443I/+hknklBJbV9G33J2SlcAn5beeVaL5yZftxErDLCQS246xy5YJq0sQY16JFxEr1cgJB3bpGaG9224Rcx3qSQ9q0xskEtvuV4F/ifdkuj4urK1SNGkYsbd2/kFX4a9UyTiSQwFouk5MrZMV92/lq1jROHLC9rpAgWx5L67hq1YyTAiKPi+R9RPrPnz+3vE/v3bsX7u7du9i7dy8j/fdBTjKR16W8Psy2OyCR/tmzZy3PV+TnT8J920jfVb+2fX19ERgYCBf5dIdIcxEREREREREREREREREREREREcU6jPSJKLaJSaSfp4lbeGD/NkQ/0q+I2r3GY9zqQEvoakZW19+4YQPcBw9G/Tp1UK5USTRtVB9TJo7Hnj17LKtVR77OGS3kzBn0WRCAkg26IXXmXKb7/8dEN9JPlgzq88+hNm+GCg42N3eucTKB2fXftfTpjeB9927z2ybkBIPXrFb/IXsfkb745Zdf8PPPP4d7+PChZT+M9D9sEunLiUGPHj2ye/6ePn2KGzduMNInIiIiIiIiIiIiIiIiIiIiIqK4jZE+EcU2H0WkX7QCavcYg7Er9iAkJOSVJMQ/eDAQY8d4IX3q5PDbtAFhYUacbzZeBAUHo/fc7Sj5TSekzvyBHcijG+nTP+59RPoScx87dgwBAQHhQkNDIe9hRvofNon0T5w4gZMnT9o9f4cPH8apU6cY6RMRERERERERERERERERERERUdzGSJ+IYpvXRfrZcufGoEnT0H7UWDQbNgqNho54a9p5jkU3r7GvjfQ/KVAOru1HYMjCHQgJCUJQkDmJ7iViXrd2LQb274t9e/daLgsODjYdL04HnUaryRvhUqMtkmfIbrr/f4yzM1SWLFDt20OVLm3822wc/ePeR6T/7NkzyxyRx8knRTDS/7BJpH/mzJkoz524fPlyeKRfT4/1cnXFEF9fNAkMRBpG+kREREREREREREREREREREREFBcw0iei2MYs0h84cCBKly6NnPrAVqpsOQybMBlDJ03FkMnT7HQaNgJu/QaiRe9+b8St7wA0794TlWvXNb9xf0mZvSAK1W6PViPnYv3uQPj5H8SWABN7DultgVjltxOzFq/Ehh17LZdZRBrrp23UY9fuPICqPSciU6maSJQ6g+n+/zFOTlCJEhmhvqyiL/82G0f/uPcR6b948QKPHz/GgwcPwt2/fx979+5lpP+Bk0j/3LlzlufL9vmTY+61a9fCI/3heuz6YsXQxtMTGVetQsJ69aAqVCAiIiIiIiIiIiIiIiIiIiIiIordPtdWZYHakdg+0p81C6phQ/PrEBF9iEqUME4uMov0Z86caVlNv1GjRmjdpi1GjRuP0RMnY8zkKfCeMjVcw5atUKHqlyhR4fM3Urx8BRQpVQY58jleLdo5ZXp8UqAMSjXojG5T18F9zkaMnL/plUbM2wiPuRswwmSblce8TRg4az26TlmDPF80QLJMeRA/cTLT/RO9zvuI9B8+fIgbN27g0qVL4a5fvw5/f39G+h84ifTlUz0kyLd9/q5cuYKwsLDwSH+qHrsnY0Y0q1YN8fv3R7zZs6EWLyYiIiIiIiIiIiIiIiIiIiIiIordlmjnakEd+ASqczyosmWh/vMfqJMnodatM78OEdGHaOJEqKZNzSN9Pz8/+Pj4wNvb2yFZbT9FihSmUerbJgF9ypxFkafBIJRzc0eldh6o1N5eZa1qBw981XE4anYdpf8+HFXksr8uF/Jv4dp2GEq2GIq89QcgSeqMiO8UDwnia/rPeHp/Ir6WIJ5B/u70178T6jHx5aNV9L+JxPuI9GUVdgm6T58+HU5C7127djHS/8BJpC/PV+Tn78yZMxa2kf4JbVjSpChSqhSSrF8Pdfw4ERERERERERERERERERERERFRHOAGtSQL1DfxoAoVMtlORPQR8POD6tXr44n0oyOBliy+EzIkT4RPs6RBKucESBpPX6Ylj6+QMqFCYv13Zz0unP53IieFFIkTIE2yREiZOCES6ctFMn15ygSG5PrvSfVlaZ2dkD5JAqTQf5rdBoqb3kek/7///Q+R//f8+XMEBgYy0v/ASaQvJ1S8fPnyr2fO+N8ff/xheU3YRvq//CVQc9HM5iMiIiIi+v/t3Wd8FVXCx/GTRhIIHUE6IgGkShUlClLUVRCpoQpSBKSGXkIx9Lr0poTeEVQ6BCRAIIQqUiygYlld9dFF10XX1f8zJ8OVhFxDcHFB8nvx/dxk5syZyeTevPrNCQAAAAAAAAAAAAAAuI3dSZG+Xe0+2NdH2QL9lTdbsIL9fRNj+6DE7UaZ/H0Sg/wAn6ur43tWyw/081VQgJ+C/PwU4GyzAp3tQc54K/FrZ1smPx9nHmde59XbNSB9+l9E+p9//rnOnz+vM2fO/Ordd9/V1q1bifRvczbST0hI0DvvvJPs93fu3LnE3zORPgAAAAAAAAAAAAAAAAAAwB3EW6S/YMEC9enTRx06dEhViRIllDFjRu8T3wK+xkcBPr4KDvBT1uAAZfD1lb+P3eajDA4b4gc4/J3tvs44nyt8/fzl5+cnP18/+TtfB/g7xwZkUAb7tbPf35nXzhPkbA9ytnnm9XYNSJ/+F5G+/XzaqPvkyZO/st9v2bKFSP82ZyP9w4cPJ4b5SX9/dnX9EydO/Brpv+CMPZTF6P1Qo5iyRqHB3ucDAAAAAAAAAAAAAAAAAADAbcxbpD9s2DDVqVNH5cuXT1XOnDkVEBDgfeJbwMf4yNfHDe0z+PvL19fh42EjfOfVL0MiH9+ARMZ+nyGjfPyD5eMXKL+AYGUIzqxMmbMpKCiTc4wzzrhzZMyUWYGBGeXn52wj0kcS/4tI/5tvvklcTd/O43Hx4kVt27aNSP82ZyP948eP66OPPkr2+/v444919uzZXyP9is7YyFBfbW/nr219A1QsD39nAAAAAAAAAAAAAAAAAAAA/nS8Rfrt27dX/vz5vR9wO/Pxc9jwPkjG1+EX7L5aPoEO59U/k0xAiPPqkVG+QdnlG5DFESK/wCzKEJJLIdnzKChjNvk6++1xPs4cGbPkUmCIMzbQ2ebn7/0akC79LyL9H3/8UT/88IMuX778qy+//DLxPET6tzcb6Z86dUpff/11st/fpUuXdOHChV8jfTu2bNmsGjCgpCZPvl8FCtw+/6kEAAAAAAAAAAAAAAAAAAAAaXRnRfo20LcRfjaZoJwy/lmd77Ncw9kXmEsmYx6Z4Nzu915de5zDmdMn893yzZxbvkGZvV8D0qX/RaRvA287x7XjWEn/9mcj/aNHj6b43VmnT59OFukbE+aIdsQ4Qq9sAwAAAAAAAAAAAAAAAAAAwJ/GHRXp+wbKBGSXb0gB+ecuIZ+gvPLJmE++WQvLN0dR+WS/RybD3fIJKSjf7EXlm6WwjH/uRD7B+eWTpYh8shaRyVTAGZdHxjnWZHa+DnZe/XMlbkucM+gu+djV+L1dA9IlIn2khkgfAAAAAAAAAAAAAAAAAADgd/JxtHZMcMy7Yq7jQUcWh7djbrU7KtL3yyj/kPzKXLCCCj9QT3cXr66CZR9V0QeeUujDDVWsegMVKVdL91Soq3uqPql7Kj2ue0rXUNEyj6pY5ScU+uDTKvZgvcTtRco5x9nXKk+oQNlauqtIZWXIXly+mQrJJzCPcy4ifVxFpI/UEOkDAAAAAAAAAAAAAAAAAAD8TjbSn+jY49jtK7Mtp8wnNWWa3S1zV4D3Y261mxXp+/j6KiBDhj+Mf0CA/Pz9vZ7bwzcwm0LuLq17qzXQU12Gq3aLXqrXcYha9J2gdkOnqe3gqWreM0rNur+opj1HqZnzdQvn69bO1237T1Q7Z/+zAyerRcRYNe/xolr1HafmfcapfqdIVX+ms3KWrKGAnKUSV903vpm9XgPSJyJ9pCatkX6AMzbYPOSYp0CzRb6mmNf5AAAAAAAAAAAAAAAAAAAA0g0b6S9w7HLMyyAz/n6Zn1fItKshkyer92NutZsR6dtAP2NIZhW7r/Qfpkjx4sqdN5/X83tkyllQ91b9i+o/P1wTVu9Q1OLXNHXdbi3ccUQrYt/U8jdOKHpHvGa/ul/T1+/V7I2xWuR8v3TnES2LOaHFu046Y49rwdbDWrgtXktijjrfJ2jKmj3qO321KjXqqpwlayoga1EZvyxerwHpE5E+UpPWSL+4M7a2Ke3oq8pmvDKZP+F/NAEAAAAAAAAAAAAAAAAAALiZPJH+Ckf7jDJ/+YvMzz/LtGsnkyeP92NutZsR6WfIkEGhpUsras6CP8yA8ZPUoFXqIXKJSg+r3aCJWhhzTO//In0i6bMr/uaw3//dcear73Xow6914rNv9YXz/ZeOC//8Wae+/I9OfPGzzvxD+vQ/0ufO9o+d13Pf/aK4T3/QyMXb9HCjbsqerzyRPpIh0kdq0hrpT3LGfntFjCPU4W0+AAAAAAAAAAAAAAAAAACAdCO9RvoBGTKo6H2lNGj6bLUeNloN+kXqqd6Db4o63fqo2aBh6jBkuOq3bO31/B5lqj2qziOna2nsW3r7svTRz9I73/2gwx/9n7a/+b5W7j2qM19+r41xpzRl+WYt2rJfH/7zZ336o7T3zAfO9wc1/9V9WrfvlN759l+66Gw//y/p7e9/0alL/9ZLO0/o6fZDdVfhSnd2pB8SIvPIIzJRUTLVq3sfk15UrizTu7dMs2be919BpJ8OPPmkTPfuMnXret+fCiJ9AAAAAAAAAAAAAAAAAACA3yk9R/pFSpZS36kz9WTEYFXt0EP3t33hpijerJ0e7dpbLfsNVr0Wrbye36PcQ7XVbdQsLd9/Rme/kz78STr04edad+CUFm+P16rdCVq2JVb9x8xQm56RGjEtWuc++85xSbuOntXCjbs0KXq9xi5Yo4PnP9GZ/7usM9/8pHOXftbZb3/Skj2n1PD54cpdtKpMQDav13DD7r1X5v77ZfLl877/VsiRQ6aVc6/feEMmPNz7GG9y55apVEmmWDGZwMCU+zM6H4py5WTKlpUJCkq5/3ZUr57zgV4hM2KE9/1XEOnfoXx83Pfygw/KRETIjB3rhvphYe7DLN6O8YJIHwAAAAAAAAAAAAAAAAAA4HdK75F+xKQZqtNjgMo921UlW3S6KQo+01LVO3VXeJ+B1430yz9US91HzdTKfad17lvpg8vS5iNn9NeVmzRj5WbtffNtvdB/pB55vLFqPtlUfSLH6eT5zxR/+oL2HjutDbv2a+rCFeo0IEobY4/o8Ptf6M3P/6WzX/9HZ775t17amqD6HQbrrnsfkAnM7vUabpiN4AcNkqlZ0/v+WyFXLpmOHWVOnXLfvN7GeFOxosyAATKNG8tk93J/7r5bpk8fN3a257h2/+2oSROZLVtkJk/2vv8KIv07kK+v+2BJgQIyY8bIREa6gf6QITKTJskULy7j/O1LHOft+CRuJNL/xs9PXwQFaVNwsO5Nw9wAAAAAAAAAAAAAAAAAAAB3tHQf6U+coTrdB6hcm1sT6d//4KPqETVNq2Pf1Hv/lD74l7Rmd7wGT56vwRNmat22HWr1XBc9Ua+JWrfrrMnT5urUOx8q4c23tTvusJat26ghoyfoscatNW/la4p984Le+tslvfeP/+jtr3/UnA2xevLZPsp1b2WZwJu0kn5UlMymTTcWw//Rfm+kb1cbtzGzDcZz5ky53/7XgLVrZdaskSlUKOX+2xGRfvqVObNM6dLugzTO79G0bStTrZrzx729zMqVMm3ayJQoIRMc7P34JG4k0v8wRw7tL19eo51z5cuUyet8AAAAAAAAAAAAAAAAAAAA6QaR/i2O9KvVUK+RU7Ru7wld/Jf0yQ/Sprjj6hM1VQ/UeUZ+mXNr1/7DunT5J/3r3z/pu+8v64sv/08//PiTZs9boAeq11CufIVVvGwlTZz5kuJOntUnl77TN7/8or//8G8t3xanhm17K3fB0jK+zi/YyzXcsDsp0r8eIn0i/T8TG+jbh06ce27Klr26PTBQ5p57ZN56S2b0aJmCBZMf58WNRPpbw8LUJDpaJiZGJjTU63wAAAAAAAAAAAAAAAAAAADpBpH+DD3yfG+FNmurQg1b3RT5ng7XQx27pSnSL1Wxmjr0e1GLtxzQB99KH333i17be0Sjpr2swWOmat7iVYqNO6wTb57S2XPn9PFHF/XdpW80cnikBg4coClTpmju/Jc076VFil6xXlv3HlLCuQs6dfFznXj/c81ZvVVPhXdWrnwlrx/pP/20zLRpMsuWXdWokUz27DLO/UqM1MeNc0N4GwEfPHh1XP36MteuoN2ihfPmWpB8vscfd+fK6FxLuXIykyYl3+9Rq5bz5vRJPl9qPJH+e+8lvy5r7lyZ6tWTj8+WTaZrV3f/zJkyzZrJ5MiRfH/DhjI2PP7wQxnnPWZeecUdP2GCTJUqyedLq2LFZPr2TX59Q4e698Luz51bpls3mR493Mja3gfPuH79ZEqVSj5fxYru8Unn27fPvQ9E+unPLYj0Kzpju4SFaZTzWRkUE6O7ifQBAAAAAAAAAAAAAAAAAEB6R6Q/Xc2HRqlWt74q27qTCjVsqbxPN1Pl9i/ogU7dVf7Z51U8vJ1KNG+nms6Yp/oO1VP9hqpW9366r2UHFW7UUqVbd9Aj3fokbn+s90BVat9VT/QaoNYDhl430i9T+SF1HjhGy7bF68I/pA8v/aINu+M16q8LNGrqbG3atVeHDh/RsePHdTQhQfv3vqHXN76irh3ba8qk8dqxfau2b9+hWXPmKXr5Gm3ZE6f40+d17PzfdPidTzV9+et6omlH5cpbwnuk7+srExwsExbmRuDz5sksWXJV//4ytWu7K8rbsNcT6X/8sUxc3NVx9erJhITI+Pu7Uf/DD8sMHiyzcGHy+Xr3doN5G6vbeePjZWJj3bg86TgbqVet6sb3116zN0kj/aTXZb30khvkV6okkzmzO94T6W/f7l5DZKRM3rxX5/MW6a9f7843frxM5cpXx6aFvcdlysiEh7vHJ70+G9M779/EqLpIEffBho0b3XvfvfvVcfY4G7bbUN8+5GCvwX5Q7fFJ57P3k0g/fboFkX4mZ+xjzt+Pec5n5ZWYGBUl0gcAAAAAAAAAAAAAAAAAAOndnRTpFypUSMHBwQqxsbgz0H6dMWNGZbArt18ziRvp36eIiX/ViPnR6jF5pv4SMUQlwtvp7vpN1XLEWD03ZpLq9Ruqap16JAb6fabP07jFqzRu6Sr1m7VAj/UelBjv1+nZX31mzNPUVesVOX+RmgyNUotho9R+6IjrRvr3V6uhXiOmau2eE3rv65/1wT9+1rpdBxU5Yab6DR+jOS8v0dETJ/Xuu+/o8KGDWrzwJbV/to1GDBmoLa9t0NGEeK1ft04dOjyvOS8t0s4DCTpx/lOd/vhrHTn/d01fsUlPNO302yvp26jeBu6jRsm8+KJM584ybdvKtGkj07ixzMCBLruie5Ysbli/Zo3MkSMyM2bIPPOMq3hxd4X8oCCZks657Or0doX3pk2vjrFsQGzPU7eu+2Z79103om/SJPk4G6SPHClTvnzKa/bGE+mfPZv8uiwbxttg3T40YCN4O95ep43c7UMHCQnua9KHPDw/h/0g2Oj/wAGZTp3c+ew9yJfv6ti0uOsumRdekPnrX2UGDHDvsYddWX/+fHcFffvwwurVbky9Y4fMiBFXfw673/5s9jrsAwX2wQJ73V26XB1jTZzoPnhApJ/+3IJI344NCwtTdHS0YmJiFEqkDwAAAAAAAAAAAAAAAAAA0rs7KdIvW7asKlSooEceeSRxYPny5VWlShUV9BKkupF+SUVMnKrZazZo4tI16jR2qh7s1FP5GoRr2EuLNWrxisRQ/y8Rg9VjyixNWrpWc9dv0ryNWzR19Qb1m/WyqnTsppYjx+rl17dp15HjmrR8nVqNHK82I8aqQ+SL1430Kzz4qHqN/KtW7jqmk598r3e/+knrdydo+OS56jlopEaMmagzb7+r8xfOa0/MLk2bMllNGzfUtEnjdWDvbp04dlSrV61Sy5ZtNHP+Qu2OP64zH32lc5/9Uwnnv9CUpa+pbtPnlbNAaRl/9+GFZGyknzu3G4/beL51a5kGDdyI3kb5zZq5cbv93nNMVJTMpk3umyTpXJZ9QMKulH/unLsyv50j6X57nm3b3BXhPZG+XTX/2gcp5s6V2bkz+XlT44n07Sr/115XzpwyS5faN07K6N+ulr97d8pI38P+B4G1a90HEwoVSrk/rQoXdlfIt7G/jaTteT1sbH/8uPuwgg2cbaTvvL/N/v3uQxOeOez9siv/z5rlxvxbtrgr59eokfxc9oEHu49IP/0h0gcAAAAAAAAAAAAAAAAAALj17qRIv0mTJlqwYIFiY2MTB86aNUsrV65Uq1YpQ/mkkf6A6fM0cPbLipgxTy1fHKsCDVto8qq1mrB8tVqOHKP6AyK1M+G4WkSOUcVnu6rSc93VOmqS9hw/pXrOvvbjJuulTVu1ZNsuVWjTVYUbtVL1Tt0V3mfgdSP9YmWrqkmXwRq9cJNeP/KBTnx6WVsPv6P5a7Zq9tJXtHH7G/r486+0Y1eM5s6Zqw3r1+unf19Wl07tNW50lOIPHdTHn3yqCxc/0epXt2nrvqM68t5nOnz+S207ekFDZqxQ9Wc6Klvh+2UCs3u9hl/Zle8vXpS5fNmNxMuU8T6OSP/GeSL9L76QkbxLGunbc9apk3wOIn1cD5E+AAAAAAAAAAAAAAAAAADArXcnRfrlypVT5cqVVatWrcSBFStWVLVq1VTYBtLXTJI00g8f8qI6jpuiEQuXaszSVarTc6CGv7RYvafPUf0BQ9U0MkpvXfhAq3a+oVnrNiVaum23Dpw8o6cHDNezoydo+vqNmvnKqyrSuLXyNwjXQx27pSnSv7d8NTXrMUJT17+ho1/8U8c+u6zF2xIUOW2xIifP17KNOxRzIEH7449qy/admj5jppq3CNecOXO0NzZW++IOav7CRXqmSQvNWLhCmw+cVNy5v+nwB5e0//w3GvnyJj3cuJuyF6okkyGH12v4ValSMvXry7RoIdOhgxuNN20qk+Oa44j0b1zSlfTHj5cJD0+pShX3fET6+L1uUaSfK1eYqlSJVs2aMcqcmUgfAAAAAAAAAAAAAAAAAACkc3dSpG9j/EyZMinLlTA8Y8aMCgkJUYZrA3BH0kj/sR791Hz4aI1ZulKLt+5Ur6lzEgP9cGdbze591GxYlM68/4FW7dqrWete18y1r2nx5p3ae+xN1esfqdZR4zRl9XpNWbVO+Z4OV976TdMc6Zeo9LBa9Z+gaa/H6+Dn32v/h99r7msHNWDKYg2fvlivxR7VttjDem37G1q8cq1Gj5+oZ9s/p72x+xS7P07RS1ZooHN9jVo8pznLNmhT3Fvac/pTHbhwSbHvf6dhL29VWOMeylawkkyAl0jf11fGuU+Joff998vkzSuTO7dMiRJuTD5woMxjjyUP1L1F+s69NFWrusfdaKQ/b54by9erd9WECTKjRrnXlPT43/K/jPTtgwiVK8tUqODGz9ce440n0rfxvA3y7YMPHnblcXsvHnyQSB//HfsebdtWZtUq9zN2330yd98tU66cTMuWMosXy7Ru7X5evB2fRFoj/VLO2Hr+YWqcKVqPZY5RFj8ifQAAAAAAAAAAAAAAAAAAkM7dSZF+fm+R9W9IGuk/3LmHGgwcplFLlmvD3v2at2GzOo2fqke791Wl57qo4aDhijt1SpNWrFPfGQsUMW2uRkUv16uxcXo8YpBajRynySvXOfvX6u76TROlNdIvVa222g6dqambjmvz219rxzvfau6mIxo+d70mLn5Ne05e0LYDJzT95eUaNHKsho+doOXr1uncu+e1YvV6RQyIVLc+QzRx9mKt2LJfrx86px2nPlXMO99o13vfauCCLarWsIey5f+NSN/f3w127eraNt61kbj93q60bQP2ESNkhgxJHoIPHuxG5DaK94TmbdrI9O3rhuUPPCATHy8zYIAbDScN0qdMkXGu3zRvfjXSt2OXLXMDYo9evdxoPQ0xcSJPpG9XCu/WLfk57WrfCxc6b/IVMmXKuOPtwwk2trfXvW+f+/CADZqvfaDDrj4eHe1enz3WzmfH2Z+1SxeZbNmSj/8t9n7ac9jYv1Gj5NdnV9C399R5D6c50rc/kx1n/9vBE08kn89+eHfsINJPjzJndlfTt/8BY8YMN9S3n93nnpOZM8cN9e2DNEFB3o9PIq2R/nPO2DUmzBGt0SZG+QyRPgAAAAAAAAAAAAAAAAAASOeI9KfqwY4v6LHeAzRo7stavydW2+MT1CpqvMq3fV7Fw9uqbs9+it60RcMWLFGvaXPVY+os9Z81X1NWrFNY195qMXyMJjtfT1p+45H+fdXqqPXQWRq78bhWHP27Np/7Tsti39O09fs0bfUuLd9xSC+v36HekWPVsmMPDXauK/7N09p78LCixk1Wi3Zd1KVPpJa/vlebD57V5qPva/OJT7Tt7Ffacf5b9Zu/VVUb9FTWfFVk/HOkvAYb6d91l8ykSTIvvuj+4u1K7x420h8+XKZWravHNGvmrrLfv//VcXZ1/WHDZGrXdiPgqVNlIiNlWjk/f9L5xoy5Os4T6R875kbpNjr3qFvXeXP6JL/W1Hgi/bNn3Rg56TltiG9/Pnu9dkV7O95GytWquSH76dMyr77qBs02pk86r/0Q9O7tjvPcmw4d3J+vZ0+Z7NmTj/8t9vqef969b/YBhKTXZx8qmD5dpnPntEf6dnV0+18O7P20xyedz17b4cNE+umVn5/7sIZ9z9vPZUSE+9meOTPl+zsVaY30JzljvzVhjmjFmBiFEukDAAAAAAAAAAAAAAAAAID0jkjfjfQfer6n2rw4QdNWb9C+U6fUNDJKoeFtVaBBuEq3bK+G/Ydp1a49ij93TnGnz2jRlm2q26N/YsTfdGjU7470C5Z9SE90HaWBS/Zp7VvfaffFnxX70U/acPQTjViwUZWebK0ajdqq0XPd1L7nQPUYMFy9B49Ug+Zt1a5bH0UMH6uuA6PUoF0vbTv6vmLOfqFXj32kree+UNzff9TARTF6oGEfZc3/gIz/dValHzpU5uJFGekqG/fmy5dybNWqMosWXR1nV4K3YXDSMTYSvnQp+Xw2eM/ovNGyZr0a6ffokXIF+xvlifQ//DD5+ayvvnJD/aTj8+Z1V9ZPOs7+7DZyTzrOwz6Y4Lk39kEAuxq+t3HXY/87wJYtyc8bGyvz+OPufrtyf1oifc+2Bg1k9u5NPp9l7zuRPuyDHM7vOPHBEG/7U0GkDwAAAAAAAAAAAAAAAAAA8DsR6buRfsnm7VT+2ef1yAsRenrQMJVu3VEFGrZQ3vpNVdB5LdWyvR7rPVDPDB7u7B+u2j37q4SN+J19duzDXSMcvW840i9coabq95qg0Svf0P6T7yr+9AUlnD6vA8fPaMvuOC1cvlYr123U6HET1e65TmrQoJGeeaaRateuoz79+2vx8pXauHm7Vqx7VQePn1b8ybedY08r7s1zinvrPfWav0MVnu6izHmKyfheJ4R37od54gmZhg2vuu8+d9X5a8faFeQrVbo6zq6eHxCQfEzZsjL16yefz64Ub1f6TmukHxIiU726zNy5Mhs2eGdX7C9XTqZIETd2T3o+66mnZAoVSj6v/ZmqVEk+zh5boEDycR52u2duG897HlzImdP9sERHe782y664bx9M8Ix/6KHk5334YZncud39mTK512UfgvBs87AfSHsvype/us0+bGCPTzqfZe+7vf9Jj78GkX46ULy4+x8jijmff2/7U0GkDwAAAAAAAAAAAAAAAAAA8DsR6buRftHGrVTgmeYq3LilijZtk/h13qebJQb39jV/g3Dd44yx+6wiztd2m92XeFyjloluONKvWFMNIiZq/MoYHTl2QkePn3SccL4+rviEIzoQd1CHDydo9arVihwyRM0aN9YDlSqpQ7u2mj1rpnbs3KF4Z3/cwUOJxxx15rCvCY4DCcfVfc5Wla/XXpnvsvG5T4rzJ2PD9SxZ3IDew27z9U051ob2nhXxrcBA5810zfze5vPE+PbrtET6Nlq3wfrEie7K/d5ERMiEhrpzZM6c/HyWvYZr57c/U9Lrt+yx1z5o4GG3e+ZOOs4+rNC8ucz06d6vzbIr/AcHu+P9/d2fKel57fd2u93vuS7Ls83Dc6xnLsteh32QIel8lv2ZvT1ckQSRfjpgP5f2vWRfve1PxY1E+h/kDNPeitEaGRajfCFE+gAAAAAAAAAAAAAAAAAAIJ0j0p+qGl16qmTztonh/c1Ss0svteg36LqRfqEKNVS/1ziNXb5dR44c8erYsWPa+8YbWrJ4kXr37K4KZUtrxrSp2r5tqw4ejPN6zOGEI9p38LC6zHxdZZ98ViG5rqz8fruwEXnt2jLx8W7E/luRvo3Q7WrxNWq4q/x7Y1f0z5bN+/F/NBvC2/9AUKuW92uz7Ir21wb3twEifaQmrZH+SGfs7tJhGhcRrTrjYpQlP5E+AAAAAAAAAAAAAAAAAABI59J1pF+ipPqOn6xG/YaodrcIPdKl503TeMBQtRs87LqRfr5yD6tu1yiNiN6shIR4HT4cr/j4lGwsu2f3bs2aNUNNGjZIDPRtvJ+QkJBibOIcjr1xB9V28nqVeKyVMubM6/X8t4xd3btcOZlJk2Tq1r0tI/Y7HZE+UpPWSL+FM3ZiWJh6RUerTkyMstj/anHNXAAAAAAAAAAAAAAAAAAAAOlKeo707yleUv3HTtSwabP04uz5ipqz4KYZ6czXZ8yE60b62Us+qCrPRipi9itKSDioQ4cO6uBB7+Li4rRv3z7t2bNHBw4c8DrGSpzjUJz27N+vJ4cvVd6wpgrMdpv+MnHLEOkjNWmN9O3YsLAwRUdHKyYmRqFE+gAAAAAAAAAAAAAAAAAAIL27UyL92bNnq1u3bmrVqlWqihUrpuDgYPn4+ipjSIjuLXmfipcuqxJlyt1UxR1FS9ynPNd5cCAgJLtyFquo8vWfU6uxy9Vz2hr1m7nWq77WjDWKmLbaefU+xuo9fY2en7hCzYa/rAKV6ygwRz75BgR6PT/SLyJ9pOaGIv0cORRdrZpiOndW6PLlMps2AQAAAAAAAAAAAAAAAAAApF+bHRcfl9mW42qkL8mcPCmzc6f3Y26VhQuda2zvPdJftWqVxo4dpyFDIlPVsWMFtWgRoqZNjZqF+6plq0C1ah30h7Bzt2jhn3iu39Is3E8tn8uuzoMraMji5zV5TTdNW9/9OlIfM2VtN41Z3lmDFrTVs53zqVlz5xqa+Xg9P+5sTzxhlCuXkb9/ygibSB+puaFIP08eRdepo5iICIXOni0THQ0AAAAAAAAAAAAAAAAAAJCOLZRZUUNmeFaZWhlk7r9fZu1amWXLZBYt8jL+Fpo4USY83Hukv2bNOk2cOEXDh0elatmyytqyJbN27TK3jZg9Adp7KLsOnSupE++V0snz/x07x9F37tPBM6HavTfI6zmRPkRHG5UpYxQcnDLCJtJHam4o0i9TRtEDByrm5ZcV2rSpTJ06AAAAAAAAAAAAAAAAAAAA6Vx+mUqBMvl8ZXLm9LL/NhEWJlO8uPdIf/XqdZowYYqGDYtK1ZEjlfXtt5ntPwsA7nhvv20UFmYUEpIywibSR2puKNJ3/jhHR0crJiZGoaGhKeYCAAAAAAAAAAAAAAAAAADAbY5IH0gbIn38XkT6AAAAAAAAAAAAAAAAAAAA6Yi3SP/8+QF6772HHMVSdelSFv3nP35eg2bgTkOkj98rrZF+J2fsrLAwdYmOVuWYGGUi0gcAAAAAAAAAAAAAAAAAAPjz8Rbpx8R00urVhbVkSUCqli/31cqVBkgXpkwxKlHCKCgo5QeJSB+pSWukP9YZ+1pYmMKjoxUYEyNfIn0AAAAAAAAAAAAAAAAAAIA/H2+R/tix7dW4cX7VrGkAXFG1qlHWrEZ+fik/SET6SE1aI/1JztitYVXVJHqqTMwamdB7vM4HAAAAAAAAAAAAAAAAAACA25i3SL99+/bKnz+/9wMApECkj9TcWKRfTE2ind9nTG+Z0Nxe5wMAAAAAAAAAAAAAAAAAAMBtjEgf+O8R6SM1NxbpGzWJdo6LcYQmnwcAAAAAAAAAAAAAAAAAAAB/AkT6wH+PSB+pIdIHAAAAAAAAAAAAAAAAAABIR26rSL+mo7mjTRIFHP6OYEexK9t+y0OOuxze5gb+QET6SE1aI/3mztgJYUY9o43qxhhlIdIHAAAAAAAAAAAAAAAAAAD487nlkb6vI6OjoGOow64gvTKJuo68jjyOR69s82aXY4ijrMPbeYA/EJE+UpPWSP8eZ2yjKoEaMjmHhqy6S3nv8fc6HwAAAAAAAAAAAAAAAAAAAG5jtzzSD3IUd3R3jHNMd8xMYqDjL45SDrtSftJ9SX3iWOSo7vB2HuAPRKSP1KQ10rdjixbNp5Yta6t792eUO3e2FHMBAAAAAAAAAAAAAAAAAADgdmb0//tA36uFdU6OAAAAAElFTkSuQmCC;" parent="bF-xHmNJlWQCe_c8ArNR-1" vertex="1">
                    <mxGeometry x="80" y="225.5" width="1720" height="103.8" as="geometry"/>
                </mxCell>
                <mxCell id="bF-xHmNJlWQCe_c8ArNR-3" value="" style="shape=image;verticalLabelPosition=bottom;labelBackgroundColor=#ffffff;verticalAlign=top;aspect=fixed;imageAspect=0;image=data:image/png,iVBORw0KGgoAAAANSUhEUgAAC+UAAACfCAYAAAAlUZn1AAAAAXNSR0IArs4c6QAAAARnQU1BAACxjwv8YQUAAAAJcEhZcwAAEnQAABJ0Ad5mH3gAAJtWSURBVHhe7N0FeBRX//bxkxCCuzsULdCWtrRoqVBKi7u7u7sGd3f34BICCYHgEhIIBIcQKNLiUqAt7fM87/9+57enQzZhshCsIXtfvT5XyM7ZmdmZ3W0C3zmrfv31V/z8889o1qwZMmXKBKWUYx8byhgqWPjR8IXB6n72UhqqG34z1DJkNiSzs8Ew3VDF8IPB29Dd8L3hA4P92IQGN4PVdojeourVq2Pjxo22149p+/btWLJkCfbs2YP//Oc/+OWXX3DlypUIYxw5ceIE1q1bhzlz5uCPP/7AgwcPbOuIPM7X1xeNGjWy3C+KGbp3746jR48+d+7E6dOnsWbNGnzwwQe2sSVLlsTChQvh7++P3LlzP7cuIiIiIiIiIiIiIiIiopiiTx+FjRsVOne2Xk5ERERERETklKId5b8JSQylDJsNHQ0S6Fe0M8PQ1VDW0MIg/w00RB4nPjVI5G+1HaK3iFE+OcIon4iIiIiIiIiIiIiIiGIjRvlEREREREREFv6VKD+OIbEhp2Gp4aQhzE49Q3ZDDoMZ5f9quGSwHyfGGT43WG2H6C1ilE+OMMonIiIiIiIiIiIiIiKi2IhRPhEREREREZGFfyXKt/ejQcL7tnayGeIaEho+/Oe2qJQ2pDdYrZvoLWKUT44wyiciIiIiIiIiIiIiIqLYiFE+ERERERERkYV/Pcp3NbhF4mIwl8ufIy+3J/e3H0/0jjDKJ0cY5RMREREREREREREREVFsVLeuwpAhCtWqWS8nIiIiIiIickpmlN+6dWtbIJogQQKH3Nzc4OLiYr0yIifCKJ8cYZRPREREREREREREREREsdEHHygUKqSQNav1ciIiIiIiIiKnZEb5/fr1wzfffIMCBQo4lDJlSluYb7kyIifCKJ8cYZRPREREREREREREREREREREREREROQkzChfQuJBgwaha9euDn300UdIlCiR9cqInAijfHKEUT4RERERERERERERERERERERERERkZMwo/y1a9diwoQJGDp0qEOFCxdGkiRJrFdG5EQY5ZMjjPKJiIiIiIiIiIiIiIiIiIiIiIiIiJwEo3yiV8MonxxhlE9ERERERERERERERERERERERERE5CTMKN/T0xMjRoxA3759HSpUqBASJ05svTIiJ8IonxxhlE9ERERERERERERERERERERERERE5CTMKH/KlClo0aIFatSo4ZBEpPHjx7deGZETYZRPjjDKJyIiIiIiIiIiIiIiIiIiIiIiIiJyEmaU3759e+TPnx8pUqRwKF68eHB1dbVeGZETYZRPjjDKJyIiIiIiIiIiIiIiIiIiIiIiIiJyEmaU36xZM2TKlMl6EBE9h1E+OcIon4iIiIiIiIiIiIiIiIiIiIiIiIjISTDKJ3o1jPLJEUb5RPTOuBoKGn4kIiIiiqYShrQGq58xiMh5JTB8ZPjOYPXeQUTO7StDGoObweo9hIicU1xDDoPV+wYR0deGDwxW7x9E5NxyGuR3DKv3DiIiIqL3jfzu866jfJc4cREnfhLETZwS8ZK8PndjPW4Jk8PVPaHl9ojeFkb55AijfCJ6Z+IZ+hh2GrYYNhERERG9wGZXqO2JoBYnhfrK3fpnDCJyXhkMfQ0bDVsNVu8jROSctsWHWpkCqpjx80MiF+v3ECJyTkkM9Q17DPw7SqeQwE8hyU6F+NuslxM9Iz8/rEoC1TCB9fsHETm3xoYlBv7/hIiIiGKDOYZ3HeW7p8iEZB9+gwwl6yH3d/VfW9ZS9ZCmcGUkzPaZ5faI3hZG+eQIo3wiemcSGhYarhu8//kzERERkSOrE0Gd/AIqqCxUlazWP2MQkfPKblhkOGPwM1i9jxCR81nsChXwIVRodajyWaCS8cI+IrKT0iAThzw0bDYsNVi9l1Cs8fFRhdJXFfIftl5O9Mwh4+eHY6Wh+n1s/f5BRM7LxTDAEGDg/0+IiIgoNhhrMKP8lq1aIXuOHHCPF+/VuceDW9y41j9MGVzjxkOKj8rgw2Yz8d2EE2gw/+RrqzjtBIr090O2Sv1ss+W7uLpabpvoTWOUT44wyieid8aM8ncZqhqyEREREb1A0QxQs/tC7V4BVeUH658xiMh5mVG+r6GRwep9hIicTy43qIGNoEJ3Q5X/DipZEuv3ECJyTmaUf9FQ2fChweq9hGKNtmMU5vgpNB1ivZzIJruL/vnBdx5Uv/bW7x9E5LzMKN/LMNhg9T5CRERE9D7JZDCj/MmzZqNZx86o2qjJK6tYtz6Kflva+ocpQ5qvGqFc/+UY5X0ePuefYu/l17fj4lMsD7yLbkuCkK3+RMRPkx0uLgzz6e1jlE+OMMononfGjPK3Gor+cxsRERGRI5kzQ40dC2X8DqKqVLEeQ0TOy4zyNxrK/nMbEZFMyNS+PVRoKFT58lDJklmPIyLnZEb5Zw1fGhIZrMZRrNHHON8bjZ8XO3e2Xk5k4+Kif37w8oLq1896DBE5LzPKX2fo+M9tRERERO87M8pfsG4Tek2ajjbDx0Zby6Gj0WHUOHQZORZ127Sz3pDhw5az0GN9GA78/Dv++9//2qLl1yXrufHb31hz4jFKzb6OZDkLw8U1juX2Y60CBaB++gnqhx+gPv8cKmFC63HviwQJ9GP64guotGmtx8QAjPKdQM6c+jWVI4f1cgcY5RPRO8Mon4iIiKKLUT4ROcIon4isMMonIkcY5TsdRvn0UhjlE5EjjPKJiIgoNjKj/OHzF6Nyj4Eo0apLtBVu0hY/dOyGhv0GoXbrttYbMhTtMAseXqE4/PMj/PXXX3j69Olrk/X8+uBPeJ16iOpLryNV7mhE+RJ/J036ehG7/CIZx9heihRQiRJBub6jWfplu+7uUClTQnXpArVpE9SaNVBDh+qgPX586/u9D9Klg+rRA2rSJKiSJa3HREXOhZxTIcfHaswbwig/FpPXsbym2xrvZ+PHQ9WpYz3OgehE+UWKFMGUKVOwfv36Z7cREb00RvlEREQUXYzyicgRRvlEZIVRPhE5wijf6TDKp5fCKJ+IHGGUT0RERLGRGeX3nT4Xpdp2R766LaMta7X6+KJpG9Ts0Re1WrWx3pChVOeZGOl9HocvP7QFx2/K9XtP4H3qHhp6XkWaPJ+/fJRfsKCeXb5wYevlL0Mi8CRJoGrVgvryS6jEia3HvWkSnGfNClW3LtSwYVAzZ0JNnw41ejRU585Q+fPrX3Kt7hvTZcmiH8vWrVAVKliPiYrE+GXKaBIZWI15Qxjlx1IS5MsFNjVrQhnnV+3cqV9TVmMdiE6UnzNnTjRs2BCdje2kjcGfDkFEMRSjfCIiIoouRvlE5AijfCKywiifiBxhlO90GOXTS2GUT0SOMMonIiKi2OjdRvnTMWLzWQSE3ceTJ09sHjzSfnv8BI8M9397gsfG7fLnB8af7z6MmoyRdVy98wibT9xBQ8+foxflS0gvs2DLbNhWy1+G/EW0/GO2n5+e3T1jRutxb5pcCPDNN1B79kB17QqVMyfUhx/qx+Trq4PidzVr/5v2OlG+eV+5SCG6s+xHE6P8WMi8yCZ3bqgNG6Bu3IA6cuStR/nx4sVDqlSpbEG+m5vbc+siInKIUT4RERFFF6N8InKEUT4RWWGUT0SOMMp3Ol26KCxbptC6tfVyIhtG+UTkCKN8IiIiio3eaZTfcQqGbzqJQ6F38PjxI/zx5BF2XniEvaGPcPaXRwi98QhbTz/CL3f0n/3PP4LnsUdYdvQRlhiWBevvzdsu3XyEh789ws+3HmDT8ZtouDwUaXJ/9vJRft68UF9/DfXJJ9bLX4bMWJ89O9TJk1DDh+vZ663GvWnyF94//aT/ArxjR70fQqJ0+Qf1PHmcc6b8HDmgVq2CWrMG6vvvrce8IYzyY6FMmfSFLfPm6Yt1Vq+G2rHjrUf5RESvhVE+ERERRRejfCJyhFE+EVlhlE9EjjDKdzoFCyp8841CvnzWy4lsGOUTkSOM8omIiCg2MqP8XlNno3irzshZs0m0Za5S96Wi/K/aT8Sw9cdx4PxNPPrtAZ4+eYCZB+7aeJ+4C7/TdzFk2x2cv3Yfp6/eh9eJ+5hz6D4WBT3AvMMPMGLnffTcehf9fO9iofF96K8PcO/+A1z69S42HL2OBkvOIE3uT18c5csM8qVKQVWsCPXttzrOt1+eOLG+rWxZqKRJ9Sz0Mk7+orlMGX2bjJOvEvQ3bw515YoOeJs10+NkvMy4ba5TZuCW8TK7vWxXlCsH9dVXensyJkUKqI8/hipRQt+WP78O70WxYuHjhFWUby6zJ39RLrP3ly4dvl15XJ9+CpUwYfg4ub9cUBB53EcfQSVIED4uXjx9PCR4N8f98IOepT9+/PBxL0vuU6CAXoe5vqZNobZs0XGAGeXLPsixln0yx8m+SkhgPnbZfzkX+/ZBHThg/PA+IHxc+vT6WJjbTZQIqkgRfQzN9X33HVTq1FAvOVM5o/xYSJ5DDRtCLVoElS0bVO/eUMY5ZpRPRDEao3wiIiKKLkb5ROQIo3wissIon4gcYZRPRFYY5RORI4zyiYiIKDYKnyl/Dkq26YwPajZCtmr1ka16feSp0wT56zdHgfotkK9uM2Sv3gBZqtazfc1Tu4nt9g/rNTPu0xDFWrZH7Z79HEb5JduNx5C1R7HvzC94eP8unj65i3H+v2DglmuY5H8dU3ddR8tVV3Di0i1cun4bQaG3sPfcLZy/fgeh1+9iUcBNdNrwC/pu/QVXbtzF7Tt3cffuXYReu4V1gVdQb+FJpMlVyHGUL7/4SXQ9bRrU3r1Qa9dCtW4dcYzMtt7GeBx79kAVLQrVuLGOdCUUX7kS6vPPdSCfK5eeTVvGPX4MdemS/vPmzVDz5+uoV9Yn20uVSt9vwQIoX19NfvmcOROqUCEdyEt0LiH5smV6bKdOOggWEyfqYF/GmTPi162rtym/wMo/qKdJo/8iXC4AMB+L7Kd8GoDsv7nddeugBg7U0b/E7maQLzOEy7bNcTLbfI8eUPny6Xhegnz5VAA5HitWhI+Tmenll+ncuaMX5stYuY8Ez3JBg7m+3buhrl6FOngwPMpPm/b5cbKvVauGh/k//qjve/OmFhSkxy1cCFW8uA7xzW3LhQpDh0KtXx++vsWL9cUU6dJFDPijwCg/FpLnpDw3ChbUr413FOXHNZ5vSZMmRfLkyRHH/vVLRPQyGOUTERFRdDHKJyJHGOUTkRVG+UTkCKN8IrLCKJ+IHGGUT0RERLGRGeVPW70OjYaORsk2XVCwfnN81LAlKvUeiKYjxqHVmEmoN3gUPm3S1hbgf9K4NSr2HICWoyeioXGf77v0QsXu/dC4v4fDKL9Em3EYvDoIe05dw/27t/HHo9uY4HcJ7VeeR9vlZ9Fm+RnUX3QWxy78ijOXfoXf8atYe/gy9p6+guu/3sCKQ1fRdlUoem+6iMcPbuPendu4ffs2zl+5gbUBl1F3fghSv0yUL9Fr9+464Jbw28Mj4hiZ9V2C7d9/1/9IPWgQ1LhxUJMmQU2YANWzJ1TJknpcjRo6+r57V0fgEt2PH69/qcyQQa9PgnKZWV7uJ+uZPFmT9Y0Zo8P3woX1LPqyLgntR4yAGjJEx/hi9Gg9Tma4l9i/Zk2o2bOh7tzRkX23bvpCAonY7f8yXCJ+uY9E+OZ2ZX3Dh+vQWGapl/XVqaMvCJB9N8fJY5Xj0K6dDvMlIJZZxOV4RB4nx7BlS6g8ecK3/SLyaQRyQYQ8TlmHuT45hidO6BnvzShfPkWgdm293+Y42Yf+/fXFBPIY5NME5L4XLuh/GNiwQY+TxxV5xn+ZEb9VK6hRo8LXJ+emTx+9TQmzzbFRYJTvBN5RlJ/ReL59b7xHVKtWzRbmR14XEZFDjPKJiIgouhjlE5EjjPKJyAqjfCJyhFE+EVlhlE9EjjDKJyIiotjIjPL9AoIwbfUGtB8zCZW69rZF9+OXrsTa7buwafcBzFq/BTX6D0ehxq3xU7e+GL5oBbwPHMbsjVvQbsI0NB8+Fm2GjHQc5bceg0ErD2PXiSu4e/smnjy8iRl+Z9BywVFUmXoYFSYHoM6swzh65gr2hvyMSVvPoNOyY+izOgSB565g4e4LaLX0OLqtPoHbt27i5k3t7OVfsPpgGOrOPYbUOT9xHOUL+eVPZkOXoHvTJusoX+Lv//4X6swZHbQXKaJniZfAfdcu/Utjzpw6uJcY/Nw5qKlT9Tj5x+306cNnW5cgXOL2/fv1zO4yC76Q2dslND90SP8y+tNPUEuXQj15AnXqFFSHDjpyF+XK6Rn469XT25OgX/7y+6+/oK5dgwoO1hcZSKgus+ibj0Vm6U+ZUs/8bW5X4n+5KOHAAb19mR1eZtKfMQPqiy/0/YUE+xKuy0z4sv0yZfRM9dOnQ5UtG76+0qWhRo7UnyRQsWL4tl+kcmUoHx99sYJ8SoC5XTmGMmv9tm3hUb7MhC/hvYwztyvHa8kSfSGDfBqAzIQvx1SOk+yLfJKArE8ujpAg39U1fNsy67980oF8SoG5Ptl3uZ9ctCDHwRwbBUb5TuAdRflfGM+38cZrd+XKlcghn9QRaV1ERA4xyiciIqLoYpRPRI4wyiciK4zyicgRRvlEZIVRPhE5wiifiIiIYiMzyg8+cxa7DxyE9/r1WLlwAaau3YRtWzbDa91aTJy7EN2mzsWsTT4o37M/ag8ajunrveAXGIwmQ8fhu449Ua5rHzTsN9hxlN9yBAYu34/tRy/i5q/X8ej+TUz1CsTQVYcwbsMRDPIMQNH+G7A7+BzW7TuF1rN34fM+G1Co9wZsPnga07ccRaMZ/mi/YC9kv69du2Zz8sLPWLnvHOrODkTqDz6Gi3187YjMAL92bdQz5Usc37cv1GefQSVNqv/SWWZQDwnRM9xLUCuxuMT6J0/qkD9r1ojrEhJ8z5oF9fChjr5XrNAkdvf1hfrtN70d+Ytsmen9/Hk9K77sh2xTSOQv0bjMWC/78OOP+h/Qb97UYboE2jJ7fqlSUEmShG9bQvWiRXXEb25XHrNcCCCz7DdrpuN2+UV43jwdvpv3jR9fXxAgyyUUrlQJ6vBhfQGChMrm+oznjDp+XN8ukb95/xeRaF4+XUBm+ZeLJMzbJaSX8H/r1vAoX2a2b95cH0dzu3JBxeXLUNu364sEZJzspxzXNWv0pxOY64xMticXA8hjNtcnMb8cT09P/UkIVvezwyjfCbyjKL+k8XxbuHAh/P39kTt37ufWRUTkEKN8IiIiii5G+UTkCKN8IrLCKJ+IHGGUT0RWGOUTkSOM8omIiCg2MqP8gBMn4bNzF9at9MSGpUtw6NRZBO/fA+91azBqxhz0mD4fe46fRv0ho1F/6ChMXbcRa3btwYd1miNr1Xr4omkb1OzR13GU33wY+i/ZDd/D53Dtys+4feM6PLcHYd2uI9h35BS27j+OhhO8sO/YGXgfCMGgpbtQY/QmVBy+Ab6HTmCl/xEM9dyNcev24+rVq7h8+bLNsbMXsXz3KdSdcRCpP/jozUT5Q4ZA3bunZ1I3b3/dKP/RI/0P3hL5Rla9up6Jfs4cPaO+xPeR12NP/sJbYnn5C/COHfV+RB6TJo2eBb9rV6hly8K3JbH70aP68TmK8iOTKD8wEOriRT2Lvf3+C7n/S8Tsz7xslC/fS+wvx3zlyvDt+fnpTwnYsePlo3x5bsiYhg31NmScuT5Zj1yoINtglE+CUT4RvQ8Y5RMREVF0MconIkcY5RORFUb5ROQIo3wissIon4gcYZRPREREsZEZ5W/atRdD5y9Cg/4eaDpoKM5euYqAYyHw3XsAq/12YdWOPdgfcgYNhoxG3cEjMdZzDRZt9UXmynWQsVJtFG7a+sVRfrMh6LdoJ7wPnMLZM2dwJCgIO3YfgL+xjX0HDmL3PmNbW3di38FD2LXvILy278FK751YsdnfWHYQO/YcwGbjti3+exEUFIiQkBCcPXsWQSfOYtnOENSdtg+pPyj470f58sulmxtUqlRQiRNDffEF1LRpUBcuQFWuDFWwoPbRR1Cffgr1zTd6HV999WajfHOG/LlzoUqX1tuUWf8ldB89Ws8y7yjKl+OYMKF+HAkS6Ch/506oxYvD1yc+/hiqSBGoYsUixvUv8rJRvmzX2xuqUyeo4sX1NuWY1qunZ8mXZY6i/DhxoJIn18dMHo9sVwL8Bg2gvvxSnwf52rgxVHAw1NKljPJJe0dR/pfG82+S8Vpda7wfmbcREb00RvlEREQUXYzyicgRRvlEZIVRPhE5wiifiKwwyiciRxjlExERUWxkRvmz1m1Eo6Gj8WXL9ijTpTdOXboEz+27MMFzPUYuXolpazZh55HjqDd4JGoPHI7Ry1ZhntdWpK9Y0+bzJi+O8os3HYy+C7dj3c4g+Pltw8AB/V7L0iWLsHOnP/YEHMWSHcdQe+oupP6gwL8f5UuQnzIlVNOmUCVKQH39NdSUKVAnTkDlzx9xfenT6zBeonaZ1f5NRvkSzq9erSN1M/SVfZXtyW3GuXcY5UvALhcNSPxdoICO42V2+gkTdDhvjkuUSO9//fov3m97Lxvly/bl+LZsqWf/lzES0g8dqmf89/FxHOVLkF+1ql5Xrlz6F3+Z7b9cOX0c5XzJpxnIOZXbly9nlE/aO4rysxuvy5o1a6Kl8RxPnTr1c+siInKIUT4RERFFF6N8InKEUT4RWWGUT0SOMMonIiuM8onIEUb5REREFBuZUf6QeYtQpnNP5KvTBF+37wr/oCMYumg5mo+ciLqDRqD9+ClYtX03qvb1QM3+QzF66SrM2xi9KL9Y04HovcAXK3z2YdGC+Sj86UeGj19Z717d4em5HD47jfX5HUHNKduROkf+F0f58stf2rT6F78tW6AmTtSxvRm2RzfKl4hcZl4fNgyqcGF9u8y8LmG4hOTffacD8t279Wz48o/fImdOHeyvW6fDcwnL32SUL2H57NlQixbpaF62KX9ZvmQJVFgY1MOHOsqXiwFk9vsZM/QM9Ob+SYjfooWO1GVbZcpArVyp/+FeInZznMxcL/uwYEF4CP8y5FMDfH2hevbUs+2b65N9lf3Ztk2H9DVq6GMnv7DLtmSMHK/Dh6Hu3NERgRnly0URM2dCLVyoQ3wZK/s6dao+PzKbv8yIHxAAVauWPs5yvlq1gjp+HOrRI30hA6N85ySvcXltmc/FkSP183Dw4PDbkibVn75gdX870Yny3Y3Xb4oUKWxBvptcJBJpXUREDjHKJyIiouiS320Y5RNRVBjlE5EVRvlE5AijfCKywiifiBxhlE9ERESxkRnl95gyE182b4ssVeuiUONW6DtjLiauWofZXlswxzBh5Rq0GzsFxVp1ROVeg14tym/SD73mbcFK333YsG4tWjZtgpbNm6Jli+avZPGihbaZ8nceCMR8n8OoOcn3xVG+/OInQa3EtjLL+rVrehZ2CddlFnkZE50oX7YlM8X/+CPUoEE6Bl+xQs86L0G+ROSZMkEVLarD77lzddguJHafNUuH77JNCfTfZJQvs89LSN+9uw7mZZsSp/fpowP8q1d1lJ8hg541XmYFl/0390/ifTlOMgO+HBt5HBLS9+8fcZwE9HLRgUTuEsVH3o+oyKz8deroTxiQdZjr27xZP64DB3SUL7PfN2wINXq03icZI8e/SxeovXv1hRVmlJ84MVTx4lCtW+vHKmPnz4fq2lV/coA81ty5oZo3h5o8GWrZMn0eZB9kfadO6dsY5TsnCVPk+W4+F+W1bhx/dexY+G21a0OlSmV9fzvRifKJiF4Lo3wiIiKKLkb5ROQIo3wissIon4gcYZRPRFYY5RORI4zyiYiIKDYyo/zOE6aiUKOWyFCpFj6o0QBft+mCrlNmYfzKNZiybgP6z1mAL5u3R65ajVCidWe0GDUBXSfNjF6U36gves7xwmq/A9i3Zw88ly2D5/Ll8PT0fCWHDh1CSEgI9gUewzzvg6g5YStSZ3/JKF/+8Xn9em3tWh3SS/wtY+QfpyW8lVDcDPWF3C9lSqgJE3QkLtG7uUxUr65nppdwV4Jw+0BdonmJ0CUEN7cr25S4XLYnY/LmhWpjHD8JxCWAN+9rJWFCqE8/hZo2TQf1Uc2uLRcMlCihZ4+XbQ4cqC8QkAsAZF8kVJdxMvu3zHIvFwmY+yfhvVwwkDp1+PrkL9orVtQXD5jjJHqXkFmOjYyRfZdIvlo1a3KhgPn4JG5u0kRfNGCuzyTHRma5l3Fp0uhjI/sky+SXdzluckGCzLRvf/GEkJn35SIJGSsXIMgnF8ixMJenT69/8V+6FMp4LqmmTXWwLzOiy7pfdFGEgVF+LCSfeiGvbfvnYWR16zLKJ6KYhVE+ERERRRejfCJyhFE+EVlhlE9EjjDKdzp58yoUK6aQK5f1ciIbRvlE5AijfCIiIoqNIkf5EthnrFwbOarXR8EGzfFZ0zb4vFlbfGwsy1qtnm1ZdmPZh/WaoWD95tGL8hv0Ro+ZG7Fm+0EEBQXh4IEDOHjw4CuT4PXYsWPYc+gI5m7ah5pjNyN1tg8dR/lCfvmTYD5PnnAye3q8eHq5BPQS3ebMGX6beT+J3yWul0g88uz0EqVLZCvrk8Dffrnsk6xLIn/7bcp+mOMSJNChv/1tUTFn6JftpEih9y2qcUmShO+X/MO7fC8RvuyL+RfncsGB/NkcJ+Txp02r/7LdXJ+Mk+3Zj5M/S7hvXhggwb/MPr9njzWZ7b5UKT1W7iPbkG2Z6zPJcTBDetkHOTbmOInq5RjJV/n0ArlIwdxHId/LY5WxcoxkBn3754XcVy4MyJVLnwfZB7lN7iPbkXNhvz4LjPJjIXkOyGvb/nkYmf1z3YHoRPnuxnaTGa+/lMZ7iNtLrJuIKAJG+URERBRdjPKJyBFG+URkhVE+ETnCKN/ptGqlMGOGQqNG1suJbBjlE5EjjPKJiIgoNrKK8l/FS0X59Xugx/R1WL1tvy1WfVN2HQjEnA17UHP0BqTOlu/FUT69XQUKQHXtCjVsmLVOnaDy57e+73uEUT45Ep0oP0uWLKhYsSIaNGhgC/Mjr4uIyCFG+URERBRdjPKJyBFG+URkhVE+ETnCKN/p9DHO90bj58XOna2XE9kwyiciRxjlExERUWxkRvm9p85CydYdkad2o1fylXHfer0HOIzyv6zTFV2mrMRKnz22mfLfFP99hzBjnT8qD1uFlFnzMMr/t5kz/ssM9lZkVvr48a3v+x5hlE+ORCfK//LLLzFx4kSsXr0aOeSTHSKti4jIIUb5REREFF2M8onIEUb5RGSFUT4ROcIo3+kwyqeXwiifiBxhlE9ERESxkRnlz1q1Dp3GTETjQcNeSetho9Fh+GiHUX7eyu3RbPQSLPLagcDAAAQEvL7DhwOwbc9+jPf0QfGei5AkUy4oRvn0DjDKJ0eiE+WXLFkSCxcuhL+/P3Lnzv3cuoiIHGKUT0RERNHFKJ+IHGGUT0RWGOUTkSOM8p0Oo3x6KYzyicgRRvlEREQUG5lR/trNWzFhzjwMnTTVoTY9+6B+m/ao3aJ1BLWat0KVho1R7Psy1hsypP60DL5t2gfdJyzCnLW+WLRh22ubt24bxixaj2Ye05H1p9ZwT5FO/3JnsX2iN4lRPjkSrSg/Xz4s7NQJ/tOnI3ezZlA1axIRvbwG1aB2ZWeUT0RERC/PjPKDgqDGjbP+GYOInFf78lC75XcMd0b5RBTOjPJv3IAaNQqqcWPr9xAick5NK0Ot+IhRvhNhlE8vxYzyd+yAWrnS+v2DiJxXLcOqglB+SRnlExERUezxLMpfvx4TJk3G0OEjHCr17XfInC0bUqRK/ZxkKVMiUVLjhyWrDRncEiZF2vxF8UnVtvih6yTU6TfttVXqMQVfNfdA7tJ14J40NVzixLXcNtGbxiifHIlWlG+8by785BP4N26M3Js2QR04QET08g7thDpfDmqp8f7z2fPvR0RERETPyZABasAAHeUfO2b9MwYROa/Da43fMX6CWpcM6huL9xAick5ublBNmkBduaJ/fjh0yPo9hIic0yEfqFNtoPYY7xeFDPLpnlbvJRRrdOigsGCBQosW1suJbCTKl58ffIz3iNOnrd8/iMiJ7TfeG1pC+WWDambxHkJERET0PnoW5a9diwkTJmDo0KEOFS5cGEmSJLFe2UuIlzwtUuT+HJmLlEPeryq+thzFyiP9J98iSZb8ltsjelsY5ZMj0Yrys2XDwtq14T9kCHIPHKjjGCKil9bb8AlUHeP9J9Pz70dEREREz5EJFUqXhuraNdLPFUREooPB+B2jUQKonBbvIUTknFxdoQoXjvR+QURk6mH4DqqN8X6R0RDX7v2DYqUSJRRq1lT4Uj4ZwWI50TPy80PLlpHeM4iITN9AtU4F9YXF+wcRERHR++hdR/kucdwQJ15CuCdKhviJX188Yz1xEyRBHPf4ltsjelsY5ZMj0Yryv/wSCydPhv+mTchdpIietZKI6KWlNySASmm8//Afu4iIiOhlxIkDJX+3ky5dpJ8riIhEWoPxO0YqV6h4Fu8hROS8EiaM9H5BRGSS3y2M3zHSGO8V8neULnbvHRQrJU6skCKFQqJE1suJnpGfH1KnjvSeQURkkp8f3KD4/xMiIiKKLd51lE8UWzDKJ0eiFeWXLImFCxfC398fuXPnfm5dREREREREREREREREREREREREREQUg5lR/tSpU9GqVSvUrFnTIYlIEyRIYL0yIifCKJ8cYZRPREREREREREREREREREREREREROQkzCi/bdu2yJs3L5ImTeqQu7s7XF1drVdG5EQY5ZMjjPKJiIiIiIiIiIiIiIiIiIiIiIiIiJyEGeU3a9YMmTJlsh5ERM9hlE+OMMonIiIiIiIiIiIiIiIiIiIiIiIiInISjPKJXg2jfHKEUT69tviGjIaCdnIaUhqsxhMRERERERERERERERERERERERHRv4NRPtGrYZRPjjDKp9eW3dDKsNHOeMMPBqvxRERERERERERERERERERERERERPTviKlRvnvKzEiatxTSF62BD0rVfG2ZitdAyk9+RIJMBS23RxRdjPLJEUb59No+Mcww3Dd4Gk5/ArWnJFSrXNbjiYiIiIiIiIiIiIiIiIiIiIiIiOjfYR/lZ82WDQkSJUKyFCnemoSJE8MtblzrnfmHW+KUyFSiLop0W4nqc0PRblXYa6u/KBSlh+9GnpqDEDd5BrjEcbwPRC/CKJ8cYZRPr82M8k8aMhmm9INaNxeqVUPr8URERERERERERERERERERERERET077CP8gt8/DE+/qIIytWs/dZ8XqIk0mbIYL0z/0hdoj5+6rsUwzedw/rTf2Jb6OvzOvsnZu69gRbTdyFTVQnzM1pum+hlMconRxjl02szo/xgQ1zDqJFQq1dDtWplPZ6IiIiIiIiIiIiIiIiIiIiIiIiI/h32Uf4XxYrjxxq10WXEGLQcOPSNaTFgCJr1H4wuw0ahasMmyJnvQ+ud+UeeptPQZeUZ+J//Dfd+/y/u//43fnnwFJfu/IHQ27/j53t/4oFx24lzYTgbdhW/3vvN9v2DP/6DC5ev40TYTZy8/gihd/7Cncd/G+sQ/8GpX//AjD03UHjUESTK5HgfnErSpFASB2fNCuXubj3GGcSLByVBtByHRImsx9hhlO8E0qXTr420aa2XO8Aon14bo3wiIiIiIiIiIiIiIoqB0qVT+OADhbRprZcTEREREREROaUIUX6JkvipXgO0GzUBpdv3fCO+a98DX7ftiqLN26H1sNGo3rwVchcoaL0z/yjadQlG+F5F8LXf8ffff+Ovv/7C+eu/YdeZO/A5eRsBl+7hv//9C9OnTMJKz2UIu3ge//vf3/i///svNq31xLQVWzDHPww+537Hb0/+wtOnf9nWc+3+n1h17AEqLbiM5Nk/sty2U/r8c6gBA6A6dHil+DjWyJgRatgwqE6doPLntx5jh1G+EzDOserXD6pSJevlDjDKp9fGKJ+IiIiIiIiIiIiIiGKgGjUU+vVTqFTJejkRERERERGRU7KP8guXKIEyteuhscco5Kvb8o3IW6cFPqjZGOkr1kT9/h6o0rTFC6P873ouxgS/yzh29TdbmCxWHbqKubt/xtI9YfD0O4xFixbg26+/Qsf2bbHNdytu3ryO27d/tUX5o2YvR/8FOzBpy1kcuvQ77v2m13HlzmOsO34H9ZeFIWWONxTlu7pCJU4MVbEi1KefvtQM629E3LhQmTJBVakClS+f3g+rcS/jp5+gvLyg5s2DypbNekxkCRJAlSwJ9c03UMmSWS//5BOosmVffp1vUoYMUN9/D1W0qPVyKxJD+/tDLVyoH5vVGDuM8mMpeS0lTKhf0wMHQo0fD9W3L1TVqlDJk1vfxwKjfHptjPKJiIiIiIiIiIiIiCgG6tNHYeNGhc6drZcTEREREREROaUIUX7xEihTsx4aD/q3o/wFGL/tIo7+fB9Pnjyx6b36BIasPYalXvsxefI0fPRRQeTMmRONGzfC0qVLEBR0GEeOHEbI8WCsXLUKQ8ZMQu/JKzB+70NcuvXYto7Lt37D2uCbqL/sAlLmcLwPL83dHSprVqgDB/Rs85kzW49705Ik0dH50aM60JRI32rcy3iVKD91aqiRI6EmToT6JyyOIF06qN69obZuhapc+fnlb1uRIlCzZulzYrXcCqN8kteRPLflAptNm/RzWOL8Pn2g/PygvvpKh/lx4ljf3w6jfHptjPKJiIiIiIiIiIiIiCgGYpRPREREREREZCFGRvk95mGcz3kEXbqLR48e2XTzPI7aQ5ahZfch6Nu7FyZOnIjJkydj/fr1CA4ONh7DZVy6dBETxo9Dg3r18FPlGqjdaRhG+t9B6I3fbOu4dOMB1hz5FfWXnEXKHAUstx1tEuVnzw518iTU8OE60Lca96bJ7PQS04eGQnXsqPfDatzLeJUoX2YSL11az4SfIsXzy2Wm+sGDofbtg6pZ8/nlb5tcHFGhAlSpUtbLrTDKp4wZ9Yz4U6dCdemiP2khRw79fOjUCWrSJKhKlayf85EwyqfXxiifiIiIiIiIiIiIiIhiIEb5RERERERERBasovxGA0chd+1mb0SuWk2RvXrDaEX533abjTFbzuLwxdt4+PChTbflwajYaxbqtO6OYUMGIyQkBKdOnbLt+/Xr13Hhwnls27YN3bt2RY2qVVG5Rj007jUWI7bfwPlf7tvWcfGXe1gVeB31Fp1CyuwviPJdXKDc3KAKGvv65ZfhPvtMB+kyRr7mygVVpQpUWJiOuSXY/eILqI8/Dh8nXF3193K7ua7ChaEKGPuRIIEekzixDoDz59e3SeD/+ed63IcfQsWPr8clTapn8pZo+No1qPHjdTQsY/PkCR/3siTK9/HRYb7Mam//WOWCA/vgX2YSl+BelslM/bJN2W/79aVMqYP9uXOhjh+H6ttXr0/2WaLn6F5AkCaNPgayDjk2MlO53CbHUmY1l/Nkjo0XT58Tial/+AHqo48irsskxyhvXr3/5uOtXh0qKAhq8WJG+c4qXz6o/v2hTp+GKl4cKlEi/ZyS53ShQlAHD+rnc6ZM1ve3wyifXhujfCIiIiIiIiIiIiIiioEY5RMRERERERFZsIryGwwYgSxV670RmavURabKdaIV5X/TdQZGeZ3CofM3cO/ePZtOSw6j/YytmLpsI7Zu2YKAgABb8BoWFoZz585h9erV+OGHHzB/3jx4e23Ceq+tWLD5IIb5XsXZq3ds6zh/9TY8D11BnfkhSJktv+W2n4kTBypJEj1jtrE9G4nWly7V4byMkWC9dWuoXbugHj+GungRaudOqI0boebMiTjrvDmj/qxZ4etbv17PvJ0lix4jQXCHDlBjx+qZ3o1zotasgVq7FmrkyPAQWC4UGDJEB+S//64DYonqJdYcMECH7+Z2X4ZE+bt368BfHou5fytWQLVtqwN4c6wE8TKTuITrMkYC5sifDlCihD5OMov//ftQwcF67JIlULVq6cDZfvyLSOAvx0DWIRcgSKBfpgzU7Nl6mZwnc2y6dFC9e0OtWqXHy/G0X5dJjpGHhz6+Mk7IMbh7F2rlSkb5zkoukhkxAso45hEu6JAwX173p07pT8QwX7MOMMqn18Yon4iIiIiIiIiIiIiIYiBG+UREREREREQWIkf5P9Sqh/ajJqDOoOEo2rIjctdqjCxV6yJPnSao0mcQirXqiI8atkDBBs1tf244ZDQaDR2Dqn088FXbrshbt6ktwC/TpTdqDRyGmgOG4qdu/fBZ07ZoMXQUqjVr+cIo/+vO0zBy43EcOHMNt2/ftumwYB86zdyKuWt9sGvXTlvsGhwcDP8dO7B40SIMHjQIderUsc2gf+7MKfj67cCc9TsxdMslnL5807aOM5d/xfL9Yag956jjKD9ZMj2DesuWUNOm6RnwxYIFOgTv2FGH4TJre/36Oux+8ADK2LYtmJQg3z6iFxLlS8grQa+5vnnzoKZMgWrfXs/6/vXXehsSs/frBzVsmB4jJk6EatdOR8Oy3e7dobZvh3r0CCogQEfy06frfUubNuLjeRGJ8iXGv3BBPxZz/+RxyP42bQqVM6ceK7P0ly0LNXMm1KVLUBs26P2xX58cG3lcx45B3bql1y3rmzABqnx5fXztx7+IxOfG89Q2S7nskzz2Pn3045UAXz6dwDzWcgFBmzb6ggcJq+V82a9LPrFAPnVAjqUE/jKbv/l4162DunEDytOTUb6zYpRPMQmjfCIiIiIiIiIiIiIiioHKl1fo2FGhTBnr5UREREREREROyT7K/6JYcZSrVRfDZs6B195D6DB6Er5p2RH5azdGqfZdscp/D9qMnYRKPQegSu9B6DxxBrz2HIL3vsOYv3kbes2Yj7Ld+tmi/PGea7FpfwBW7diDkYtXomrfIehk3LdGi9YvjvI7TsGIdUex9+TPuHHjhk37OTtRa+BcdB86HitWLMXdu3cRdvEi5s2di/Zt2qBH164ICDhku33r5o3o07cvWvUegSGbQ3Hi4i+2dZy8eA3L9lxA7VmBSJntQ8tt20goKzOsHz6sI3IJdSWUlRnhZbb7TZugunXTM+EnTqyjdJmtXma4l9nuEyWCSphQB+DmOuXP8eND5cql1yck/K9RQ4e+EppLHL9sGdQff+hZ92UWfpn5XSJ7CfZlNvyGDfX65TaZsT4sTN83RQq9TdmG/XZfhmzX21uH/RKsy/qFPD6J/A8dgqpbV491cYGKG1cfI4lDraJ8Nze9XOLmAwegGjQIPyZycYKsw378i0h8LsdXzokcLzn+8+dDFSqkY3qZ2f777/VYeewSUMt58/d/PsqXfZegVY555cpQGTKEP95PPtGz5S9axCjfWf1LUf4XX3yBscb7x4oVK5Bd3mMirYucFKN8IiIiIiIiIiIiIiKKgdzdFeLHV4gr/35hsZyIiIiIiIjIKdlH+UWLFEH1ypUxaswYzFi7Gf2HjkC91u1Qsn4T/NC1N3YFH0fL0RNQra8H2o2fimGLVqD1yEloM3oKek6fD48Fy9Fp8ixblD9rozfW7NxnC/Jr9B36z0z5I19upvwOkzB8TSB2H7uIa9eu2bSb5Yf2k9dhjqcXDh3YD9nvLV5eWDBvHqZMnoSRI4ajb99eOH/+HE6fOA6vzd6Y7umNwZvOIPj8z7Z1HD9/GUt2nUHtGQeRMms+y23bJE+uZ3uX8NGcKV9mrZfQW8JyiblleZIkOjKXiPbkSR3rSrhvtU6rmfKXLoXavBnq4UOovn31+u1nyi9oHCeJyIXE49Wq6WhYoneZbV5iehkr4bys32q7L0PWYxxL24z8EuKbt8us8zKLv8x4LxcD2N9H9mfFCuso31w+eDDUvn1QNWs+vzw6JD6X4yufXCCz4m/dqo+fXECwZIneB5m93/4+Eun7+VlH+fKY5KKHcuUiztovF15IyC/rZpTvnP6lKD9dunS22fJ//PFHJJVPo4i0LnJSjPKJiIiIiIiIiIiIiIiIiIiIiIiI3g/2UX6xL79E9YoVMdjDAx0nTIfH8FHo3rsfqrfvgip9BmHb4SDU8xiBGv2HwGPhUizc6od6A0ai3qDR6DFtPqas9cKopat0lL9pMxZ4b0ObMVPwcf1WyFK1LhoOGIIqTVu8OMpvNx5DVx2C/9HzzyLWtjN80GPWZqzashshx4Jx4cIFrF65EvPmzMH06dMxatRIdOrUHidPnsDJkOPYvMUHM1b6YOCGkwg6E2ZbR/CZi1jkfxK1p+1Dyqx5LbdtEyeODu4lUJ86NXxm9q5doYoWhcqUScf5Mu5lonyZTV9m0JeZ7SW6l/UJmZ1+zx6ox4/Do/y5c/UM/bKdBAn0rPLm7PRysYB5G6N8RvmM8t+8fynKj2s8LxMb7xMS5MeR95VI6yInxSifiIiIiIiIiIiIiIiIiIiIiIiI6P1gH+V/WbQYylerjg6Dh6J0x57wmDYLY2YvQOcxk9Bw6BjM8dqCCj37o9bAoZi6dgMOnDiNuRt9MHeTL1b47cb63QcxadUGW5Q/Zd0GTDHG1B44HFmq1LXdVr+/x8tF+W3GYsiK/dgeeAZhYWE2baZ6o/3E1Zi9YgP8d2xHUFAQ9u3di8mTJ6Ndu3a2AHbbNl/jsVzGmlWr0LlbbzTqOgT91h5HwMkLtnUEnTyPBX7HUXvybqTM4iDKF2YIX7w41I8/QtWrB+XhoUP0f0Jam5eJ8iX2lhB82TK9HlmfqFIFqlMnqGvXwqP8OXOg9u/XEX/k9dhjlM8on1H+m/cvRflElhjlExEREREREREREREREREREREREb0f7KP8wsVLoEzNOmg0cChy126MgXMXYd5mH0xdsxG9ps9DyzETUaRle9us+VPXbMDe4ycwaeVGTFy5HvM2+cBz2y6MW7HGFuBPWLUW4zzXoGrfwbbvoxPll2ozCoOX74ZvwEnbjPiizZRN6DxlDRau9cbePbttUf6KFcsxdKgHevXqhZkzZ+L27dvYtGkDRg4fik5de6DNgPHoveooDhw/a1tHwPEzmOd7FDUn7UDKLHkst20jM9J/9hlUgwZQqVLp2zJmhKpeHcrYji2k/+ILPZu+VZQvM11L7F2tml7PV19BTZkCdeJEeMAuwXuZMvo+N268mShfSFRfq5YO1uXCAqv7Rvauonz5dIHChXUML8cs8n2iwij/uXGM8t8S+9e5vK7kdS6vCbk4R5438skZcjFNypTW97fDKJ9eG6N8IiIiIiIiIiIiIiIiIiIiIiIioveDVZQv8XyGijXRY/osLNu2HRv3HsDkVRvwSZM2yFGjAb7v1AMD5yzE3E1bUKX3UFTqORAtR06Ax7wl6Dtzvo7yPddi3PI1qNon+lF+ydbDMHDpDmw5cAxnz5616TvPG8OW+WH9ziAcOnICuw8Gon6z5ujSuy9WrNuEwJAzOHYmFHWaNEOXnn2weLUXVu06hqHrjuDAsdO2dRw4ehJztgSg+sStSJElt+W2bSSUlfD+yBEdd8sM2XKbhPLFikH5+kJ1765ny5bIO3NmfduwYVBFikDlzatDfInCJewtXVrPsi/B9zff6PVJRD5jBtSVK1B//x39KF8uCJB17doF1a2bDsplZu/69fVtdepAubpa3zcyifK3bIFatUrH6LJ/olAhqC5d9GOrWlWPNS84+PxzHfJv2wb13XdQKVJAubmFrzNtWqjOnaHWr4dq0kSvT4L8IUOgli+H+uGH8LEvYh/ly/0kmh87Vh+jyFG+7INsWz6RQC4IkAsH5PzIBQFyPGS5XGAgx1iOUUHjuWg+3m+/hTp4EGrxYkb5zkouZIkfXz9nNm/Wr2l5TcnXnTv1BSjyPHqJC16iE+XHN7aZOnVqpE+fHnHlPSXSushJMconIiIiIiIiIiIiIiIiIiIiIiIiej9EFeVLRN942BhMWrUOq/x3Y/q6TbYgP1OVOvi8SRvUHzQcwxcuw/wt2zB381aM91yDntPnoto/Ef5rRfkth6L/Yj9s3nfUFq8K792HMWWNP3rM3ITmo5ahqccMVO4yAg09ZqHL9PXoPW8rOkxchXJdxqFyvzloO80b49YfhO+h4wg+ccq2jn1BIZi1+SCqj/dGisy5LLdtkzSpDtIlJp81S4fdYtkyqAULoNq00csTJ9aBbqJEetb1QYOg5s/X4ySub90a6uOPdeArM23L/eR2WZcE+QMHQg0YAPXLL9GP8iXclVm9K1aEGjFCb1Ni8gkToFq00JF+dGbKl5A/LAxq06bwx7tokV63fGKAROsyVoJ8eawyq77xvFHXrunIvnbtiLOHJ0gQfpHA+PF6fXLs5BjJTORyQYM59kXso3w5LnIxQtGiUDlzPh/lS5AvF0JIUC2fQCAz4k+cqC8IkPMk5ytPHr2uSZP0/c3HK/e5eRPK05NRvjOT54hcxCHPc3mNymtKXp+VK+tP0bC6j4XoRPl58+ZFq1at0NfYjoT5kddFTopRPhEREREREREREREREREREREREdH7wVGUX6Zzb7QdOwUeC5ei54w5yFipFjIYctdqhK/adEbT4WMwy2sLZmzcjEHzF6Pe4BEo3Kyt7b6dJ89Ax4nTUbpjj+hH+S080G+hLzbtCcLJkydtQk6cgKfPPvSauQH1hixAg4HTULX7OFTpMQGVe0zETx1Ho0TDPmgyajlaTPFGxznbMWXDflvkfOLkCds69hw+hhmb9qP6WC/HUb7MBi/BfdasOtxeu1aTmeQlRpfQ3px5XcbLV4nVJV6fOxdq5Uqo6dN1lC5xuru7jnnlflOn6nWNG6fj9C+/hFq6VM/sLrPsd+0KNWWK3nbk/bInwb2E+bLddu30vsl6+vfXM/XHi6cjebl4QGayt/L111AZMuh9kG36+OjA3Xy8MiN9+/b6UwJkfbJd2V6FCvpxygz6MlO+jJP4PlWq8P2TYyKPXS4O6NNHr0+OnYyTxybHJF06qBIlrPdNSEifOrWeHV8udpCLFmQb8ikBEtjLvvfurWff/+ILvV1ZpxxDuVBA9k0ek5wLeYxyHxkjM6FL3D94sL6YwXy88tjl0w3kwgE5d+ZjiQKj/FjMfE3L61JeUzVq6NewvDdYjbcQnSi/aNGimDZtmu35ZN5GxCifiIiIiIiIiIiIiIiIiIiIiIiI6D3hKMrPW7cpCjdvh6/adUXx1p2exfWZq9RBrpoN8VmT1ijXox9+MnzdvhsKNW6F7NXr28YUbdkBRQz56jZ5dr+XjvKbD0a/+VuxcedhHD9+3ObkiRDsORSEddv2Yskmf3h6+6NRu+74sUYjlK5SF6XK10SR0uUxdck6eG47hFXbA+CzNwgnQ44jxCDr2HXoCKZv2IvqozciRaacltt+xozeZUb2MmW00qWhSpXSwb7VfWQ2+a++0uMkNrcfJ5GvfF+smF6XROIyW7zMyi+z6Mt9JUD/8EMdmJsB+cuQCF+2+e23UJ98oi8YkNs//RRq9Gio7duteXvrGeZlu7JN83GaJNqXeF0idnNbEtNny6Yfp/04ie/tx5lkX+RiBBknx04epxn4y/7KxQRW+yYkppfjL58IIMctUya9fXPdEv0XKKAfs3lBgDlDv8ymb+6fnAuZQd/NLfy+sl9yfGQfzHEm2d+XmBGdUb4TyJ5dP79edJGMhehE+SVLlsTChQvh7++P3PJairQuclKM8omIiIiIiIiIiIiIiIiIiIiIiIjeD46i/DftpaP8pgPQd44X1m8/aIta7QUHB+PYsWO2me+nTZ6M5k0ao1zZMqhcoTz69+0F/x3bn42LfF///Ycxbe0uVB+x9sVRfmwgQX3nzlBz5libNk0H61b3fRfkQoCxY633TfTr91Iz1v9bGOWTI4zy6bUxyiciIiIiIiIiIiIiIiIiIiIiIiJ6P0SO8n+oWQeNBw5FntqN3rgmg4aharOWL4zyizbsjZ4z1mGN714EBQUiMNCahPkzp09Dq+ZN0aNbF5w5c8YWwVqNlfX47TmIySv9UMljOZJn1DGsU5BZ/6NiNf5dstone1b3iSEY5ZMj0YnyCxcujDFjxmDZsmXILrPzR1oXOSlG+UREREREREREREREFAMlT66QLp1CsmTWy4mIiIiIiIickn2U/0Wx4vixRm10HjEGjQcNe+O6j5+Mmi1avzDK/7B6V7QZ74nl3jsRGBiAgABrQUFB2OzlhYUL5mP5sqW2APbw4cOWYw8fDoDPrn0YuWQLinWfj8TpGL7S62GUT45EJ8pPnTq1LcwvVaoUEidO/Ny6yEkxyiciIiIiIiIiIiIiohioalWFnj0VypWzXk5ERERERETklMwov1evXqhUpSrqNm2OvqPGov/4SZZa9uqLeu07oXabdtFWt217fP1TeWTK5jiIz1CsMsp1GI5BMz2xZJMfVmzeYcnT2x+L123FvJWbMH+1l+17T4txYqnXdkxathEths5EzsqdEC95WsttE70sRvnkSHSifLc0aZCweHEkrlEDruXKQZUtSwTVtjiUd9aIUb7x2ldTpliPJyIiIiIiIiIiIiIiege69CiLZWPKok0X6+VERERERERETqdUqfAof/bs2ejVuze69+oNj+EjMHTUaEs/VqqMAoU+wwd580Vbjjx5kS5jJiRM5Hgm6PipMyPnV5XxfZshaDxyKTpN9IxSx4kr0HGCZrXc1GLMclTpNQWfVm2NxJnzwtU9vuW2iV4Wo3xyJDpRvipQAGrAACg/P6JwB2dDXakIFWQ8RyTKHzEc6sgRKOP5YzmeiIiIiIiIiIiIiIjoHegz1A8b2/uh8yjr5UREREREREROZ+nS8Ch/7dq1mDBhAoYOHepQ4cKFkSRJkucC1DctfpqsSPvJt8j5XV188lOD15b3+3rIVKQikmT/2HJ7RNHFKJ8ciVaUnzMnVIsWUDNmENnpZygF1cd4jsQxVK4E5eERaQwREREREREREREREdG71cdjBjb2mYHOw6yXExERERERETmdoUNjbpRPFNMxyidHohPlx48fH2nTpkXGjBkRN27c59ZFREREREREREREREREFFP06aOwcaNC587Wy4mIiIiIiIicEqN8olfDKJ8ciU6Unz9/fnTq1AnDhg2zhfmR10VEREREREREREREREQUUzDKJyIiIiIiIrJgRvkzZsxA+/btUb9+fYdy5cqFBAkSWK+MyIkwyidHohPlFy1aFNOnT4eXlxdy5sz53LqIiIiIiIiIiIiIiIiIYooaNRT69VOoWNF6OREREREREZFTMqP8Hj16oEiRIsiePbtDMkt+nDhxrFdG5ETeRZR///59XL9+HZcvX46AUX7MZ0b5kc+diBzllyxZEgsXLoS/vz9y58793LqIiIiIiIiIiIiIiIiIYoqsWRUKFFDIlMl6OREREREREZFTMqP8Zs2aGb80Z7IeRETPeRdRvrw+z549i+Dg4Gfk+61btzLKj+Ekyg8MDLQF+PbnT87xsWPHGOUTEREREREREREREREREREREREREcUWjPKJXs27iPLltiNHjmDv3r3PhISEwNvbm1F+DCdR/qFDh2yz5dufv4CAAAQFBTHKJyKiV5fGkMOQy5D5n9uIyLm5GhIZcv8joyGxwWosETkXeS+Q9wTz/UHeK+Q9w2osETmfpAb5ncJ8j4hvcDFYjSUi5yHvA1kN8r6QzZDSYDWOiJyLuyG1wfy5Qf4c12A1loicj/wukc5gvkeILAb5ncNqPBE5D/l3zZz/kE/Y4c8PREQU2zHKJ3o17yLKf/LkCR48eIC7d+8+I69ZPz8/RvkxnET5x48fx40bNyKcv1u3buH8+fOM8omI6NW1Myw3bDGM++c2InJuCQxfGvz+McJQwmA1loici7wXyHuCvDdsM8h7hbxnWI0lIufzvWGiwXyPyG+IY7AaS0TOQYJ8iWRmGuS9YYGhgcFqLBE5l+yGlgbz7x6aGdIbrMYSkfPJY+hqMN8jxBSD/M5hNZ6InEdrwybDRsNIg0wgYjWOiIgotnjfo3z3lJmRNHdxpP28ArIVrfjaMhSugOQffoP4aRnGkmPvIsr/7bffbBG3rMd09epV+Pr6MsqP4STKDw4Otp0v+/N37do1nD17llE+ERG9urGGs4a7hq3/3EZEzk1mvv7R8Ogf6w0VDVZjici5yHuBvCfIe8NvBnmvkPcMq7FE5HzqGiSWMd8j5MIdN4PVWCJyDhLly2zY+w3y3hBs6GuwGktEzkUu3htmMP/uwcMgn6ZhNZaInM9nhsmGa4Z1hqD8UD7FjN85slqPJyLnISH+DcMvBgnzPzBYjSMiIootXiXKd3F1hZtbXLjHi/fWyPplO1bbN7nGjY+Un/yEfA0noNTArag62ve1feexFR+1moP0JRrA1T0hXFwc7wM5r3cR5cv9T506hSNHjjxz5swZbNmyhVF+DCdR/uHDh3Hy5MkI5y8kJMQW6zPKJyKiVzbVIH+x/bdh9z+3EZFzS2yoYDD/8zVUNViNJSLnIu8F8p4g//2fQd4r5D3DaiwROZ9GhgMG8z2imIFRPpFzM6P8Ywb574JBwlursUTkXAoa5FM7zf9GGXIYrMYSkfP5wjDdEGqob1jaEmrbaON3jrLW44nIecgn9D0xyEV9MjFALoPVOCIiotjiVaL8pClSIE/Bj1C8dJm3Jk/Bj5EsRUrL7ZtSfFoR33aejZ6epzA78Hd4nnh984/8jkFel1B58GqkLtkIbolTWW6b6F1E+bdv38alS5dw7ty5Zy5evAgfHx9G+TGcRPkS4YeGhkY4fxcuXLCF+ozyiYjolTHKJ6LIGOUTUVQY5RORI4zyiSgyRvlEFBVG+UTkiET58m8X8jNEPsOIEVDe3sbvHGwaiJweo3wiInI2rxLlZ8+bF9WbtcCAqbPQY8LUN2f8FHQbNxkDjfXWbNYSH+TNZ7l9U/7Oa+Hhewshvz7F//73P1sE/eTPv3H/yVPce/wUj/74C//9739w/fo13L59C3/88bvx/X9t7hjf/3LrHm48+AP3f/8bf//9H9v9ZT2X7/+NWYfu4fOxJ5EwcwHLbTvk4gLl7g6VPTtUqlRQbm7W42KKRImg5NynSwcVN671GGcg5yxzZqj06aESJLAeY+ddRPl//fUX/vzzT/z+++/P3Llzx7adGB3lJ06sj2OGDNbL3xR5vqZMCZUnD1T8+NZjXoesO2NGqBQprJc7IFG+nM979+5FOH8PHz5EWFgYo3wiInp1jPKJKDJG+UQUFUb5ROQIo3wiioxRPhFFhVE+ETnCKJ+IosIon4iInM2rRPlZc+dB+YZN0HL4WJRq0+2N+Kp1VxRv2QmfNW6FNsPHoErjZsiRN6/l9k2l+qzFxJ03cOrX3/H333/bAuZTVx7C9+RteIXcQsCl+/jvf//CiGEeWLp4AS5fCsX//ve3jeeS+Ri90AtTt1+Cz9kn+O3xX/jz6V+29fx89w8sDbyDCjNOIlnWV4jyJe7OkgVq0SKopk2hUqe2HhdTFCkCNXIkVM+eOqS2GuMMJMifMAGqd2+ojz6yHmPnXUT5169ft912+PDhZ06fPo0tW7bE7Ci/RAmofv2gBg60Xv6mSPRfpw6UcbzVC94vXkm9elDDh0PVqGG93AGJ8uV8RT5/wcHBOHr0KKN8IiJ6dYzyiSgyRvlEFBVG+UTkCKN8IoqMUT4RRYVRPhE5wiifiKLCKJ+IiJzNq0T5WXLlwY/1G6HR4JEo2KDNG1Ggfmvkrd0MWarWQbPBw1G5UZMXRvnf91+Nybt/wbHrj/Dojz/x2+9/YOuBE1i15zRWH7yA1TuDsMJzBcr+9AN69OoJ/907cf3Gr7h9/y7Wb1iD0QvXY6jnfsz3O4ETZy/it8dP8Mdff+HS7YdYc+gimk7zQ5oc+aHiuEG5uuoZ8C324zkyY7eEtYGBUP37R2+2cJlVXyL+cuWMX1byvZuZ68uUgVq1CmraNKisWa3HRCaPsWhRHV8nTfr8cplpvkABqO++0xcoRF7+tsms/19/DVW4sPVyKzlz6l8MZ86EKlbMeoyddxHl37p1C6GhoTh58uQz8r2Pj0/MjfKLF4caMkQfy4ULrce8KfJaKVsWat48qJYt9fl+hVntI5DXesKEUD/+qC/QkAtWunWDqlABKlky6/tYkCg/KCgI586di3D+zpw5g5CQEEb5RET06hjlE1FkjPKJKCqM8onIEUb5RBQZo3wiigqjfCJyhFE+EUWFUT4RETmbV4ryc+ZB2bqN0GDgCOSr2/KNyFunBT6o0RjpK9ZEk0HDXirK/2HAKkzadRWHrzzArUdPcPPhI8xbtQGLvfywZsd+TJy3GGV/Ko+8H32MRi1bYfGq1QgICcGpsDAcOHIE89duxtBZyzB2/kps8tuBWw9/w6O//8bFG7exaU8guo+bi4y5P4RL/ARwMcN8i/14jgTrsu+nTuk4OWNG63FWJGaXWdo9PfUs3YkSWY97k376CcrLS4fN2bJZj4lMwmeZWV8uOrAK+VOlgjKeU7bA/dtvn1/+thUqBDVsGFSHDtbLrUgM7e+vQ/KSJa3H2HkXUf6TJ09w//593L59+xl5zfr5+cWsKF8uWJELSJInhxo8GGrvXqizZ/Xz2Gr8myKvNXnfkgsB5s/X8fzHH+vbrca/iLzGEyeGklh+9myoAQP0p13I83zxYqiCBfW6X+K9QKL848eP48aNGxHO382bN3H+/HlG+URE9OoY5RNRZIzyiSgqjPKJyBFG+UQUGaN8IopKpCg/3kSFRMZt8eIZ31mNJyLnwiifiKLCKJ+IiJzNK0f5dRqhwYB/OcrvvwLjd1zG/rC7uHrvAS7fvotJc+dj4MgxGDhiJHoNHIRWHTqjQ68+mLpgEfz2H0RI6EWcuXINc1esst3eqHVb9PYYik07duHWo8d4+Pd/cOGXG/Dy34V+I0YhS74CiJMoCVzc3N9NlC9BsMw+f+4cVI8e1rPQv2mvEuUnSQJVpw5Uw4Z6VvrIy+XTASTO3rcPqmbN55e/bblyQTVvDlWtmvVyKzEwypcg/9q1a7h06dIzly9fhq+vb8yK8s3nfK9e+mII4zHYPinibUf59jp21K+3tm2hSpWyHvMiMvP+N99A9emj/6JAXhvyiQ8VK0KNGgXVty/UV1/p57/V/e1IlH/06FHb+bI/f+L06dOM8omI6NUxyieiyBjlE1FUGOUTkSOM8okoMkb5RBSVSFF+kV0KVbspfP658Z3VeCJyLozyiSgqjPKJiMjZvE6UX3/AcOSp3fyNyF2rGbJXbxi9KL/vEozffhH7L97B5Tv3ceGXmxg3cw5qN26GitVroddAD5y9+isu3ryNG48e487vf+DnW7dx8PgJ1GvZFp8W/wpfff8DOvfqhz1HQnD78RPc/eMpTv98Dev9/NFn+Ehk/fAjxEmcDC7uMjt2nOf3w5whPHt2HSULman7xx+hQkPDo3wZFy8eVI4c4ePy5NERvLu7XpfMki8xed26UJcuQY0dC/X55zoWz5IlfJyQCwRkFn2Jes31yTg5h/bjXoaEx1u2QK1dC/Xdd+Hrk32R4F4enznWzQ0qZUqonDn1GKvtSbBcpAjUtGlQR45Ade6sx8p9ZAZ9WYf9+BdJlkw/NlmHzMovj1tuk2MpX+PYnRfZVzne5vj06SOuyyT7nDlz+DhRtizUoUN6RvQYEuXLbUeMY7h3795nZIy38QtsjIry5eIROX5yMYl8bdAAyjgO7zTKF7VrQ82YoS8MkHMa3RnzJcCXvyAwzpvtEyvM283XrlxoM3y4fj3a38+CRPmHjOeThPn25+/w4cMICgpilE9ERK+OUT4RRcYon4iiwiifiBxhlE9EkTHKJ6KoRIry+xg2hih07mx8ZzWeiJwLo3wiigqjfCIicjavE+XX7TcUmavUfWMyVq4drSj/+z6LMHHnJQT98gi3/niKqw8eYeDYiRg5ZTrWbvXF7qCj2HP0JPwDj+J42BUEnQ3FzEXLUOSrb7DCyxvee/Zh+SZvzFu5FrNXrMGpK9cRevMOAk6dh+cWX/QbNRYZ8xaAS+JkUPETQrnZxekmicBlVvhly3TQLQ4fhjp+HOqPP8KjfIl6JXJfsSJ83K5dUAsW6KBf1lWwoI6JT5+G+vNPqKtXoYKC9OztErhLkG5uV8L0YsWgVq8OX9/27VCjR+vY3Bz3MiTK37sX6vZtqODg8PVt3QrVvXvEmfAlyJeLBjZt0mNk9nBz/03ffquXX79u/FD1COrCBT1WZuOXX7okzLcf/yKyfzt26HXMmaMfd4UKUCtX6mUS5ptj5VjLMdy2DergQajevSOuyyTHaMIEfczMx3vsGNRvv0GtWhVjonzxyDiGDx8+fObmzZvw8/OLWVG+ebFG0aL6q3xCwb8R5ctzVZ5/AwboT2l4wXvIc95wlB8SEoLbxuvK/vzdvXsXoaGhjPKJiOjVMconosgY5RNRVBjlE5EjjPKJKDJG+UQUFUb5ROQIo3wiigqjfCIicjavFuXnxk/1GqPdqAmoNXAYvmzeAblqNUbWavXwYb1mqNRrIL5s0R4FGzTHRw1bonjrzqjvMQoNhoyyLZPv89RpigyVaqFs1z6o1X8YqvUbgh+69sanTdqg1fAxqNK42Quj/NK9FmC0zznsCb2Naw8f48bvf8FjwjRbmC+h/dZ9hxB09hIOnDqHrQcCsXjdZgyfOA0tOnRC0LlQ7Aw6hrkr12HKwuVYuM4bxy5dw/kb9xB4NgyrfHagz4ixSJ87P1TC5FDxEkHFiTQjfIoUxi8XX0C1aKED71mztLlzdTB+/354lC/xvhzfQYPCx02fDjVuHFSrVjrI//BDqNatoTZuhHr4ECogQEf7kyZBdekSMY6XWfUlIJb1269Pfrlp2VLPwi+z89vvb1QkbN+5U89yLhcXmOubOlXvb8OGekZ+GSuz4JcurfdJAmWJrvPli7i+zz6DGj9ez5J/44YO32V9EvDLJwjIrOr241+kXj2oixf1xQmyT5066YsF5Jh36wZVrpw+xjI2dWp9PmS/5JMKpkyJuC75hAF5XskxGjlSHzPz8cp9JMaWrzEkypeI+4ZxDK9evRqBr69vzIry5bkmYb5cLCJfK1d+vSg/YUL9HJbnXlTk4gw53/b3k9eZBPOVKkHNnAnVti3Ul19CJTdew/bjovKGo/zg4GDb+Y98/s6cOcMon4iIXh2jfCKKjFE+EUWFUT4ROcIon4giY5RPRFFhlE9EjjDKJ6KoMMonIiJnYx/lZ8uWDYkTJ0ayf2YeT5QoEZIkSYJ4EqTa3SlLzlyo0KAJBkyfg9kbvFFnwAh83rQd8tRugpJtO2PCynWoNWAYSnfogbJd+qDZ8PGYu3EL5m/ywfBFnmhifF+8TRfbrPgD5y7GbGOZ3Kfr1Nn4sVs/dBwzEVWbvESU32MehmwIwZbjP+P8zXu4/fT/YcS0OWjXZxB6jxiHBeu8cPH2bzh++Rfjz5vRb/REeEyYig3b/XHp7iOs274HA8dNgcekGVi/Yx+Cw67jws0HCL54DWv89qCXsY70uQpAJTCOR9yEUK6RZsqXme87dIDy8YGqWhWqSBGtVCmoWrWgLl0Kj/LjxNEx+tdfQ5Uvr1WpouPwLVugGjfW0b6EwBLpX7miA3QJ4CX8l2A/fvzwbUv4nCYN1DffhK+venUdq5v7IwG6/f5GRaJ8mRVfZrKXfTIfh2y7Rw89c7yMkbHmJwOUKWP8sOQHtWEDVP78EdcnM6XLfefN058Y0K+fXt+nn4ZfoGA//kXkFzWZbV8i+jZtoBYu1LG9hNdyjOQCAFm/jJXnqkTNEmPLJxbMnh1xXXLcatTQvwA2baqPn/l45Xa5kEBi8hgS5cvr89SpUzhi7JdJgu4txnMmRkX5kcm5eZ0oXz5NQS62kNdGVOTiDAn3I99XLgyQ54Dsw+LF+jkT+dMcovKGo/zDxnMw8vmT2fMl1meUT0REr4xRPhFFxiifiKLCKJ+IHGGUT0SRMconoqgwyiciRxjlE1FUGOUTEZGzsY/yv/zyS5QrVw4NZRZqY2HZsmVRpUoVFJRZ3O3uJFF+xQaNMWjGXCzy9kPnSTPxU7d+KNy8Pcr17A+/oKNoMnwsqvYejFajJ2Hw3KUYPGcxPOYtxdAFnhgwdwkaDx9vi/IXbNmGjfsO2aL8psZtJdt0QbuR41ClcdMXR/ndZmPohuPwOXEVoXd+w53/AIMnzkAbY7sDxk/DSt+duP3X/7D14BGMn78MvUdNQL8xkzFj+WqcuHoL2wNDMHvlekxduhLLvHdg/6lQHP/5JgLOXcbaHfswaOJMZMzzMVT85FBuFlH+x8ayMWOgjOMXIeCVeF72XQJeM8qXGDxtWh3cS6QuPDz0bN63b0P17atj9sSJoUqU0LPWSxAf1azyEgnnzKmDY3N9w4ZBLV8Ode+evj06Ub4E+RLRZ8sWfrtE/+3bG784HdMzk9vfR8L8FSuso3xz+eDBUPv2QdWs+fzy6JBf1E6e1BcwSGgtFxBImC8XKkj4LftgPFcj3Of77/VFA5GjfLkgQB6TzLwv0fc/F6DYSAwts/HLumNIlH/37l3b7RcuXHgmLCwMPj4+sTvKl+e9XCghv6xHRS48yZz5+fvKJ1jIa8h8TVSsCJU+/fPjrLzhKF8i/IvGc83+/IWGhuKk8XxmlE9ERK+MUT4RRcYon4iiwiifiBxhlE9EkTHKJ6KoMMonIkcY5RNRVBjlExGRs7GP8suXL48hQ4Zg6dKltoUDBgzAuHHjUKFChQh3kii/fP1G6DJ2MjpOmIG+sxei1ZhJKN9zAGoMGIbdx46jen8P1DT+PGyRJ2au34Jv2/bAt+17oc3YaZi4aiNGLFlpi/KX+G7HPG8fNBw6BrlrNrHd1mTQMFRu1OTFUX6X6Ri1+SR2X7iDK4+e4pc//4OeIyeir7GNpd47EHAuDNef/IHJS1Zh+MyFGD5jAboMGYMKDVtix9EzOHHtFvacOIOVvv4YNXsJfAKO49C5y9gdcg6r/fZi2PQFyJS3EFwSpoRLvKRwcbObqV68bJQv4a3E7j/+CLV9O9TZs9r58/q+f/0VvSg/YUK9/vr1oXbuDF/fhQtQ169D/f03o/xYEuU/ffrU9vXJkyfP3L5927adWB3lv6rkyaGKFYPq3x/KOJaWz01H3nCUL+fz3r17Ec7fw4cPbRdWMMonIqJXxiifiCJjlE9EUWGUT0SOMMonosgY5RNRVCJF+S3vKUzbotCwofGd1Xgici6M8okoKozyiYjI2dhH+Xny5EHWrFltX2VhlixZkD17dqSUWNzuThLl/1S3AZp5jLTNbD900QqMWbYaXSbPQrOREzBt3SZ837kX6g4egTleW3D49Fms3L7HsBeb9h7Gxj2HbOMlwJ/t5Y0Jq9ehcp9ByFS5dvSi/E7TMGz9MWw9fg3Hfr6NoLBfMGTaAoyYtQQLN23Hhj2B8D4YDP9j5zBy9hI06dYfXYaOw5aDx3Hi2j1MWbIGdVt3Qa2WneAxdT52Hr+AC7cfIuTKL7ZZ9lv28kCaLHngljQd3FOkh1tCu4BbvGyUL4F47946fJcLHD77TCteHKpBA6jLl6MX5ct95ZcYiZ4lqDfX9/XXUN26QV27xig/lkT5V69exTHj+B84cOAZmWXd2/gFllG+hWrVoCZN0jPkf/qpvoDFalxU3nCUHxAQ8Nz5CwoKss2gzyifiIheGaN8IoqMUT4RRYVRPhE5wiifiCJjlE9EUYkU5adfqPBBaYW0aY3vrMYTkXNhlE9EUWGUT0REzsY+ypcI393dHfElKjcWyp+Fm5tbhDtJlF+2Tn00GDAE+eo2xbBFyzHPywcTPdehx9Q5aDNuCgo3b48axvLpGzZhR1AwxixfizFL12DOxq1Y6uOP4YtX2AL8mRu8MNZzNSr07I8MxvfRifK/7TgZAzwPYfXB8zhw7iqOXr6F0fNWYNKStfD0249N+45i1Y4DWLTZHwMnz0WXYRMwcclqnLl5H0u27ETPkZPRvNtAdPEYh1lrtsD/eCiCLl7HrmNnMGetN1r0GoLU2T6Ea7IMcEueAa4JIwXyLxvlS4g/fjzUkSPhobDE7xUrQo0dC3XrluMoX0LyjBmhqlfX0fA33+iAfvNmqIIF9fpy5oSqWxdq7lyou3djZpQv+/n553p79tt5ESeO8mVWfJlV/cyZM8+EhoZiq3EMGOVHItvs2ROqVy+oqlX18+1lXwOmTJmgatSAmjkTqkMHqMKF9XNVZt9v1w5q6lS97kgXKlmRKF8C/PPnz0c4f+eM17acZ0b5RET0yhjlE1FkjPKJKCqM8onIEUb5RBQZo3wiikqkKD/ueIV4+RTc+LMDEQlG+UQUFUb5RETkbOyj/EwSpFoNisSM8uv2G4zMVepg4LxFWO63A8t8d9gC/W869kCeOk1Qvkc/jFy6AkuN21uOmozmIyag78z5GLd8NfoYXyXAn7HOC2OWr7KNle+jE+V/03ECei3djSW7QrDn1GWc+OUhJi/fgBmrvLFyxyGs3R2I+Zu2o8/4meg+cgqGz1qCFX57cObWXXTwGIMWvYdi4KS5mLVmKzYdOIYdx0Phd/Qs1uw8hEnL1qHdwNFIk+tjuCRND9fEaeESL3HEfZAYfcAAqOBgqK++gkqfXpOI1wzrJcqXCF1m15ZAXWbHlzES+cp99+83fvh4Eh7lJ0oE9eWX+naJi3PlgsqePTzEr1xZz4g/fTrUunV6rKxPbpPAX8L/P/6IfpQvvxBJZP/FF+GPQ6L3zp2hdu7UobKMlXXKPsrFAOvXQ/n46MeaJEnE7aVLB9W9u16vBP2yvnz5oNq2hRo1Sj9+c+yL2Ef5sq/Ll+vZ0GV9kaP8OHGgkifX+7tnD9TSpVCpU+uZzl1cdJTftClUUJAeI8fXfLyyT3KOFi2KMVH+48ePcf/+fVucb5J1btu2LWZF+XLu5WIU81g2bgy1Zo0+N+Ztcl7kPFjd/1XJ+Zbno6x/2jR9IcgPP+i43mr8iyRIoF9v330HNX++DvHlOSeBvjyX5EIOWbe7u/X97UiUf/z4cch7rP35u3nzpi3UZ5RPRESvjFE+EUXGKJ+IosIon4gcYZRPRJExyieiqESK8tUoQw6D1Vgicj6M8okoKozyiYjI2bxOlF+n7yBbRN9+/FTM3rQFq/x3Y/zKNchduzEyV62L4q06os2YiRi7bBVGLFlpC/Y95i9Br+lzUHfgiPAo31j+SlF+h7Hou2IvVh44i4MXfkHILw+xZOseTPX0wrhFazBs1lL0GjsDzXsPRfvBYzFg8jyMX7wKc9ZtRu32PdC4+yB4TF+ExVt2wz/kInafumz7umFfMGau2YpuIyYjXa5PoBKmgYqfAsotQcR9kPD8xx+hPDx0DGwaNkzPqH37to7yZbZtmcU78jj5RURCe5nZ3ozyJfbNmlVHwJHHy/cSjktILrPiR14+ejTUqlVQDx5EP8rfsUNfXCCxu/06hVwc8IlxHGSszORvXlAgofzZszqyL11ah/nmOuXPciGBhPnmegYN0vssj02Cf3Psi9hH+Z99BlW/vr44QY5D5Chfwm/5RAGZIT8sTF+k0LGj/uQCicYl4pYLGcxjJ/tk7t+UKVCXLunoP4ZE+XeN58bVq1dx8eLFZy5fvgwfH5+YFeVLzC4XqZjHUmbIDwnR5828rVYt/YkOVvd/VXK+5fko65fXmnz6hHxKg9XYlyXPEfmECgnyzX2X53uXLlBp01rfx4JE+UePHrV90oH9+ZPvT506xSifiIheHaN8IoqMUT4RRYVRPhE5wiifiCJjlE9EUWGUT0SOMMonoqgwyiciImfzJqL88t37o9vUORi7YjX6zV3wLK7PU6sRvmnbFe3HT4F3wGFsPngIE1etRYMho/Bpo1a2MR7zl6LXjLn4rlOPZ/d76Si/3Wh4rDmEzceu4OiVuwi8dBNbA09jqucmdBs52RbdN+jczzYjfpMeg1G7fS9UbtYRZeu3QgePseg+aqot1JeZ9f2Cz+PA+eu29ew/exXLfPehu0T52QtAuaeAipsUKk785/dDZl6X47ZxI9SZM89r316HvBKE58kDtXmzvl3ieQnrZcZ5+WVEgvNkySKuu0cPqMBAPav7woV6Bm9zmcTxMju/zFQv65PZ3cuX13G8ry9U7do6jJdZ+yWWtiJhvETNsh4J0e33W8hs/f37R4ycU6XSs6DL7PnmuL17obp21RcpmONMWbIYP2BN1ON27dKPM00avUwerxwTq30TEizLY5ALGuT4ysz2KYxzYa5bjvvIkTqml9n65bbMmaHGj4c6dCh8/7Zte/6iAbnwYdYsqMOHw8eZ5MIEif/NsVF4F1G+3FfC7n379j0jY7yN50yMivIlYpcZ6iMfS3uTJ+tPirC6/6uS8y2ffCDrL2C8Vq3GvI7mzfUFNg0aWC93QKL8Q8bzMDg4OML5CzRe00HGa9o+yv/MeL4NHz4cCxYsQDZ5zUZaFxERUQSM8okoMkb5RBQVRvlE5AijfCKKjFE+EUWFUT4ROcIon4iiwiifiIiczZuI8j+o2RD56zfHJ41boWCD5s/i+kyVayN79Xr4sF5TFGnVAUVadkChJq2Rp05jZKlSxzbmo4YtUMC4T/Ya9Z/d76Wj/Daj0HfxTizfHYJdIRex59QlbD18EpsPHLPZtC8YG/YcQbuBo/BN9Yb46Oty+Pib8vi+VhMs2uwP36DT2BZ0xnAavoGnsO/0ZQRe/BU7j1/A7DVb0LTbAKTO9iFUorRQCVNBuSd8fj9cXHSYLzOASxQcmQTobm561noJ82V2d7ldYlyZGV9mGJfbUqfWM3Tbr1sidwnnhQT58eKFL5P1SZgvs2rL+mS5RO4Snsttsu6iRaHmzoU6fdqazIxfrZpeT44cEfdbyPGXIF8en7ldeSwS5ktMbz9O9tV+nElm/pcwX8bJfeRxyjpkWblyULt3W++bWL1az7YvFw7I8ZUg3/4YmRdEyPrlMZjbk1A7X77w/ZPjIcfF/r4yTuJnObbmOJOsL6HFuY7kXUT5T58+tX198uTJM7dv37ZtJ0ZF+ebs8pGPpT378/SmyHmU55SsX15LVmNeh6xbLuCQ15PVcgckyg8JCbF92oH9+Xv48KFttnz7KD+h8XzLmDEjshuvY3d5TJHWRUREFAGjfCKKjFE+EUWFUT4ROcIon4giY5RPRFFhlE9EjjDKJ6KoMMonIiJn8yai/IyVayNzlTrIUrWO7asZ12eQZZVqIVOV2sharZ5Nlqp1bbF+BuN2GSPjhYwz7/fSUX6r4eiz0A/LdgbbQvq9Jy/CJyAEvoEn4X/sHHafuIg9J8PQb/wMVGvREd/VaIgf6zVHy16DsWr7fuw0xuw6fh7bj57BVuN+MvbQ+avYFngKU5etQ9223ZAyc26oBCmh4ieHcrOYKV9ImC/BvETBkUmALstlnIT05jj5asb65p/NcSaJziXkFxLqRl5uvz5ZLmG0MNcnEXybNnrmdytjx0IVKRJxPfZku7IP9tuVP8u6ZZmjcfbjZd/McfaPU2ajHzLEet9E9+46tjYfk3yNvC+yXVm/PAb77dnvX1T3jTzOZL8+B95FlH///n3bOiKP8/X1jVlRvhxPOcaRj6W9lzyu0SLbleeUrP9Nr1vIumW/5avVcgckypdPOYh87sSZM2ciRPmuxr7HNZ7LEuS72D9PiYiIrDDKJ6LIGOUTUVQY5RORI4zyiSgyRvlEFBVG+UTkCKN8IooKo3wiInI2rxrl/1inPhr090DOmg3fuOYeI1ClUdMXRvklmw9Gr/k+WO5/BLtDzmP/qTD4BhzHtsAT2HX8HPafDkPA+auYuHAlOg0ehRY9B9m+jl+wAut2HoRf0AnsOHra+HoSWw8ew54TF7D/TBi8Dxy1janRvANSZPgAyj0ZVFyZaT2e5X7EWOas+RK/WylUSM96b3Xfd0FmH//oI+t9EzLbvcz+b3XfGOBdRPlyfwm4Je42yfdbtmyJWVE+PUei/MOHD+PUqVMRzp/Mnn/s2LEIUT4REVG0MMonosgY5RNRVBjlE5EjjPKJKDJG+UQUFUb5ROQIo3wiigqjfCIicjavGuWXq1MfbYaOQqVufd+4zqMnoFrjZi+M8gvV74uO0zdhid9h7Dl+FgdPX4Tf4eM2u4JP4+Cpiwi+eB2eW/0xdckqTFq4AvPWeMHn4FFsPXAEfoHH4X/0JPyPnIRfwHHsDTmHPSFnsXHXQYyetRDVmrRGiow5oOIlhXJPDBXH3XI/yDm9iyj/3r17uHr1Ki5evPjMpUuXYt5M+fQcifKPHDmCsLCwCOdPvpdQn1E+ERG9Mkb5RBQZo3wiigqjfCJyhFE+EUXGKJ+IosIon4gcYZRPRFFhlE9ERM7GjPI7d+6MTz75BGnTpnUoQYIEyJQtG74pVx7Nu/dChwEeb1zbfgPxQ5VqyJQ9u/VO/yPT901Qs980jF+6ERv998Jn/2Gs99uNdX67sMl/H3wPBGLfsVNYv303lm3ciuWbtmLjjr04EHIWm3cfsNm69xC89xy03b55137b2Hkr16PP8DEoW6MukmbICpUgKVS8xFBujPIp3LuI8p8+fYrff/8djx8/fub27du27TDKj9kkypdZ8e/evRvh/D148MAW5ttH+QkNmVxdkT1RIrjLp1sULEhERBS1FamgbsaF+o8LVFAi6zFE5Fy+/BCqXbbwfxjfb/z+2tn4XdZqLBE5F3kvkPcE+U+CW3mvkPcMq7FE5Hz6ZoI6ljD8PaL+B1CfFLAeS0ROwngPKJQf6mx8/d7wczyomWktxhGR06mSC2pRav3eIP/NTwNVNo/1WCJyPrVzQi1LETHK37nT+J2jr/V4InIeS1JB/eEK9cRwMDHUT2xiiIgoFstj/J5sRvkSEg8cOBBdunRxqKBxx2TJkyNR4iRIkSo1UqZJ+xakQeKkSRE3btznQld7cROnQN5CX6BS7fpo270Xug/0QJf+xmMwyJ/7DB2BIeMmoJfHMHTuOwCd+vS33T547Hj0HzH6GRnXbcBgdOk3EO169Eb9lm3wXYXKyFHgI8RLnAwqbjwd5LvGsdwPck7vIsqX24KCgmzrM0no7e3tzSg/hpMo/9ChQzh69GiE8xcQEGA7p/ZR/ueGUYkSYUmxYsi+YwfUxYtERERR+834GeC/GaD+z/j59M8i1mOIyLlcCjF+uZ8b/g/jf5SCujHTeiwROZcbM/R7gu0/F/1eIe8ZVmOJyPncGgv19PPw94jra4zbzz8/joicSKjhDNRf+fV7w985oO53jDSGiJzS1a1QD1r883OD8d+DNlBXdluPJSLnc20D1M2aEaP869eN3zluWY8nIufxsCnU/0tkSAz1R0nj5wd/63FERESxwW7j92Qzyl+9ejXGjh2LQYMGOfTZZ58hSdKkcHWNgzhubnB7S1zjxIGLi8tzoas9F2MfUqVNh3wffYKiX3+Dr8v+hFJlf0SpH8ra/vxdufIoW6Uqvi1XDl99/wNKfPc9vipdBt8bt5cuXwHfV6hkfK2Ib38qj5JljOXfl0HRb79DoaLF8UH+AkhurDuOe3yoOHGhjH1Srq6W+0HO6V1E+TIr/qVLl3Du3LlnLhovXh8fH0b5MZxE+UeOHEFoaGiE83fhwgWcPHkyQpRfPGNGzDHep3x79kSuUaOgxo0jIiKK2qSSUFOSQ001fj6dbPy/xGoMETmZ4VATmumPiBaT8xnfN7YYR0ROR94LJucNf3+Q9wp5z7AaS0TOZ2Id43eL7HbvER2M28c8P46InMxo470hk35fmJIGalIZizFE5HTGdzfeD75+9nPD5/u+Q7mzffHJdouxROR8xneCGvMlVG/jPSKdoUIFHeZPnGg9noicx6RSxs8O8QzxoSbnMd4veluPIyIiig3kk6LMKH/t2rWYMGEChg4d6lDhwoWRJEmS5wLUf4t7vHhIkiw5UqVLh3RZsiB9lqxImzmLIbPt+4zZs9u+ps6Y0TZGIv406TMYyzPZbk8rjLGpMmTQY4yvydOmRaLkyRE3fny4uLkZ4uivjPLJzruI8h8/fox79+7h1q1bz1y/fh3btm1jlB/DSZR/7NgxyHus/fm7ceMGzp8/HyHKL/npp1g4bBj8PT2Ru2xZqE8+ISIiciC1wd3gYkj8z21E5Nw+MuQwGD+L2iQ1ZDdYjSUi5yLvBUkM5vuDvFfIe4bVWCJyPlkNiQzme0Rug9U4InI+CQzyvhDPkP6f24jIueU1pDXonxuaTUmLibs+RL2xVmOJyPkYv0t8lBIqr/EeEd+QIQNUwYIW44jI+aQxuBriGOTvKT80WI0jIiKKBT40/j/3vkf5ysUFLq4ucHWLgzjx4sLN3R2u7nHhGlezfW98fRbVG2OFLbSPa9z2DxUnjr6fjZtxH2N5HFdjva6IY/zZVcYZ31vuAzmldxHl371713a7zK5uCgsL40z57wFzpnz5ZAP78ycz50eeKb9kyZJYuHAh/P39kTt37ufWRURERERERERERERERBRT9OmjsHGjQufO1suJiIiIiIiInJIZ5UsQ2rdvX7Rv396hAgUKIFGiRNYr+xe4uBgkso8jsb1xm/F9VFyM5SarZW5xJcA3uOkY39XNxXabm3scHeYzyic77yLKl/sGBwdj//79z8gYb29vRvkxnET5AQEBz52/wMBABAUFRYjyP/30U9tFT/PmzUPWrFmfWxcRERERERERERERERFRTMEon4iIiIiIiMiCGeVLcJ8vXz4kS5bMIXeZeV5mnLda2b8gThxXxI0bB26GyKG9Pdc4EthrcdwihvmucSTIV3CP52pbLpG/3C5jZJmLMMdb7AM5p3cR5f/999/466+/8PTp02dk9vwdO3Ywyo/hJMqX83n//v0I5+/Ro0e2Tzuwj/LjxYuHlClTIm3atHBzc3tuXUREREREREREREREREQxBaN8IiIiIiIiIgtmlN+iRQvbDM1x4sRxyMXFxXpF/5I4ri6IKzPau7nCxfheuBq3SawvXF31bXFkJnw3TW6z3S7h/T9sYb6xHluEb/veWG9cVyRI4A53mSnf+F5ut9oHck7vIsq/d+8erl27hkuXLj1z+fJl+Pr6MsqP4STKP3LkSIRzZzp16lSEKF/eVyXGFzHtPZaIiIiIiIiIiIiIiIjIHqN8IiIiIiIiIgtmlN+sWTNkypTJelAM5honDtzc4yKOuztcXCRolbDVHXHd49m4xolru02+xomr6e/1bbblrv/cJl8NcptbXHfEix8PSZIkRvwECRDHTcbEnE8IoH/fu4jy5fV55swZBAcHP3P27Fls2bKFUX4MJ1H+4cOHcfr06QjnT87xsWPHIkT5RERERERERERERERERO+L1q0VZs5UaNzYejkREREREZElV0NiQzZDLkNGQwKD1Vii99H7HuW7uCeEa+JUcE2UBi5xktm4xk0Bt3gp4RY/JVyMry5uyeES3xiTMA1cE6TW4+IatyVIZTDuF8/4+s99XeLq+7ga4+MmSIn4xnrjyn3dksLFJZ7lPpBzehdR/v3793H9+nXb7Pj2OFN+zCdR/tGjR587d0JCfUb5RERERERERERERERE9D4qUkShcmWFzz6zXk5ERERERGRJAvyPDX0MYw0tDDkNVmOJ3kfve5QfN1k6JMleCKnzfoWMuYobiiFjTkPu4siUrxSyflQaWWTZh18jfYFvkSH/18hkLMuYuwTSGrenzlMSaY0/y32zG2My5CmBZFk+R7xU+aDiZ4WKl8X4aoiXASpOUst9IOf0LqL8p0+f4vfff8fjx4+fuXXrlm07jPJjNonyQ0JCcPfu3Qjn78GDB7h48WKEKD9RokTIkiWL7ft48XjxDxEREREREREREREREREREREREcUyKQw1DJcN8p+f4VuD1Vii99H7HuVnyv0Rvq7RAs0HTsWIhd4YMm8TPOZswLD5Xhi73A+zNwdg8updGGp833faKvSfsQajFm+1fd9l7CK08piBjqPm28Yv2haMAcbyck16IsenP0DFywyVKDtU0pyGbFDxU1ruAzmndxHlX7p0CQEBAdi5c+czx44dw+bNmxnlx3AS5R88eBCBgYERzp/cdvjw4QhRfpEiRTB58mSsXbuWs+cTERERERERERERERERERERERFR7MMon2K7V4nyk6dMiXwff4Kvfvjxrcn3cSHbdqy2b0r5eRWUaTcCA+eug+euw/ALCcPWY6HYFHQeGw5fxOYjP2PHmRvYfuqa8f15eO45iTUHTmP7yUvwCrqI1XtDjPsdwdr9x+B7/CIO/3wXXoHnMGbJJjToOgwFi1dGApkxP2E2qAQZodyTWe4HOad3EeXLLOty/9DQ0GfCwsLg4+PDKD+Gkyj/yJEjtlnx7c+ffH/ypPFeZBfllyhRAvPmzYOfnx9y5cr13LqIiIiIiIiIiIiIiIiIiIiIiIiI3muM8im2e5UoP1P2HChTtTpa9RuIRj36vDENu/dGg2690NpY7w/VaiBzjhyW2zflajgJ7ZYEYv3xqzhz9yFCf/sDJ24/RND1Bzj0s/H12mOcuvcXdpy+jO0nf8beC7dsy87ee4ydZ65h97mrCLpyCyduPcC5h3/g8u//wZl7T+B3Igzjl21GtVZ9kTzjx1DxM0PFSw/llsRyP957iRJBZTYeY4YMUHHjWo9xBu7uUFmy6OOQMKH1GDvvIsp/9OiRLcy/devWM7LObdu2Mcp/F1Kl0q+NFCmslzsgUb58qoGcL/vzd+PGDZw7dy5ClF+yZEksXLgQ/v7+yJ0793PrIiIiIiIiIiIiIiIiIiIiIiIiInqvMcqn2O5VovxsufOiYuOm6DhmEir3GPBmdB+ACl37omzH7ug8ZgKqNWmGD/Lms9y+qUjPtRi28xYO3PwLN/8H/PI3cOyX+zh06TYCLt3DiZtPcN24beT8lZi7aQcOXfwV5x88xenbj43vd8FzZyAOXPgF5+79gSt/Atf+0us4deshVu0KRLvBU5A2ayGoBMZxSZgh9s6U/+GHUM2bQ9Wu/UrxcayRJg1U27ZQdepA/RNLO/Iuovzbt2/j0qVLOHv27DMy0zpnyn9HvvsOynhvVKVKWS93wJwp/8KFCxHO3/nz523nmVE+EREREREREREREREREREREREROQ1G+RTbvUqUnyVXHpSt1wgNBo1Avrot34i8dVrggxqNkb5iTTQZNAyVGzVBjrx5Lbdv+mHAGozb/Sv2X/8dV//4H678AWwNPI+N+0/BJ+g8/I+dx96QU/i8TDU07+mBLYeCcermb9h37ib6TVyEobNWYsnWQ9h29BICLz/A+Xv/wfU//g/n7/yGzQeD0XP0bGT44DOoJFmgkmaGSvAawbqrq3H/BFD58kGlSwfl5mY97t/w009QXl5Q8+ZBZctmPSYymVFfxmbPDhU/vvXy9OmhcuWCSp78+eVvW5IkUDlz6lnOrZZbkRja3x9q4UKokiWtx9h5F1H+1atXERwcjAMHDjxz8uRJeHt7M8p/W1xc9PNX3n/69YNasACqRw998YrVcz0KEuUHBATYZsu3P39BQUG2WJ9RPhERERERERERERERERERERERETkNRvkU271SlJ8zD8rWaYQGA/7tKH8lhmy5CK/jv+LUrw9x4y9g3vrtWOK9F8u37EOvoZORLHUOuCVIhx+rN8XUJRuxIzgUB87+guCfH2DV9sMYMWsF+k+cjzHz1+DQhZu49PA/OH3jAbz2B6Pf+LnIVLA4XJNnhUuidFDuiS3346VIkF+gAFRAAFTPnnpWdqtx/4ZXifLlwgIZv2yZjpcjL5cgv3dvKB8fqCpVnl/+tn3zDdSGDVCTJlkvtxIDo/z//ve/NrIu071797Bjxw5G+W+LBPkZMkAdOAA1ahRUrVr6a0iIDvOt7mNBony5gOK3336LcP5+//13XL58mVE+EREREREREREREREREREREREROQ9G+RTbvddRfv/lGLP9EnZfvI+rj57izn+AUbOWouuQiegxbDJ6eExAx17D0HvQSMz3XI/dR0/j2KUbOHz+V4ycuQxNugxE7dbd0bbvSExduhGnr9/Fraf/Q+itB/Dac9i2jgy5CkElTg+VMA2UeyLL/XgpEuV/9BHUyZNQ/ftDpU1rPe7f8CpRvsxEX60aVO3a1hcYSNQ8cCDUnj3Gm2iN55e/bRI7N2gAVaGC9XIrMTDKv3v3ru3+oaGhz4SFhcHHx4dR/tsgr8vvv9fP3UGDoMqUgcqfX79G5Hu5/dtvoZImtb6/HYnyjx49ajtf9ufv4sWLOHXqFKN8IiIiIiIiIiIiIiIiIiIiIiIich6M8im2e50ov/6A4chdu9kbkatWU2Sv3jBaUX6Zvksw0f9nHL72CLf//A/u/PX/MHDcdDTq2Adteg3B8Cnz4bXzMLYfDETw+Ys4e+0Ggs5dxmqffWjd0wOVGrRC9SYd0HngaCxavw3nrt/CnT/+Rtite/Decwg9ho5H+mz5oRKkMqSEck/4/H64uOiZtXPlgipYUJMZ8SWsjR9fj5EgX+JbidjDwqCmTYMqVUrHvjlzQsWLF74+V1eohMZ25P7m+mRc9uzh4xIl0vG8udwks3hnzWrsp3v4+l6GBMdbt0KtWwf1ww/h68uXDypjRv34zLFublCpU+vHKMFysWLPB8ryfYkSUDNmQAUHQ3Xrptcn51MCflmH/fgXSZ5cHwNZhxxHuSAgRQp9jGRZnDjhY+WxZ8kC9fnn+nF99lnEddmPk2NorleUL68/yWDx4hgT5cvr88yZMzh27NgzZ8+exZYtWxjlvw3ynOraFergQaiyZfXzNXFiKHlvlNesnx9Uly76ohOr+9uRKD8wMBCnT5+OcP7kHMtXRvlERERERERERERERERERERERETkNBjlU2z3OlF+vf7DkK1agzcia7X6yFylbrSi/O/7LMKE7ZcQ8PND3Hj8FL/89hSDxk5DT49xmDh3OVZv3Y0Dx0Ox/eARHD0XhuBzl+Dp5YcGrbti1NS5GD1tPkZMmYdpi1Zjw/b9OHI2DJdv3cf567fhuy8Qg411ZcyaDypecqgEBqsoXwLzlCmh+vSBmjpVmzgRasCA8HBXInGZtd3TE+r+fR1+z58PNX48VI8eUOnTh69PwnsJdeX+5vrGjYPq0CF8dn25AKBly/DlpjFjoFq00NG8ub6XIfH6zp1QZ87oIN1c38iRUDVr6gDeHCtB/HffQQ0dqsfI9uz3XxQqpPclMFCeYFC+vnrssGE6+n+JWcYj+PJLqLFj9Tok8JeQvmhR/YkDskwuUjDHpkoF1aQJ1OjRerzM5G+/LpMcozZtwtcrli6FunZNn6cYEuU/ePDAFubLOkwyztc4pozy3wK52GTECCjjvNk+2cK8XV6XOXJAnToFNXy4fk3b38+COVO+nK/I508utGCUT0RERERERERERERERERERERERE6DUT7Fdq8a5f9YtxGaeoxCsVYdkbdOE2StWg+ZKtdGjhr1Ubh5O+Sr2wQf1GyInIb89ZqhROvOKNGms23Zh8b32arXtwX4nzZpjaLGOr5s0QGFjD/nrt0YLYaMRJVGTV8Y5ZfutQCjt57H7rO3cOnmQ5uRk2djyrzl2LLrEPYfPYPtB4LhudEXa7x3YPFqL/T2GIPPSn6PwyfP4cTFa/DZE4j1PrvhtWM/dgeewMmLv+Bk2C/Ytu8IRk+Zi0zZ88HFPSlc4hnc/pn53iQz4Mts6zJj/ObNUMeOaRKj+/hAVaigw/yPP4YaNAjq3Dmop0+hbtyAOnlSz8a9bJmOfWV9EpfLY5YQXmauN9d36BDUihVQP/6ow/xvvoFavx7q0SMd0pvjDhyAWrBAz/AdnTBfovy9e6Hu3YM6fTp8fXKbXDgg25MLD2SsRO9ygcGOHVAPHkBt2KAjefv1ff+9fvzyOJ88Md5AL+v1bdsGZTzPon3RgMTnd+/qYH7jRqjGjaE6dtTHqH17qE8/DQ/95TksQb7M0C/HZ/bsiOuSTzaQ2c/lGMkFCHIOzMcrx/LxY6hVq2JMlP/nn3/iiXEMHxmPxXTr1i3bdhjlvwVvOMoPCQnBnTt3Ipy/+/fv4+LFi4zyiYiIiIiIiIiIiIiI6L2ULp1CjhwKadJYLyciIiIiIrLEKJ9iu1eL8nOhUsMmGDl/MfwDg9Fy5ER82awD8tZpitKdemDF9l1oNXoiKnTvj0o9B6Lr5FkIOHkWgafPY4XfbnSePBsl2nazRfnT1nrB7/BReO07hMlrNqCex2h0nzAV1Zo0f3GU32MeRmw6ie0hV3Hh2m2E/XoPY6bOQesuvdGuR39MmLkQp8Ku4/4fTzFz3kLUqNMIHbr2Qej1O7h29xGWrPFCe2OcjJ8wcwHO/nwDv9z/HSdCr2K9z070GzYWGbLlgXJLBOUaH8rFLeI+FCyoA93z56E+/1xH+iJ5ch30ShguM97LcU2WTM/qfvYs1JAhOuaXsRL7Sigu6ytSBGr6dKhdu3TIb65PInKZYV5CfpkxX4JymdXdz09vxxwnM9ZXr67jcplJ39U14v5GRaJ8uahg0SJ9UYC5PgmPZXuHD0PVq6fHyr7KpwNkz67jdasoP04cHTDLsZHovX59vb74xjGU+5qP92VJfC4xtAT41arpfZVPGvjkE73Pq1frCyNkrKzb3R2qXDkof//no/y4caFat9bHqFIlqHTpwh+vHEs59gsXxpgoPywsDAcOHICfca5NMvu6l5cXo/y34Q1H+XLuAgICIpy/vXv32m5jlE9ERERERERERERERETvox49FFatUmjf3no5ERERERGRJUb5FNvZR/lFixZFpUqVbH+WhRUqVEDNmjXxsQTidneSKL9Cg8YYOGMu5m3yRedJM1Guez980bw9yvXoB7+go2gybAyq9hmMNmMmY/C8JegzfT76zlxo/HkZBsxdiqYjJ9ii/AXevli/ez/GLF+NBh6jUaxVJ7QdMQ5VGr/ETPndZmPY+mPwO3YZYb/cwa2Hf2Kgcd+eg4Zj+oJl2LbnMK7e/g0rN3pj8ozZGDluMoaNmYjRk2fi+LlL2H/0JDw3bMWshSswff4y7A0MQei1mzh3+Rq2+O9Ff+MxZMiSC8o1gcEdyiVOxH2QWeslBpfwfuhQHetKOC5Bt8wG36oVVKlSUEmSQCVMCFWokI7BZdZ8CeglmrcP1IsV0xH5vn1QH36olwsJ+kuX1vF/5856xvwlS6B8fXVEb46T2eyrVoUKDdXhudxmv79RkSjfy0uH7hIem+uTYF0ej1xcILPjm+NlnzNmhPL0tI7yZblciODhAbV/P1StWuHrjG6QLyQ+lwsS5HhWrgy1ZYsO52W7chzkUwPkQgVzvGxDzsv27dZRfrt2+hiVL2+8yacI3zc5lhLyx6Ao/969e7h27ZotzjddvnwZvsa5Z5T/FrzhKF8uoLh06VKE8ydOGethlE9ERERERERERERERETvo969FTZsUOjUyXo5ERERERGRJUb5FNvZR/nffvstWrVqBQ+JqY2FzZs3N36R7oSvvvoqwp0kyi9fvxG6jZ+KntPmoffM+Wg2Yjx+6t4P1fsPgV/gEdQaMBQ1+g/FoHlLMHPdZjQaPAaNhowzxi7EhJUb0H/uIluUv8jHD4u2+qHtuCn4oll7fFCzIZp7jEDlRk1eHOV3mYFha49g29EwhF2/jTuPnqKvx0h4jJqANZu34cipC/j5xj1MnDEP46fOwIy5CzF28nR07NEPgSfOIcjgtW0XlqzagDmLPbHrYBBOX/wZIedCsWHrdvQaNBzpM+WAS5wEcHWLb3yNG3EfZEZ2ieu/+AJq6lSoNWugpk2DMo6bbaZ72f9UqfTs8DITu9wmUf7AgTrot1+XkCh/zhwdsufLF367RP3ffQd14QJUly7hUb6PD5R9wCsz9FepAnXxIlSbNjo0N5c5Ykb58+bpGfzN22WGfonyjx2Datgw4n0yZIBascI6yjeXDx6sLzCoWfP55dFhRvky+7/Mbr91qw7n5cIFOQ6yD/ZRvvj+e/1JAlZRvjwmOUYym75c8GAuk2MZw6L8R48e4e7du7h58+Yz169fx7Zt2xjlvw1vOMo/Zrx25Dlgf/7kPffcuXOM8omIiIiIiIiIiIiIiOi91KePwsaNCp07Wy8nIiIiIiKyxCifYjv7KP+zzz7D119/jcoyG7mxUELR77//Hnny5IlwJ4nyf6rbEK2Gj0WFHgMweMFSDJy7GC1GTUSjYWOwdNt2/NS9L+oMGoGpazdiW8ARjFi0EiMWr8LsjT5Yvm0XRi9dZYvy53n7YOq6jajRfwiyVa1nu63JoGEvF+V3noZhawKx7UgoLly5gWu3H2LQiHEYPm4KVm3cir2Hj+HIyfNY4+Vri/H7DhyCgUNGYuaCZTgTdg2btu7AsFETMMjY53lLV+L4mfM4FRqGnQcCMGfxCrTv1gdp0meFW7wkiJcwqfE1wfP7IeG7RPMyG3zbtlDduukYXS5skNnkzXGM8l+dE0f5t27dwkVjX0+fPv3MBeN5sNU4Bozy34I3HOUHBQXh/PnzEc7f2bNnbeeZUT4RERERERERERERERG9jxjlExERERHRK2GUT7GdfZSfKVMm60GRSJT/Y50GaDhgKD6s1wzDF6/A7I1bMGKxJzpNnIGeM+aiWKtOqD1oOOZu3oqgs+exxn+/YR+89gVgw56DGLVER/kzNnhhzIpVKN+zn+376ET533WcghFrAuF39CLOXvrFFtpLkD907GTMW7oKG313wv9AEPYHncDI8VPRtGV7W4B/8fptBIacxUhjbN2GzdG0VQfMWrQcoVev41ToJXht24lxU2ejaZvOSJsxB+InSYWEyVIjXsIkEfdBQns5ZgUL6j/LbbLP3bvrcLxiRR3mSwhuFeVLNJ8woY7aZcZ9+USCl43yly+HOnBAR/iffaZJSC6z9Pv6QlWvHvOifDkOcjwkOpYLCCLfJypOHOVfvXrVNtv6AeNcm04ax8Lb25tR/tsgkXyHDvp5IK9feX3Lc1WC/B9+gNq8GapdO6h06azvb0ei/ICAgOfOn4T6R44cYZRPRERERERERERERERE7yVG+URERERE9EoY5VNs96pRftk69VGn7yBbRO+xYAnW79mLjXsPYOzyNfisWTvkqNEAFXr2w6ilEux7o3irbijaogMaeozE0IXLMGDOIh3lr/PCmGWrUL5H9KP8bzqOw+hNR7H37K8IvX4HR05fRLf+QzFgxHh4bvRB4MkLuHb3MRq36Yxeg0fC238/Lly7jV8f/IFy1euh56AR8N0TgO37gzB+xnys8d6OkPNhOHv5CjZu24G23foiZ8HPkTBVRrglSgGXuPEj7oPMpD1qFNSlSxFn1ZYAX4LxEyfCZ8y3ivIlyC9cWM++3bs3VPnyLx/lb9oE9X//B/W//4W7d08H6hL1uriE3/9F3lWUL8dBZiGX4Llq1efvExUnjvL/3//7f/g/4zzbe/jwoS3eZpT/lsis+DITfkgI1MiRUPLJIaNHQ4WF6df5S762JMo/Zby2nzx5EuH8PX361PacYJRPRERERERERERERERE7yNG+URERERE9EoY5VNs9yai/LbjpmDWRm+s2rEb4z3XIlftxshcpQ6Kt+qAlqPGY8yylRjnuQ5jlq/CsIXL0HP6HNTqP/T1o/wOYzDYcx+8A87h+PkrOH7hZyxfvxWT5izG6KlzMG76PMxesgq1m7ZGh54DMGHWIsxeuhrjZ85Hg5Yd0aXvEEydvwxrtuzAtr1B2HHwKPYHn8TOgKNYauxXL4+RyJq7IOImTAlX98RQcdwj7oNE66VLQ/Xtq2NzCXdNEvP266fj7sTGfd3c9HiZyV5idVkuQf/w4fr+RYtC5cypZ+eW+8ly+/XJOLldIn4J9Fetgjp/HmrsWKhevbTOnaGqVTPeuFJE3M8XkShfYnS5iGDWrPBtyv4NGaIvBChQQI+VxyIz+sv+yAUGcqHApEn6QoGkScPXmSgRVIkSUB07Qg0bptcnj0kee6tWUHnyhI99Efsov1Ah4025hg7qc+V6PspPmRKqXj0d1l++DHX8uD42cuGAXBgRJ47+VAE55rJf8hjNxzt3LtSVK/pigxgS5d+9exeXjcdx3jjXprCwMPj4+DDKf1vkOSIXwjRtCjVoENTQoVD9+0O1bq1fw1b3sSBRvsyIHxoaGuH8XTBeM/JpB4zyiYiIiIiIiIiIiIiI6H1UrJhC1aoKhQtbLyciIiIiIrLEKJ9iuzcR5VfqNRA9ps/BqGUr0WvmXGSqUgcZKtVC/nrN8EPnXmg/fgpme23BzI2bMWj+YjQYMhLFWna03bf/7IXoNmUWvunQPfpRfvvRGLxiDzYdOIWgU6E4GHIW+46exoqNvhgzbR4GjJyIIWOno2r95qjboj3adO+PVl37okbjlujtMQaDR0/B2OnzsHyDj3H/Swg8fREHjp3Blt2HMHf5WvQcPBKZPyhgi/LjxEsCF7d4EffB3V3PeP/551BTpkCtXq1J1D19OlSxYjqQlyBfZteW8Zkz67h3wQKoZcugJkzQQX7y5HrmfFn+7bf6/ub6li7VQfuXX+qZ3b/+Wt93zx4d6EvYK7Jnh0qfXs8GL/snkbwcQwn5rch+p04NVby4DtJ37YJavz58uxK2S5D/ySc6xpd1yvbNGf1379b7IOPq1tVBvHlsJGyWx/7pp1ADBuj1yTaM55ktkJdoX8bLuq32Tcg4OS6yvZUr9ez68viExNHyfJVPIhg3Th9r2a6cD7k4wdMTau9eqJ07oaZOhfriC71NOQ9yXOR7ueBAon7z8UrcLzP7S6gv8b/5WKLwLqL8Gzdu4Ny5czh+/Pgz8v3WrVsZ5b8t8hyR16y8Fps00WF+gwZ69nx5DVvdx4JE+YGBgThz5kyE8yez58tXRvlERERERERERERERET0PkqeXCFdOoVkyayXExERERERWWKUT7Hdm4jyCzVujdKdeqJS74Eo27X3s7g+W7V6KFC/Ob5u3w3NRo5DkxFjUaXPIBRt1QE5aza0jfmpW19836kXCjZo8ex+Lx3ltx2FkWsOwC/4AoJOX8DGHftw9OzP2Hk4BCs3b8f8lZuwaNVmVKzbFN9WqIEfqtbF91Xq4KufqmDWkrVYvHaLMWYjVnvvwP6jZ3H68g2EhF7D9oPBmLlkNdp074esuT9BghQZES9pGrjFT/T8fri66lm1ZYb6Fi00mWG7Zs2oZ6yXGF4iXwl+K1fW4bm5TIL6dOn0/c31NW6sw3QJ4mVMqVI6JvfxgXIU8ObLp6N6CeitSPgvs9lLbFypUvj2TLKPstwM8oXMNv/RRzrCN8fVrx8evdtvX0gAL58mIONkBnuJ3eXiA1km95GZ/q32TcgnA3z8sX6Mcnzl8cSPH75uOe5ygUKZMjqgNm+TCxUaNgzfv9q19QUL8ewuqpD9ktn1JWw3x5m+/16H/+bYKLyLKP/hw4e4efMmrl279szVq1exbds2Rvnvglw0Is+vggWtlzsgUX5wcLDtfEU+fxLqM8onIiIiIiIiIiIiIiIiIiIiIiIip8Eon2K7NxHlv2kvHeW3HoFRq/dhe/B5HD55Hiu3+OPQiTAEnrmMgydCjT9fxJEzP6NNr0H4pmItfPldBXxVrjpqNmuHzTsDsO/YeewICIHvvqPYuicIJy/fwJkrd7D7yGnMWLIGDdp2Rfb8XyBp+g+QIFVGxE2Y1HI/3rmXjfIlep82DSow0JrMCi8xvtV934UffoDautV638TixVAlS1rfNwZ4F1G+ePz4MX777bdnbt26ZdsOo/yYTaL8kJAQ3L59O8L5u3fvHkJDQxnlExERERERERERERERERERERERkfNglE+x3Xsd5bfwQNtxKzB+yWZ47wnC1Yd/YfeRc9i0MwDrtx+A167D2Bl4BhdvP8aMZevRoE13tO4xCFv2HYHXzkDsOnoWRy5cx/GwGwg6e824/ajtPqt99mLakjXoOng0shcsCvekGeDqnhTK1d1yP965l43y6a16F1G+xNv79u2Dj3GuTUeOGM9fLy9G+TGcRPkHDhzAwYMHI5y/3bt349ChQ4zyiYiIiIiIiIj+f3t3H2NldSdw/GEYKjC6KFK1gO62gGu1K7RSF3VMbCVao25L+4cua1JL3ZaVbqFqupZGXelGRzuySIUKyLTgUInYUHcY3na0+BJdYBxYXoXV7CrREIySKWnEbMxvzzNl8A5zuRuMzFxmPnPzCfee58y5T3Lmzl9fzgAAAAAA0HuI8unpPk6Uf86IkXHt3/5d3Pqzmvjmj3/6ifvRgzNjws2T/t8of/TE6fEPDy+PBQ0vxeqX/jPWrN8Sz7XsjrX/sTUa8tPvX2xJr/8r1m3aFb9evjZ+Pm9JzHl8eTzTvCMa1r0SK1/c3Pb8xS2vxfode9LrTbHihZZ4au1LMXvRsrj1JzNi6OcujL4nnxkVAwZHn34Dit5Hlxs+PLKvfS2yCRMiO/XU4nM47roiyn/33Xfb1jhy3qpVq0T5ZS6P8pubmzvtXW7btm2ifAAAAAAAAAAAAHoPUT49XXuUf9ttt8XYsWPj7LPPLqmqqiqGnvPnUX3V1THx1h/GjT+Y+on79rTb4yvXXt/2PkVv+pBzvnpT3Dj9kahdvCKWrFgXC55aGb/995dj2dqX4omVz8XSVc/H8mc2RH3j72Pe0hUxp/53sfCp1fG7dRvjNyuei8VPPxP1K34fT655Mf5t3Sttzxc93RRzlzwd0x+cExNunhKnnTUy+gw8I/pUDYk+J51c9D66XP/+kQ0ZEtkZZ0RWWVl8DsddV0T5ra2tsW/fvnj77bcP27NnT6xevVqUX+byKL+lpaVtvwr3L/+du3Pnzo5R/ujRUXf33dG0eHGMuv76yC65BAAAAAAAAAAAAHqOq74c2fRzI3vrpD9F+etPjWzK+cXnwonmi1/8KMqfNWtW22n5EyZMKGnEiL+Isz7z6fjcuSPiS5dcHF++/NJP3NjqS2Lk58+N004fFJWV2VENHvmFuOzrE+N7d94bM2bPjwfm/Toe+OWv4sH5i+OhhfUxs25JzFy4JH6+YHH8yyOPxYyH58X9c+viF48vi4ceq4+aNPe+OQvj/l/WRe2C+rbn9/zr3Jh6933xzUm3xoWXj49TBg+NfqcMiX6DkqqTi94HPVNFRcfI+khdEeXv3bs3du/eHVu3bj1s165d0djYKMovc3mUv2HDhrYAv3D/tm/fHps3b+4Q5V925pmxYPz4WDNtWoyaPTuy+fMBAAAAAAAAAACg51g0K7K1kyN7b0hk/5tF9j/nR9Zwe/G5cKK5//6Povwnn1wWtbUPxb33zijphhvGxpVXnhLV1VlZ+JtvDY3JP7o87p15U8z/zR1x3+ybo2bOd2PWwikxu+4fo3be9+ORRVPb/r1v9nei5pFJ8Ytf/TAeXviDmDl/cjw495a2sXb/XDsxpv70mrjxloviiuuGRvUVg6L6K8mVyRUDit4DPc+4cVl89rOdQ+tCXRHl56es5wH3yy+/fFgedjc0NIjyy1we5ef7deT+NTc3tymM8i9MfjJwYMy66KI4+4knInvhBQAAAAAAAAAAAOhBViU/S4YmWXJxMjspNhdOMMuWfRTlL126LB544KG4664ZJW3cODb+8IdTIiKDHqu1NYva2s6hdaGuiPI//PDDdD8dv/bv3x9NTU2i/DKXR/n5f6A4cODAoZ3709fBgwfbfiYKo3wAAAAAAAAAAAAATmCifOisXKL8vXv3xmuvvRbbt28/bPfu3bFy5UpRfpnLo/wNGzbErl27Ouzfzp072/ZZlA8AAAAAAAAAAADQQ7RH+WvWzI/6+tvisce+W9Krr/5l/PGPA4uGzNBTlEuUn38+84h78+bNh+WvGxsbRfllLo/y169f3xbiF+5ffnr+pk2bRPkAAAAAAACckIYPz+L887MYOrT4dQAAAOiV2qP8rVvvio0bx8f69aNLeuut0+PAgX5x8GAGPda+fVnU1BT5wBToiih///79bafl5+u0e+ONN2LVqlWi/DKXR/ktLS3x5ptvdti/PXv2xI4dOzpE+RUVFVFZWRn9+vWLPn36dFoLAAAAAAAAysV112UxbVoWV19d/DoAAAD0Su1R/iuvTIrnnx8Wzz6bQa/X0JDF5MlFPjAFuiLK/+CDD+LgwYPx/vvvH/bOO++0vY8ov7zlUf6WLVvivffe67B/ra2t8frrr3eI8gcNGhTnnXdejBkzJgYOHNhpLQAAAAAAACgXd96ZxfLlWUydWvw6AAAA9ErtUf6kSZNi2LBhxScBnXRFlJ8H3fkaR85zUn75y6P85ubmTnuX27ZtW4cov7q6Ourq6qKpqSlGjRrVaS0AAAAAAAAoF6J8AAAAKEKUDx+PKJ9SRPkAAAAAAAD0RKJ8AAAAKEKUDx+PKJ9SRPkAAAAAAAD0RKJ8AAAAKKLbo/yTkgHJwAJ9k/xan6Ty0NjRfCqpSI5cF44zUT6lHEuUf+mll8ajjz4ajY2NMXLkyE5rAQAAAAAAQLm4444sli7NYsqU4tcBAACgV+r2KH9M8tXkqgKfTvIwPw/uhx8aO5ovJKcmxdaG40iUTynHEuVfcMEFbfNramr8xRIAAAAAAADK2g03ZHHPPVl84xvFrwMAAECv1O1R/vKkNSl8XJucnJyV3NI2cvTHouSypNjacByJ8inlWKJ8AAAAAAAAAAAAAE5g3RLlVyUXJ3XJHcnfJ98pUJt8L/lScu6hsWJ2JgsTUT7dQJRPKaJ8AAAAAAAAAAAAgF6iW6L805L8T9ntTW5MRiRnFpie5FH+XyUDDo21Oye5KLkpWZzcnlyQFHsfOI5E+ZQiygcAAAAAAAAAAADoJbolyj89yWP8/JHH+X+WFF6vTsYmZxSM5SqTzyTXJPkp+99P/jrJ1yucB11AlE8pxxLl9+3bN/r37x8DBgyIioqKTmsBAAAAAAAAAAAAUMbKMso/mmHJ+OSfkoYkP0k/D/WLzYXjTJRPKccS5Q8ePDhGjx4d48aNi6qqqk5rAQAAAAAAAAAAAFDGTqgof2KyJJlbMAbdRJRPKccS5VdXV0ddXV00NTXFqFGjOq0FAAAAAAAAAAAAQBk7YaL8/HT8Z5P/Tl5NHk8+nzgpn24iyqcUUT4AAAAAAAAAAABAL1E2Uf6nkmHJNYeMSfJ57d/z46Q+WZ78NlmUfDvJ552WFK4PXUCUTymifAAAAAAAAAAAAIDeIIv/AxxB0tXK02t2AAAAAElFTkSuQmCC;" parent="bF-xHmNJlWQCe_c8ArNR-1" vertex="1">
                    <mxGeometry x="80" y="88" width="1720" height="89.82" as="geometry"/>
                </mxCell>
                <mxCell id="bF-xHmNJlWQCe_c8ArNR-5" value="" style="endArrow=none;dashed=1;html=1;dashPattern=1 3;strokeWidth=2;fillColor=#FF0000;strokeColor=#FFFFFF;" parent="bF-xHmNJlWQCe_c8ArNR-1" edge="1">
                    <mxGeometry width="50" height="50" relative="1" as="geometry">
                        <mxPoint x="883" y="120" as="sourcePoint"/>
                        <mxPoint x="883" y="80" as="targetPoint"/>
                    </mxGeometry>
                </mxCell>
                <mxCell id="AXpEFKj-UE8_Xka2zd_M-0" value="" style="endArrow=none;dashed=1;html=1;dashPattern=1 3;strokeWidth=2;fillColor=#FF0000;strokeColor=#FFFFFF;" parent="bF-xHmNJlWQCe_c8ArNR-1" edge="1">
                    <mxGeometry width="50" height="50" relative="1" as="geometry">
                        <mxPoint x="733" y="120" as="sourcePoint"/>
                        <mxPoint x="733" y="80" as="targetPoint"/>
                    </mxGeometry>
                </mxCell>
                <mxCell id="AXpEFKj-UE8_Xka2zd_M-2" value="" style="endArrow=none;dashed=1;html=1;dashPattern=1 3;strokeWidth=2;fillColor=#FF0000;strokeColor=#FFFFFF;" parent="bF-xHmNJlWQCe_c8ArNR-1" edge="1">
                    <mxGeometry width="50" height="50" relative="1" as="geometry">
                        <mxPoint x="585" y="120" as="sourcePoint"/>
                        <mxPoint x="585" y="80" as="targetPoint"/>
                    </mxGeometry>
                </mxCell>
                <mxCell id="AXpEFKj-UE8_Xka2zd_M-4" value="" style="endArrow=none;dashed=1;html=1;dashPattern=1 3;strokeWidth=2;fillColor=#FF0000;strokeColor=#FFFFFF;" parent="bF-xHmNJlWQCe_c8ArNR-1" edge="1">
                    <mxGeometry width="50" height="50" relative="1" as="geometry">
                        <mxPoint x="1181" y="120" as="sourcePoint"/>
                        <mxPoint x="1181" y="80" as="targetPoint"/>
                    </mxGeometry>
                </mxCell>
                <mxCell id="AXpEFKj-UE8_Xka2zd_M-5" value="" style="endArrow=none;dashed=1;html=1;dashPattern=1 3;strokeWidth=2;fillColor=#FF0000;strokeColor=#FFFFFF;" parent="bF-xHmNJlWQCe_c8ArNR-1" edge="1">
                    <mxGeometry width="50" height="50" relative="1" as="geometry">
                        <mxPoint x="1330" y="120" as="sourcePoint"/>
                        <mxPoint x="1330" y="80" as="targetPoint"/>
                    </mxGeometry>
                </mxCell>
                <mxCell id="AXpEFKj-UE8_Xka2zd_M-7" value="" style="endArrow=none;dashed=1;html=1;dashPattern=1 3;strokeWidth=2;fillColor=#FF0000;strokeColor=#FFFFFF;" parent="bF-xHmNJlWQCe_c8ArNR-1" edge="1">
                    <mxGeometry width="50" height="50" relative="1" as="geometry">
                        <mxPoint x="1032" y="120" as="sourcePoint"/>
                        <mxPoint x="1032" y="80" as="targetPoint"/>
                    </mxGeometry>
                </mxCell>
                <mxCell id="AXpEFKj-UE8_Xka2zd_M-9" value="" style="endArrow=none;dashed=1;html=1;dashPattern=1 3;strokeWidth=2;fillColor=#FF0000;strokeColor=#FFFFFF;" parent="bF-xHmNJlWQCe_c8ArNR-1" edge="1">
                    <mxGeometry width="50" height="50" relative="1" as="geometry">
                        <mxPoint x="1480" y="120" as="sourcePoint"/>
                        <mxPoint x="1480" y="80" as="targetPoint"/>
                    </mxGeometry>
                </mxCell>
                <mxCell id="AXpEFKj-UE8_Xka2zd_M-10" value="" style="endArrow=none;dashed=1;html=1;dashPattern=1 3;strokeWidth=2;fillColor=#FF0000;strokeColor=#FFFFFF;" parent="bF-xHmNJlWQCe_c8ArNR-1" edge="1">
                    <mxGeometry width="50" height="50" relative="1" as="geometry">
                        <mxPoint x="1628.9999999999995" y="120" as="sourcePoint"/>
                        <mxPoint x="1628.9999999999995" y="80" as="targetPoint"/>
                    </mxGeometry>
                </mxCell>
                <mxCell id="AXpEFKj-UE8_Xka2zd_M-15" value="&lt;font style=&quot;font-size: 14px&quot; color=&quot;#ffffff&quot;&gt;1&lt;/font&gt;" style="text;html=1;align=center;verticalAlign=middle;resizable=0;points=[];autosize=1;strokeColor=none;" parent="bF-xHmNJlWQCe_c8ArNR-1" vertex="1">
                    <mxGeometry x="501" y="94" width="20" height="20" as="geometry"/>
                </mxCell>
                <mxCell id="AXpEFKj-UE8_Xka2zd_M-16" value="&lt;font style=&quot;font-size: 14px&quot; color=&quot;#ffffff&quot;&gt;1&lt;/font&gt;" style="text;html=1;align=center;verticalAlign=middle;resizable=0;points=[];autosize=1;strokeColor=none;" parent="bF-xHmNJlWQCe_c8ArNR-1" vertex="1">
                    <mxGeometry x="649" y="94" width="20" height="20" as="geometry"/>
                </mxCell>
                <mxCell id="AXpEFKj-UE8_Xka2zd_M-17" value="" style="endArrow=none;dashed=1;html=1;dashPattern=1 3;strokeWidth=2;fillColor=#FF0000;strokeColor=#FFFFFF;" parent="bF-xHmNJlWQCe_c8ArNR-1" edge="1">
                    <mxGeometry width="50" height="50" relative="1" as="geometry">
                        <mxPoint x="435" y="120" as="sourcePoint"/>
                        <mxPoint x="435" y="80" as="targetPoint"/>
                    </mxGeometry>
                </mxCell>
                <mxCell id="AXpEFKj-UE8_Xka2zd_M-18" value="&lt;font style=&quot;font-size: 14px&quot; color=&quot;#ffffff&quot;&gt;1&lt;/font&gt;" style="text;html=1;align=center;verticalAlign=middle;resizable=0;points=[];autosize=1;strokeColor=none;" parent="bF-xHmNJlWQCe_c8ArNR-1" vertex="1">
                    <mxGeometry x="948" y="94" width="20" height="20" as="geometry"/>
                </mxCell>
                <mxCell id="AXpEFKj-UE8_Xka2zd_M-19" value="&lt;font style=&quot;font-size: 14px&quot; color=&quot;#ffffff&quot;&gt;0&lt;/font&gt;" style="text;html=1;align=center;verticalAlign=middle;resizable=0;points=[];autosize=1;strokeColor=none;" parent="bF-xHmNJlWQCe_c8ArNR-1" vertex="1">
                    <mxGeometry x="798" y="94" width="20" height="20" as="geometry"/>
                </mxCell>
                <mxCell id="AXpEFKj-UE8_Xka2zd_M-20" value="&lt;font style=&quot;font-size: 14px&quot; color=&quot;#ffffff&quot;&gt;0&lt;/font&gt;" style="text;html=1;align=center;verticalAlign=middle;resizable=0;points=[];autosize=1;strokeColor=none;" parent="bF-xHmNJlWQCe_c8ArNR-1" vertex="1">
                    <mxGeometry x="1098" y="94" width="20" height="20" as="geometry"/>
                </mxCell>
                <mxCell id="AXpEFKj-UE8_Xka2zd_M-21" value="&lt;font style=&quot;font-size: 14px&quot; color=&quot;#ffffff&quot;&gt;1&lt;/font&gt;" style="text;html=1;align=center;verticalAlign=middle;resizable=0;points=[];autosize=1;strokeColor=none;" parent="bF-xHmNJlWQCe_c8ArNR-1" vertex="1">
                    <mxGeometry x="1246" y="94" width="20" height="20" as="geometry"/>
                </mxCell>
                <mxCell id="AXpEFKj-UE8_Xka2zd_M-22" value="&lt;font style=&quot;font-size: 14px&quot; color=&quot;#ffffff&quot;&gt;0&lt;/font&gt;" style="text;html=1;align=center;verticalAlign=middle;resizable=0;points=[];autosize=1;strokeColor=none;" parent="bF-xHmNJlWQCe_c8ArNR-1" vertex="1">
                    <mxGeometry x="1394" y="94" width="20" height="20" as="geometry"/>
                </mxCell>
                <mxCell id="AXpEFKj-UE8_Xka2zd_M-23" value="&lt;font style=&quot;font-size: 14px&quot; color=&quot;#ffffff&quot;&gt;1&lt;/font&gt;" style="text;html=1;align=center;verticalAlign=middle;resizable=0;points=[];autosize=1;strokeColor=none;" parent="bF-xHmNJlWQCe_c8ArNR-1" vertex="1">
                    <mxGeometry x="1544" y="94" width="20" height="20" as="geometry"/>
                </mxCell>
                <mxCell id="AXpEFKj-UE8_Xka2zd_M-24" value="&lt;font style=&quot;font-size: 14px&quot; color=&quot;#ffffff&quot;&gt;1&lt;/font&gt;" style="text;html=1;align=center;verticalAlign=middle;resizable=0;points=[];autosize=1;strokeColor=none;" parent="bF-xHmNJlWQCe_c8ArNR-1" vertex="1">
                    <mxGeometry x="501" y="231" width="20" height="20" as="geometry"/>
                </mxCell>
                <mxCell id="AXpEFKj-UE8_Xka2zd_M-25" value="&lt;font style=&quot;font-size: 14px&quot; color=&quot;#ffffff&quot;&gt;1&lt;/font&gt;" style="text;html=1;align=center;verticalAlign=middle;resizable=0;points=[];autosize=1;strokeColor=none;" parent="bF-xHmNJlWQCe_c8ArNR-1" vertex="1">
                    <mxGeometry x="649" y="231" width="20" height="20" as="geometry"/>
                </mxCell>
                <mxCell id="AXpEFKj-UE8_Xka2zd_M-26" value="&lt;font style=&quot;font-size: 14px&quot; color=&quot;#ffffff&quot;&gt;0&lt;/font&gt;" style="text;html=1;align=center;verticalAlign=middle;resizable=0;points=[];autosize=1;strokeColor=none;" parent="bF-xHmNJlWQCe_c8ArNR-1" vertex="1">
                    <mxGeometry x="798" y="231" width="20" height="20" as="geometry"/>
                </mxCell>
                <mxCell id="AXpEFKj-UE8_Xka2zd_M-27" value="&lt;font style=&quot;font-size: 14px&quot; color=&quot;#ffffff&quot;&gt;1&lt;/font&gt;" style="text;html=1;align=center;verticalAlign=middle;resizable=0;points=[];autosize=1;strokeColor=none;" parent="bF-xHmNJlWQCe_c8ArNR-1" vertex="1">
                    <mxGeometry x="948" y="231" width="20" height="20" as="geometry"/>
                </mxCell>
                <mxCell id="AXpEFKj-UE8_Xka2zd_M-28" value="&lt;font style=&quot;font-size: 14px&quot; color=&quot;#ffffff&quot;&gt;0&lt;/font&gt;" style="text;html=1;align=center;verticalAlign=middle;resizable=0;points=[];autosize=1;strokeColor=none;" parent="bF-xHmNJlWQCe_c8ArNR-1" vertex="1">
                    <mxGeometry x="1098" y="231" width="20" height="20" as="geometry"/>
                </mxCell>
                <mxCell id="AXpEFKj-UE8_Xka2zd_M-29" value="&lt;font style=&quot;font-size: 14px&quot; color=&quot;#ffffff&quot;&gt;1&lt;/font&gt;" style="text;html=1;align=center;verticalAlign=middle;resizable=0;points=[];autosize=1;strokeColor=none;" parent="bF-xHmNJlWQCe_c8ArNR-1" vertex="1">
                    <mxGeometry x="1246" y="231" width="20" height="20" as="geometry"/>
                </mxCell>
                <mxCell id="AXpEFKj-UE8_Xka2zd_M-30" value="&lt;font style=&quot;font-size: 14px&quot; color=&quot;#ffffff&quot;&gt;0&lt;/font&gt;" style="text;html=1;align=center;verticalAlign=middle;resizable=0;points=[];autosize=1;strokeColor=none;" parent="bF-xHmNJlWQCe_c8ArNR-1" vertex="1">
                    <mxGeometry x="1394" y="231" width="20" height="20" as="geometry"/>
                </mxCell>
                <mxCell id="AXpEFKj-UE8_Xka2zd_M-31" value="&lt;font style=&quot;font-size: 14px&quot; color=&quot;#ffffff&quot;&gt;1&lt;/font&gt;" style="text;html=1;align=center;verticalAlign=middle;resizable=0;points=[];autosize=1;strokeColor=none;" parent="bF-xHmNJlWQCe_c8ArNR-1" vertex="1">
                    <mxGeometry x="1544" y="231" width="20" height="20" as="geometry"/>
                </mxCell>
                <mxCell id="AXpEFKj-UE8_Xka2zd_M-32" value="" style="endArrow=none;dashed=1;html=1;dashPattern=1 3;strokeWidth=2;fillColor=#FF0000;strokeColor=#FFFFFF;" parent="bF-xHmNJlWQCe_c8ArNR-1" edge="1">
                    <mxGeometry width="50" height="50" relative="1" as="geometry">
                        <mxPoint x="436" y="257" as="sourcePoint"/>
                        <mxPoint x="436" y="217" as="targetPoint"/>
                    </mxGeometry>
                </mxCell>
                <mxCell id="AXpEFKj-UE8_Xka2zd_M-33" value="" style="endArrow=none;dashed=1;html=1;dashPattern=1 3;strokeWidth=2;fillColor=#FF0000;strokeColor=#FFFFFF;" parent="bF-xHmNJlWQCe_c8ArNR-1" edge="1">
                    <mxGeometry width="50" height="50" relative="1" as="geometry">
                        <mxPoint x="586" y="257" as="sourcePoint"/>
                        <mxPoint x="586" y="217" as="targetPoint"/>
                    </mxGeometry>
                </mxCell>
                <mxCell id="AXpEFKj-UE8_Xka2zd_M-34" value="" style="endArrow=none;dashed=1;html=1;dashPattern=1 3;strokeWidth=2;fillColor=#FF0000;strokeColor=#FFFFFF;" parent="bF-xHmNJlWQCe_c8ArNR-1" edge="1">
                    <mxGeometry width="50" height="50" relative="1" as="geometry">
                        <mxPoint x="734" y="257" as="sourcePoint"/>
                        <mxPoint x="734" y="217" as="targetPoint"/>
                    </mxGeometry>
                </mxCell>
                <mxCell id="AXpEFKj-UE8_Xka2zd_M-35" value="" style="endArrow=none;dashed=1;html=1;dashPattern=1 3;strokeWidth=2;fillColor=#FF0000;strokeColor=#FFFFFF;" parent="bF-xHmNJlWQCe_c8ArNR-1" edge="1">
                    <mxGeometry width="50" height="50" relative="1" as="geometry">
                        <mxPoint x="884" y="257" as="sourcePoint"/>
                        <mxPoint x="884" y="217" as="targetPoint"/>
                    </mxGeometry>
                </mxCell>
                <mxCell id="AXpEFKj-UE8_Xka2zd_M-36" value="" style="endArrow=none;dashed=1;html=1;dashPattern=1 3;strokeWidth=2;fillColor=#FF0000;strokeColor=#FFFFFF;" parent="bF-xHmNJlWQCe_c8ArNR-1" edge="1">
                    <mxGeometry width="50" height="50" relative="1" as="geometry">
                        <mxPoint x="1032" y="257" as="sourcePoint"/>
                        <mxPoint x="1032" y="217" as="targetPoint"/>
                    </mxGeometry>
                </mxCell>
                <mxCell id="AXpEFKj-UE8_Xka2zd_M-37" value="" style="endArrow=none;dashed=1;html=1;dashPattern=1 3;strokeWidth=2;fillColor=#FF0000;strokeColor=#FFFFFF;" parent="bF-xHmNJlWQCe_c8ArNR-1" edge="1">
                    <mxGeometry width="50" height="50" relative="1" as="geometry">
                        <mxPoint x="1182" y="257" as="sourcePoint"/>
                        <mxPoint x="1182" y="217" as="targetPoint"/>
                    </mxGeometry>
                </mxCell>
                <mxCell id="AXpEFKj-UE8_Xka2zd_M-38" value="" style="endArrow=none;dashed=1;html=1;dashPattern=1 3;strokeWidth=2;fillColor=#FF0000;strokeColor=#FFFFFF;" parent="bF-xHmNJlWQCe_c8ArNR-1" edge="1">
                    <mxGeometry width="50" height="50" relative="1" as="geometry">
                        <mxPoint x="1329.9999999999995" y="257" as="sourcePoint"/>
                        <mxPoint x="1329.9999999999995" y="217" as="targetPoint"/>
                    </mxGeometry>
                </mxCell>
                <mxCell id="AXpEFKj-UE8_Xka2zd_M-39" value="" style="endArrow=none;dashed=1;html=1;dashPattern=1 3;strokeWidth=2;fillColor=#FF0000;strokeColor=#FFFFFF;" parent="bF-xHmNJlWQCe_c8ArNR-1" edge="1">
                    <mxGeometry width="50" height="50" relative="1" as="geometry">
                        <mxPoint x="1479.9999999999995" y="257" as="sourcePoint"/>
                        <mxPoint x="1479.9999999999995" y="217" as="targetPoint"/>
                    </mxGeometry>
                </mxCell>
                <mxCell id="AXpEFKj-UE8_Xka2zd_M-40" value="" style="endArrow=none;dashed=1;html=1;dashPattern=1 3;strokeWidth=2;fillColor=#FF0000;strokeColor=#FFFFFF;" parent="bF-xHmNJlWQCe_c8ArNR-1" edge="1">
                    <mxGeometry width="50" height="50" relative="1" as="geometry">
                        <mxPoint x="1629" y="257" as="sourcePoint"/>
                        <mxPoint x="1629" y="217" as="targetPoint"/>
                    </mxGeometry>
                </mxCell>
                <mxCell id="AXpEFKj-UE8_Xka2zd_M-41" value="&lt;font style=&quot;font-size: 14px&quot; color=&quot;#ffffff&quot;&gt;start bit&lt;/font&gt;" style="text;html=1;align=center;verticalAlign=middle;resizable=0;points=[];autosize=1;strokeColor=none;" parent="bF-xHmNJlWQCe_c8ArNR-1" vertex="1">
                    <mxGeometry x="330" y="94" width="60" height="20" as="geometry"/>
                </mxCell>
                <mxCell id="AXpEFKj-UE8_Xka2zd_M-42" value="&lt;font style=&quot;font-size: 14px&quot; color=&quot;#ffffff&quot;&gt;stop bit&lt;/font&gt;" style="text;html=1;align=center;verticalAlign=middle;resizable=0;points=[];autosize=1;strokeColor=none;" parent="bF-xHmNJlWQCe_c8ArNR-1" vertex="1">
                    <mxGeometry x="1672" y="94" width="60" height="20" as="geometry"/>
                </mxCell>
                <mxCell id="AXpEFKj-UE8_Xka2zd_M-43" value="&lt;font style=&quot;font-size: 14px&quot; color=&quot;#ffffff&quot;&gt;stop bit&lt;/font&gt;" style="text;html=1;align=center;verticalAlign=middle;resizable=0;points=[];autosize=1;strokeColor=none;" parent="bF-xHmNJlWQCe_c8ArNR-1" vertex="1">
                    <mxGeometry x="1672" y="231" width="60" height="20" as="geometry"/>
                </mxCell>
                <mxCell id="AXpEFKj-UE8_Xka2zd_M-44" value="&lt;font style=&quot;font-size: 14px&quot; color=&quot;#ffffff&quot;&gt;start bit&lt;/font&gt;" style="text;html=1;align=center;verticalAlign=middle;resizable=0;points=[];autosize=1;strokeColor=none;" parent="bF-xHmNJlWQCe_c8ArNR-1" vertex="1">
                    <mxGeometry x="330" y="230.5" width="60" height="20" as="geometry"/>
                </mxCell>
            </root>
        </mxGraphModel>
    </diagram>
</mxfile>